{
.appVersion = "3151";
.formatVersion = 3;
DisplayStrings = (
"fifl
ﬁﬂ/iacute_j.loclnld.sc",
abcdefghijklmnopqrstuvwxyz,
"/cent.osf",
noHO,
"ð฿¢$₦₧₱₩/cent.osf"
);
axes = (
{
name = Weight;
tag = wght;
}
);
classes = (
{
automatic = 1;

glyphs = (
{
glyphname = .notdef;
lastChange = "2023-04-14 00:30:47 +0000";
layers = (
{
layerId = "13A5184A-77A5-4E03-80A5-A9198A2CA35F";
shapes = (
{
closed = 1;
nodes = (
(565,27,l),
(565,693,l),
(147,693,l),
(147,27,l)
);
},
{
closed = 1;
nodes = (
(187,652,l),
(525,652,l),
(525,68,l),
(187,68,l)
);
},
{
closed = 1;
nodes = (
(358,331,l),
(475,164,l),
(504,177,l),
(380,356,l),
(501,533,l),
(477,551,l),
(359,379,l),
(240,551,l),
(215,534,l),
(338,356,l),
(216,178,l),
(244,162,l)
);
}
);
width = 667;
},
{
layerId = "74CCE9C5-5564-42E0-9214-3BF0725DF94D";
shapes = (
{
closed = 1;
nodes = (
(563,27,l),
(563,693,l),
(145,693,l),
(145,27,l)
);
},
{
closed = 1;
nodes = (
(185,652,l),
(523,652,l),
(523,68,l),
(185,68,l)
);
},
{
closed = 1;
nodes = (
(356,331,l),
(473,164,l),
(502,177,l),
(378,356,l),
(499,533,l),
(475,551,l),
(357,379,l),
(238,551,l),
(213,534,l),
(336,356,l),
(214,178,l),
(242,162,l)
);
}
);
width = 667;
},
{
layerId = "6D60D92C-1450-4586-BB49-599D0D4C1213";
shapes = (
{
closed = 1;
nodes = (
(562,27,l),
(562,693,l),
(144,693,l),
(144,27,l)
);
},
{
closed = 1;
nodes = (
(184,652,l),
(522,652,l),
(522,68,l),
(184,68,l)
);
},
{
closed = 1;
nodes = (
(355,331,l),
(472,164,l),
(501,177,l),
(377,356,l),
(498,533,l),
(474,551,l),
(356,379,l),
(237,551,l),
(212,534,l),
(335,356,l),
(213,178,l),
(241,162,l)
);
}
);
width = 668;
}
);
},
{
color = 4;
glyphname = A;
kernLeft = A;
kernRight = A;
lastChange = "2021-09-30 22:27:23 +0000";
layers = (
{
anchors = (
{
name = bottom;
pos = (277,-35);
},
{
name = ogonek;
pos = (555,10);
},
{
name = top.case;
pos = (423,720);
}
);
guides = (
{
angle = 79;
pos = (298,71);
}
);
layerId = "13A5184A-77A5-4E03-80A5-A9198A2CA35F";
shapes = (
{
closed = 1;
nodes = (
(3,0,l),
(415,677,l),
(417,677,l),
(561,0,l),
(601,0,l),
(449,700,l),
(388,700,l),
(-43,0,l)
);
},
{
closed = 1;
nodes = (
(528,200,l),
(535,236,l),
(110,236,l),
(103,200,l)
);
}
);
width = 654;
},
{
anchors = (
{
name = bottom;
pos = (345,-35);
},
{
name = ogonek;
pos = (619,10);
},
{
name = top.case;
pos = (477,720);
}
);
background = {
anchors = (
{
name = ogonek;
pos = (632,-41);
},
{
name = top.case;
pos = (478,702);
}
);
shapes = (
{
closed = 1;
nodes = (
(196,0,l),
(432,473,l),
(436,473,l),
(488,0,l),
(722,0,l),
(603,700,l),
(354,700,l),
(-33,0,l)
);
},
{
closed = 1;
nodes = (
(510,98,l),
(542,261,l),
(246,261,l),
(214,98,l)
);
}
);
};
guides = (
{
angle = 79;
pos = (353,44);
}
);
layerId = "6D60D92C-1450-4586-BB49-599D0D4C1213";
shapes = (
{
closed = 1;
nodes = (
(206,0,l),
(435,474,l),
(438,474,l),
(498,0,l),
(726,0,l),
(595,700,l),
(348,700,l),
(-36,0,l)
);
},
{
closed = 1;
nodes = (
(513,98,l),
(545,261,l),
(249,261,l),
(217,98,l)
);
}
);
width = 792;
},
{
anchors = (
{
name = bottom;
pos = (311,-35);
},
{
name = ogonek;
pos = (580,10);
},
{
name = top.case;
pos = (452,720);
}
);
background = {
shapes = (
{
closed = 1;
nodes = (
(107,0,l),
(426,560,l),
(429,560,l),
(525,0,l),
(669,0,l),
(531,700,l),
(379,700,l),
(-29,0,l)
);
},
{
closed = 1;
nodes = (
(523,139,l),
(545,254,l),
(189,254,l),
(167,139,l)
);
}
);
};
guides = (
{
angle = 79;
pos = (335,86);
},
{
pos = (163,562);
}
);
layerId = "74CCE9C5-5564-42E0-9214-3BF0725DF94D";
shapes = (
{
closed = 1;
nodes = (
(123,0,l),
(423,562,l),
(425,562,l),
(525,0,l),
(666,0,l),
(524,700,l),
(377,700,l),
(-39,0,l)
);
},
{
closed = 1;
nodes = (
(541,146,l),
(565,261,l),
(165,261,l),
(141,146,l)
);
}
);
width = 725;
}
);
unicode = 65;
},
{
color = 3;
glyphname = AE;
kernLeft = AE;
kernRight = E;
lastChange = "2021-09-30 22:27:23 +0000";
layers = (
{
anchors = (
{
name = top.case;
pos = (762,720);
}
);
background = {
shapes = (
{
closed = 1;
nodes = (
(70,59,l),
(530,667,l),
(591,658,l),
(596,694,l),
(512,706,l),
(26,65,l)
);
},
{
closed = 1;
nodes = (
(546,317,l),
(551,353,l),
(287,389,l),
(281,353,l)
);
},
{
closed = 1;
nodes = (
(947,-60,l),
(953,-24,l),
(520,35,l),
(558,316,l),
(944,264,l),
(948,299,l),
(563,352,l),
(604,656,l),
(1030,600,l),
(1034,635,l),
(571,698,l),
(477,4,l)
);
}
);
};
layerId = "13A5184A-77A5-4E03-80A5-A9198A2CA35F";
shapes = (
{
closed = 1;
nodes = (
(25,0,l),
(527,664,l),
(589,664,l),
(596,700,l),
(508,700,l),
(-23,0,l)
);
},
{
closed = 1;
nodes = (
(523,320,l),
(530,356,l),
(263,356,l),
(256,320,l)
);
},
{
closed = 1;
nodes = (
(909,0,l),
(916,36,l),
(480,36,l),
(535,320,l),
(924,320,l),
(931,356,l),
(542,356,l),
(602,664,l),
(1031,664,l),
(1038,700,l),
(570,700,l),
(434,0,l)
);
}
);
width = 1012;
},
{
anchors = (
{
name = top.case;
pos = (804,720);
}
);
background = {
shapes = (
{
closed = 1;
nodes = (
(201,0,l),
(532,525,l),
(710,525,l),
(732,700,l),
(431,700,l),
(-48,0,l)
);
},
{
closed = 1;
nodes = (
(548,216,l),
(581,384,l),
(285,384,l),
(252,216,l)
);
},
{
closed = 1;
nodes = (
(1020,0,l),
(1057,192,l),
(717,192,l),
(728,248,l),
(1021,248,l),
(1056,426,l),
(763,426,l),
(779,510,l),
(1112,510,l),
(1149,700,l),
(593,700,l),
(457,0,l)
);
}
);
};
layerId = "6D60D92C-1450-4586-BB49-599D0D4C1213";
shapes = (
{
closed = 1;
nodes = (
(207,0,l),
(540,525,l),
(710,525,l),
(732,700,l),
(421,700,l),
(-67,0,l)
);
},
{
closed = 1;
nodes = (
(548,216,l),
(581,384,l),
(285,384,l),
(252,216,l)
);
},
{
closed = 1;
nodes = (
(1020,0,l),
(1057,192,l),
(717,192,l),
(728,248,l),
(1021,248,l),
(1056,426,l),
(763,426,l),
(779,510,l),
(1112,510,l),
(1149,700,l),
(593,700,l),
(457,0,l)
);
}
);
width = 1096;
},
{
anchors = (
{
name = top.case;
pos = (792,720);
}
);
background = {
shapes = (
{
closed = 1;
nodes = (
(132,0,l),
(544,576,l),
(667,576,l),
(691,700,l),
(484,700,l),
(-31,0,l)
);
},
{
closed = 1;
nodes = (
(612,261,l),
(635,381,l),
(279,381,l),
(256,261,l)
);
},
{
closed = 1;
nodes = (
(967,0,l),
(990,115,l),
(614,115,l),
(642,260,l),
(971,260,l),
(995,384,l),
(666,384,l),
(705,585,l),
(1074,585,l),
(1096,700,l),
(596,700,l),
(460,0,l)
);
}
);
};
layerId = "74CCE9C5-5564-42E0-9214-3BF0725DF94D";
shapes = (
{
closed = 1;
nodes = (
(132,0,l),
(544,576,l),
(667,576,l),
(691,700,l),
(484,700,l),
(-31,0,l)
);
},
{
closed = 1;
nodes = (
(612,264,l),
(632,379,l),
(279,379,l),
(256,264,l)
);
},
{
closed = 1;
nodes = (
(967,0,l),
(990,115,l),
(614,115,l),
(643,264,l),
(972,264,l),
(994,379,l),
(666,379,l),
(705,585,l),
(1074,585,l),
(1096,700,l),
(596,700,l),
(460,0,l)
);
}
);
width = 1057;
}
);
metricRight = E;
unicode = 198;
},
{
color = 4;
glyphname = B;
kernRight = B;
lastChange = "2021-09-30 22:27:23 +0000";
layers = (
{
background = {
shapes = (
{
closed = 1;
nodes = (
(354,0,ls),
(497,0,o),
(589,69,o),
(613,190,cs),
(630,277,o),
(587,347,o),
(511,362,c),
(511,363,l),
(602,384,o),
(644,444,o),
(658,513,cs),
(680,627,o),
(621,700,o),
(492,700,cs),
(193,700,l),
(57,0,l)
);
},
{
closed = 1;
nodes = (
(163,346,l),
(425,346,ls),
(540,346,o),
(590,283,o),
(573,195,cs),
(552,88,o),
(483,36,o),
(348,36,cs),
(103,36,l)
);
},
{
closed = 1;
nodes = (
(225,664,l),
(473,664,ls),
(598,664,o),
(636,604,o),
(619,516,cs),
(602,429,o),
(540,382,o),
(433,382,cs),
(170,382,l)
);
}
);
};
guides = (
{
angle = 79;
pos = (605,387);
},
{
angle = 79;
pos = (642,365);
},
{
angle = 79;
pos = (685,678);
},
{
angle = 79;
pos = (644,678);
}
);
layerId = "13A5184A-77A5-4E03-80A5-A9198A2CA35F";
shapes = (
{
closed = 1;
nodes = (
(354,0,ls),
(497,0,o),
(589,69,o),
(613,190,cs),
(630,277,o),
(587,347,o),
(511,362,c),
(511,363,l),
(602,384,o),
(644,444,o),
(658,513,cs),
(685,630,o),
(619,700,o),
(472,700,cs),
(193,700,l),
(57,0,l)
);
},
{
closed = 1;
nodes = (
(163,346,l),
(425,346,ls),
(540,346,o),
(590,283,o),
(573,195,cs),
(552,88,o),
(483,36,o),
(348,36,cs),
(103,36,l)
);
},
{
closed = 1;
nodes = (
(225,664,l),
(463,664,ls),
(596,664,o),
(638,604,o),
(619,516,cs),
(602,429,o),
(540,382,o),
(433,382,cs),
(170,382,l)
);
}
);
width = 679;
},
{
background = {
shapes = (
{
closed = 1;
nodes = (
(417,0,ls),
(576,0,o),
(678,92,o),
(702,221,cs),
(713,279,o),
(689,335,o),
(638,360,c),
(638,362,l),
(691,400,o),
(719,454,o),
(729,504,cs),
(751,616,o),
(690,700,o),
(543,700,cs),
(140,700,l),
(4,0,l)
);
},
{
closed = 1;
nodes = (
(284,291,l),
(424,291,ls),
(469,291,o),
(484,273,o),
(476,232,cs),
(467,188,o),
(436,176,o),
(384,176,cs),
(261,176,l)
);
},
{
closed = 1;
nodes = (
(331,535,l),
(450,535,ls),
(505,535,o),
(523,517,o),
(516,479,cs),
(509,440,o),
(481,423,o),
(442,423,cs),
(309,423,l)
);
}
);
};
guides = (
{
angle = 79;
pos = (659,0);
},
{
angle = 79;
pos = (633,-41);
},
{
angle = 79;
pos = (408,-77);
},
{
angle = 79;
pos = (418,-67);
}
);
layerId = "6D60D92C-1450-4586-BB49-599D0D4C1213";
shapes = (
{
closed = 1;
nodes = (
(400,0,ls),
(586,0,o),
(677,90,o),
(700,211,cs),
(710,265,o),
(692,335,o),
(633,361,c),
(633,362,l),
(692,397,o),
(719,454,o),
(729,504,cs),
(749,602,o),
(702,700,o),
(533,700,cs),
(140,700,l),
(4,0,l)
);
},
{
closed = 1;
nodes = (
(284,291,l),
(420,291,ls),
(466,291,o),
(484,273,o),
(476,232,cs),
(469,197,o),
(447,176,o),
(396,176,cs),
(261,176,l)
);
},
{
closed = 1;
nodes = (
(331,535,l),
(457,535,ls),
(508,535,o),
(523,513,o),
(515,476,cs),
(508,440,o),
(485,423,o),
(442,423,cs),
(309,423,l)
);
}
);
width = 735;
},
{
background = {
shapes = (
{
closed = 1;
nodes = (
(375,0,ls),
(524,0,o),
(623,83,o),
(648,209,cs),
(663,285,o),
(626,343,o),
(565,362,c),
(566,363,l),
(638,393,o),
(667,453,o),
(679,515,cs),
(700,622,o),
(643,700,o),
(500,700,cs),
(171,700,l),
(35,0,l)
);
},
{
closed = 1;
nodes = (
(224,300,l),
(432,300,ls),
(494,300,o),
(525,270,o),
(514,212,cs),
(501,145,o),
(460,115,o),
(390,115,cs),
(188,115,l)
);
},
{
closed = 1;
nodes = (
(280,585,l),
(470,585,ls),
(538,585,o),
(562,555,o),
(551,501,cs),
(539,444,o),
(505,415,o),
(445,415,cs),
(247,415,l)
);
}
);
};
guides = (
{
pos = (86,115);
},
{
pos = (218,585);
}
);
layerId = "74CCE9C5-5564-42E0-9214-3BF0725DF94D";
shapes = (
{
closed = 1;
nodes = (
(366,0,ls),
(530,0,o),
(621,73,o),
(645,198,cs),
(660,275,o),
(625,343,o),
(554,360,c),
(554,361,l),
(631,388,o),
(676,449,o),
(688,512,cs),
(708,615,o),
(655,700,o),
(506,700,cs),
(170,700,l),
(34,0,l)
);
},
{
closed = 1;
nodes = (
(223,300,l),
(427,300,ls),
(496,300,o),
(523,267,o),
(512,206,cs),
(501,144,o),
(464,115,o),
(395,115,cs),
(188,115,l)
);
},
{
closed = 1;
nodes = (
(276,585,l),
(476,585,ls),
(538,585,o),
(561,554,o),
(551,501,cs),
(541,441,o),
(510,415,o),
(450,415,cs),
(245,415,l)
);
}
);
width = 706;
}
);
metricLeft = H;
unicode = 66;
},
{
color = 4;
glyphname = C;
kernLeft = O;
kernRight = C;
lastChange = "2021-09-30 22:27:23 +0000";
layers = (
{
anchors = (
{
name = bottom;
pos = (328,-35);
},
{
name = top.case;
pos = (519,720);
}
);
background = {
shapes = (
{
closed = 1;
nodes = (
(438,-6,o),
(514,8,o),
(591,41,cs),
(673,75,l),
(659,33,l),
(623,110,l),
(678,107,l),
(580,71,ls),
(508,45,o),
(439,30,o),
(379,30,cs),
(193,30,o),
(89,151,o),
(129,359,cs),
(169,562,o),
(330,674,o),
(510,674,cs),
(570,674,o),
(625,663,o),
(703,638,cs),
(731,629,l),
(710,610,l),
(739,670,l),
(759,652,l),
(715,669,ls),
(650,694,o),
(581,710,o),
(508,710,cs),
(307,710,o),
(130,580,o),
(88,361,cs),
(44,132,o),
(170,-6,o),
(370,-6,cs)
);
}
);
};
guides = (
{
angle = 79;
pos = (24,57);
},
{
angle = 79;
pos = (65,57);
}
);
layerId = "13A5184A-77A5-4E03-80A5-A9198A2CA35F";
shapes = (
{
closed = 1;
nodes = (
(438,-6,o),
(514,8,o),
(591,41,cs),
(673,75,l),
(659,33,l),
(623,110,l),
(678,107,l),
(580,71,ls),
(508,45,o),
(439,30,o),
(379,30,cs),
(193,30,o),
(89,151,o),
(129,359,cs),
(169,562,o),
(330,674,o),
(510,674,cs),
(570,674,o),
(625,663,o),
(703,638,cs),
(731,629,l),
(710,610,l),
(739,670,l),
(759,652,l),
(715,669,ls),
(650,694,o),
(581,710,o),
(508,710,cs),
(307,710,o),
(130,580,o),
(88,361,cs),
(44,132,o),
(170,-6,o),
(370,-6,cs)
);
}
);
width = 724;
},
{
anchors = (
{
name = bottom;
pos = (339,-35);
},
{
name = top.case;
pos = (495,720);
}
);
guides = (
{
angle = 79;
pos = (114,670);
},
{
angle = 79;
pos = (369,808);
}
);
layerId = "6D60D92C-1450-4586-BB49-599D0D4C1213";
shapes = (
{
closed = 1;
nodes = (
(421,-9,o),
(505,8,o),
(553,22,cs),
(670,56,l),
(590,1,l),
(581,276,l),
(624,208,l),
(549,202,ls),
(491,199,o),
(442,195,o),
(402,195,cs),
(298,195,o),
(258,241,o),
(281,362,cs),
(304,477,o),
(364,507,o),
(468,507,cs),
(516,507,o),
(560,503,o),
(609,497,cs),
(672,490,l),
(609,429,l),
(705,707,l),
(749,654,l),
(676,678,ls),
(639,690,o),
(554,709,o),
(483,709,cs),
(269,709,o),
(102,608,o),
(57,377,cs),
(10,133,o),
(129,-9,o),
(348,-9,cs)
);
}
);
width = 650;
},
{
anchors = (
{
name = bottom;
pos = (334,-35);
},
{
name = top.case;
pos = (479,720);
}
);
background = {
shapes = (
{
closed = 1;
nodes = (
(424,-8,o),
(503,8,o),
(577,37,cs),
(664,71,l),
(612,19,l),
(603,195,l),
(643,160,l),
(558,138,ls),
(494,121,o),
(436,113,o),
(386,113,cs),
(246,113,o),
(172,189,o),
(203,352,cs),
(233,511,o),
(345,589,o),
(484,589,cs),
(537,589,o),
(583,578,o),
(641,567,cs),
(692,557,l),
(644,509,l),
(723,688,l),
(743,650,l),
(694,671,ls),
(639,694,o),
(573,710,o),
(501,710,cs),
(300,710,o),
(114,582,o),
(69,351,cs),
(23,115,o),
(150,-8,o),
(354,-8,cs)
);
}
);
};
guides = (
{
angle = 79;
pos = (441,413);
},
{
angle = 79;
pos = (248,582);
},
{
angle = 79;
pos = (127,652);
}
);
layerId = "74CCE9C5-5564-42E0-9214-3BF0725DF94D";
shapes = (
{
closed = 1;
nodes = (
(421,-10,o),
(499,10,o),
(574,39,cs),
(636,63,l),
(620,20,l),
(574,186,l),
(604,151,l),
(544,136,ls),
(486,122,o),
(434,113,o),
(383,113,cs),
(244,113,o),
(173,194,o),
(205,363,cs),
(233,516,o),
(338,589,o),
(469,589,cs),
(511,589,o),
(557,583,o),
(604,572,cs),
(659,559,l),
(624,509,l),
(715,686,l),
(727,648,l),
(671,672,ls),
(618,695,o),
(541,710,o),
(475,710,cs),
(279,710,o),
(116,607,o),
(74,378,cs),
(29,142,o),
(148,-10,o),
(350,-10,cs)
);
}
);
width = 691;
}
);
metricLeft = O;
unicode = 67;
},
{
color = 4;
glyphname = D;
kernRight = O;
lastChange = "2021-09-30 23:32:10 +0000";
layers = (
{
anchors = (
{
name = top.case;
pos = (440,720);
}
);
background = {
shapes = (
{
closed = 1;
nodes = (
(395,340,l),
(402,376,l),
(-15,376,l),
(-22,340,l)
);
},
{
closed = 1;
nodes = (
(285,0,ls),
(505,0,o),
(670,135,o),
(712,349,cs),
(754,563,o),
(644,700,o),
(431,700,cs),
(193,700,l),
(57,0,l)
);
},
{
closed = 1;
nodes = (
(225,664,l),
(421,664,ls),
(614,664,o),
(709,545,o),
(671,349,cs),
(634,158,o),
(489,36,o),
(299,36,cs),
(103,36,l)
);
}
);
};
guides = (
{
angle = 79;
pos = (623,55);
},
{
angle = 79;
pos = (665,61);
}
);
layerId = "13A5184A-77A5-4E03-80A5-A9198A2CA35F";
shapes = (
{
closed = 1;
nodes = (
(288,0,ls),
(511,0,o),
(668,112,o),
(711,338,cs),
(752,553,o),
(647,700,o),
(423,700,cs),
(193,700,l),
(57,0,l)
);
},
{
closed = 1;
nodes = (
(225,664,l),
(412,664,ls),
(615,664,o),
(710,544,o),
(670,338,cs),
(633,146,o),
(492,36,o),
(295,36,cs),
(103,36,l)
);
}
);
width = 758;
},
{
anchors = (
{
name = top.case;
pos = (432,720);
}
);
background = {
shapes = (
{
closed = 1;
nodes = (
(280,0,ls),
(524,0,o),
(700,124,o),
(744,349,cs),
(791,589,o),
(655,700,o),
(423,700,cs),
(140,700,l),
(4,0,l)
);
},
{
closed = 1;
nodes = (
(325,505,l),
(378,505,ls),
(504,505,o),
(540,474,o),
(516,349,cs),
(495,240,o),
(439,195,o),
(318,195,cs),
(265,195,l)
);
}
);
};
guides = (
{
angle = 79;
pos = (807,673);
},
{
angle = 79;
pos = (560,574);
}
);
layerId = "6D60D92C-1450-4586-BB49-599D0D4C1213";
shapes = (
{
closed = 1;
nodes = (
(286,0,ls),
(538,0,o),
(695,100,o),
(740,329,cs),
(784,552,o),
(663,700,o),
(423,700,cs),
(140,700,l),
(4,0,l)
);
},
{
closed = 1;
nodes = (
(325,505,l),
(378,505,ls),
(504,505,o),
(537,459,o),
(514,339,cs),
(494,234,o),
(439,195,o),
(318,195,cs),
(265,195,l)
);
}
);
width = 762;
},
{
anchors = (
{
name = top.case;
pos = (437,720);
}
);
background = {
shapes = (
{
closed = 1;
nodes = (
(286,0,ls),
(518,0,o),
(689,130,o),
(732,349,cs),
(777,576,o),
(653,700,o),
(431,700,cs),
(170,700,l),
(34,0,l)
);
},
{
closed = 1;
nodes = (
(279,585,l),
(405,585,ls),
(564,585,o),
(629,509,o),
(598,349,cs),
(569,199,o),
(468,115,o),
(313,115,cs),
(187,115,l)
);
}
);
};
layerId = "74CCE9C5-5564-42E0-9214-3BF0725DF94D";
shapes = (
{
closed = 1;
nodes = (
(282,0,ls),
(524,0,o),
(686,106,o),
(731,334,cs),
(774,553,o),
(660,700,o),
(428,700,cs),
(170,700,l),
(34,0,l)
);
},
{
closed = 1;
nodes = (
(279,585,l),
(402,585,ls),
(568,585,o),
(629,495,o),
(598,339,cs),
(569,194,o),
(468,115,o),
(310,115,cs),
(187,115,l)
);
}
);
width = 765;
}
);
metricLeft = H;
metricRight = O;
unicode = 68;
},
{
color = 3;
glyphname = Eth;
kernLeft = Eth;
kernRight = O;
lastChange = "2021-09-30 23:32:10 +0000";
layers = (
{
background = {
shapes = (
{
closed = 1;
nodes = (
(455,340,l),
(462,376,l),
(45,376,l),
(38,340,l)
);
},
{
closed = 1;
nodes = (
(345,0,ls),
(565,0,o),
(730,135,o),
(772,349,cs),
(814,563,o),
(704,700,o),
(491,700,cs),
(253,700,l),
(117,0,l)
);
},
{
closed = 1;
nodes = (
(285,664,l),
(481,664,ls),
(674,664,o),
(769,545,o),
(731,349,cs),
(694,158,o),
(549,36,o),
(359,36,cs),
(163,36,l)
);
}
);
};
layerId = "13A5184A-77A5-4E03-80A5-A9198A2CA35F";
shapes = (
{
closed = 1;
nodes = (
(456,340,l),
(462,376,l),
(45,376,l),
(39,340,l)
);
},
{
pos = (61,0);
ref = D;
}
);
width = 819;
},
{
background = {
shapes = (
{
closed = 1;
nodes = (
(411,289,l),
(434,406,l),
(26,406,l),
(3,289,l)
);
},
{
closed = 1;
nodes = (
(298,0,ls),
(542,0,o),
(718,124,o),
(762,349,cs),
(809,589,o),
(673,700,o),
(441,700,cs),
(158,700,l),
(22,0,l)
);
},
{
closed = 1;
nodes = (
(342,499,l),
(395,499,ls),
(521,499,o),
(557,469,o),
(534,349,cs),
(514,244,o),
(458,201,o),
(337,201,cs),
(284,201,l)
);
}
);
};
layerId = "6D60D92C-1450-4586-BB49-599D0D4C1213";
shapes = (
{
closed = 1;
nodes = (
(411,289,l),
(434,406,l),
(26,406,l),
(3,289,l)
);
},
{
pos = (20,0);
ref = D;
}
);
width = 782;
},
{
background = {
shapes = (
{
closed = 1;
nodes = (
(445,311,l),
(463,400,l),
(45,400,l),
(27,311,l)
);
},
{
closed = 1;
nodes = (
(327,0,ls),
(559,0,o),
(730,130,o),
(773,349,cs),
(818,576,o),
(694,700,o),
(472,700,cs),
(211,700,l),
(75,0,l)
);
},
{
closed = 1;
nodes = (
(319,582,l),
(444,582,ls),
(603,582,o),
(669,507,o),
(638,349,cs),
(609,201,o),
(509,119,o),
(354,119,cs),
(229,119,l)
);
}
);
};
layerId = "74CCE9C5-5564-42E0-9214-3BF0725DF94D";
shapes = (
{
closed = 1;
nodes = (
(445,311,l),
(463,400,l),
(45,400,l),
(27,311,l)
);
},
{
pos = (40,0);
ref = D;
}
);
width = 805;
}
);
metricRight = D;
unicode = 208;
},
{
color = 4;
glyphname = E;
kernRight = E;
lastChange = "2021-09-30 22:27:23 +0000";
layers = (
{
anchors = (
{
name = bottom;
pos = (311,-35);
},
{
name = ogonek;
pos = (479,10);
},
{
name = top.case;
pos = (455,720);
}
);
layerId = "13A5184A-77A5-4E03-80A5-A9198A2CA35F";
shapes = (
{
closed = 1;
nodes = (
(552,0,l),
(559,36,l),
(103,36,l),
(162,340,l),
(571,340,l),
(578,376,l),
(169,376,l),
(225,664,l),
(674,664,l),
(681,700,l),
(193,700,l),
(57,0,l)
);
}
);
width = 655;
},
{
anchors = (
{
name = bottom;
pos = (296,-35);
},
{
name = ogonek;
pos = (457,10);
},
{
name = top.case;
pos = (430,709);
}
);
background = {
shapes = (
{
closed = 1;
nodes = (
(582,0,l),
(619,192,l),
(264,192,l),
(280,272,l),
(588,272,l),
(620,437,l),
(312,437,l),
(326,510,l),
(674,510,l),
(711,700,l),
(140,700,l),
(4,0,l)
);
}
);
};
layerId = "6D60D92C-1450-4586-BB49-599D0D4C1213";
shapes = (
{
closed = 1;
nodes = (
(582,0,l),
(619,192,l),
(264,192,l),
(280,272,l),
(588,272,l),
(620,437,l),
(312,437,l),
(326,510,l),
(674,510,l),
(711,700,l),
(140,700,l),
(4,0,l)
);
}
);
width = 658;
},
{
anchors = (
{
name = bottom;
pos = (295,-35);
},
{
name = ogonek;
pos = (471,10);
},
{
name = top.case;
pos = (436,715);
}
);
background = {
shapes = (
{
closed = 1;
nodes = (
(567,0,l),
(589,115,l),
(188,115,l),
(224,301,l),
(578,301,l),
(601,416,l),
(247,416,l),
(280,585,l),
(674,585,l),
(696,700,l),
(171,700,l),
(35,0,l)
);
}
);
};
guides = (
{
pos = (214,585);
},
{
pos = (204,416);
},
{
pos = (204,301);
},
{
pos = (183,116);
}
);
layerId = "74CCE9C5-5564-42E0-9214-3BF0725DF94D";
shapes = (
{
closed = 1;
nodes = (
(566,0,l),
(589,115,l),
(188,115,l),
(224,301,l),
(578,301,l),
(601,416,l),
(246,416,l),
(279,585,l),
(673,585,l),
(695,700,l),
(170,700,l),
(34,0,l)
);
}
);
width = 656;
}
);
metricLeft = H;
unicode = 69;
},
{
glyphname = Schwa;
lastChange = "2021-09-30 22:27:23 +0000";
layers = (
{
background = {
shapes = (
{
closed = 1;
nodes = (
(507,-10,o),
(679,155,o),
(717,351,cs),
(760,574,o),
(646,710,o),
(429,710,cs),
(355,710,o),
(283,696,o),
(219,676,cs),
(151,655,l),
(172,695,l),
(180,615,l),
(162,629,l),
(222,647,ls),
(291,668,o),
(353,674,o),
(418,674,cs),
(607,674,o),
(717,554,o),
(677,350,cs),
(639,154,o),
(481,26,o),
(321,26,cs),
(149,26,o),
(80,149,o),
(115,330,c),
(90,310,l),
(691,310,l),
(698,346,l),
(80,346,l),
(76,323,ls),
(45,145,o),
(106,-10,o),
(314,-10,cs)
);
}
);
};
layerId = "13A5184A-77A5-4E03-80A5-A9198A2CA35F";
shapes = (
{
closed = 1;
nodes = (
(520,-10,o),
(679,147,o),
(716,339,cs),
(762,579,o),
(637,710,o),
(432,710,cs),
(374,710,o),
(306,701,o),
(236,679,cs),
(152,653,l),
(164,695,l),
(189,615,l),
(163,630,l),
(243,651,ls),
(305,667,o),
(363,674,o),
(417,674,cs),
(602,674,o),
(721,564,o),
(679,350,cs),
(641,154,o),
(482,26,o),
(322,26,cs),
(146,26,o),
(82,144,o),
(118,330,c),
(91,310,l),
(692,310,l),
(699,346,l),
(80,346,l),
(76,323,ls),
(45,145,o),
(107,-10,o),
(315,-10,cs)
);
}
);
width = 763;
},
{
background = {
shapes = (
{
pos = (-9,0);
ref = O;
}
);
};
layerId = "74CCE9C5-5564-42E0-9214-3BF0725DF94D";
shapes = (
{
closed = 1;
nodes = (
(553,-10,o),
(697,112,o),
(739,329,cs),
(784,564,o),
(659,710,o),
(451,710,cs),
(370,710,o),
(294,699,o),
(221,674,cs),
(141,647,l),
(144,694,l),
(186,510,l),
(152,552,l),
(234,569,ls),
(299,582,o),
(356,589,o),
(410,589,cs),
(569,589,o),
(641,513,o),
(607,335,cs),
(579,185,o),
(477,111,o),
(357,111,cs),
(234,111,o),
(173,186,o),
(200,326,c),
(156,285,l),
(625,285,l),
(646,390,l),
(77,390,l),
(70,355,ls),
(28,155,o),
(126,-10,o),
(342,-10,cs)
);
}
);
width = 774;
},
{
background = {
shapes = (
{
closed = 1;
nodes = (
(531,-9,o),
(704,70,o),
(754,323,cs),
(802,565,o),
(662,709,o),
(447,709,cs),
(347,709,o),
(264,695,o),
(159,661,cs),
(68,631,l),
(102,693,l),
(152,404,l),
(112,483,l),
(215,498,ls),
(291,509,o),
(342,514,o),
(388,514,cs),
(504,514,o),
(562,467,o),
(539,348,cs),
(513,216,o),
(460,180,o),
(381,180,cs),
(296,180,o),
(269,223,o),
(282,322,c),
(215,273,l),
(552,273,l),
(581,420,l),
(61,420,l),
(52,374,ls),
(8,146,o),
(130,-9,o),
(359,-9,cs)
);
}
);
};
guides = (
{
angle = 79;
pos = (364,103);
}
);
layerId = "6D60D92C-1450-4586-BB49-599D0D4C1213";
shapes = (
{
closed = 1;
nodes = (
(538,-9,o),
(704,70,o),
(754,323,cs),
(802,565,o),
(662,709,o),
(447,709,cs),
(347,709,o),
(264,695,o),
(159,661,cs),
(68,631,l),
(102,693,l),
(152,404,l),
(112,483,l),
(215,498,ls),
(291,509,o),
(342,514,o),
(388,514,cs),
(504,514,o),
(562,467,o),
(539,348,cs),
(513,216,o),
(460,180,o),
(381,180,cs),
(296,180,o),
(269,223,o),
(282,322,c),
(215,273,l),
(552,273,l),
(581,420,l),
(61,420,l),
(54,385,ls),
(10,154,o),
(150,-9,o),
(366,-9,cs)
);
}
);
width = 777;
}
);
metricRight = O;
unicode = 399;
},
{
color = 4;
glyphname = F;
lastChange = "2021-09-30 22:27:23 +0000";
layers = (
{
layerId = "13A5184A-77A5-4E03-80A5-A9198A2CA35F";
shapes = (
{
closed = 1;
nodes = (
(96,0,l),
(162,340,l),
(551,340,l),
(558,376,l),
(169,376,l),
(225,664,l),
(654,664,l),
(661,700,l),
(193,700,l),
(57,0,l)
);
}
);
width = 608;
},
{
background = {
shapes = (
{
closed = 1;
nodes = (
(227,0,l),
(273,237,l),
(569,237,l),
(601,402,l),
(305,402,l),
(325,505,l),
(661,505,l),
(699,700,l),
(140,700,l),
(4,0,l)
);
}
);
};
layerId = "6D60D92C-1450-4586-BB49-599D0D4C1213";
shapes = (
{
closed = 1;
nodes = (
(227,0,l),
(273,237,l),
(569,237,l),
(601,402,l),
(305,402,l),
(325,505,l),
(661,505,l),
(699,700,l),
(140,700,l),
(4,0,l)
);
}
);
width = 629;
},
{
background = {
shapes = (
{
closed = 1;
nodes = (
(165,0,l),
(220,285,l),
(542,285,l),
(566,409,l),
(244,409,l),
(277,576,l),
(639,576,l),
(663,700,l),
(170,700,l),
(34,0,l)
);
}
);
};
guides = (
{
pos = (214,585);
},
{
pos = (191,406);
},
{
pos = (170,291);
}
);
layerId = "74CCE9C5-5564-42E0-9214-3BF0725DF94D";
shapes = (
{
closed = 1;
nodes = (
(166,0,l),
(222,291,l),
(543,291,l),
(565,406,l),
(244,406,l),
(280,585,l),
(641,585,l),
(663,700,l),
(170,700,l),
(34,0,l)
);
}
);
width = 604;
}
);
metricLeft = H;
unicode = 70;
},
{
color = 4;
glyphname = G;
kernLeft = O;
kernRight = G;
lastChange = "2021-09-30 22:27:23 +0000";
layers = (
{
anchors = (
{
name = bottom;
pos = (414,-35);
},
{
name = top.case;
pos = (547,720);
}
);
background = {
shapes = (
{
closed = 1;
nodes = (
(453,3,o),
(528,18,o),
(605,50,cs),
(688,84,l),
(673,42,l),
(638,119,l),
(692,116,l),
(595,80,ls),
(522,54,o),
(454,39,o),
(394,39,cs),
(208,39,o),
(104,160,o),
(144,368,cs),
(183,571,o),
(345,683,o),
(524,683,cs),
(584,683,o),
(640,672,o),
(717,647,cs),
(746,638,l),
(725,619,l),
(753,679,l),
(773,661,l),
(729,678,ls),
(665,703,o),
(596,719,o),
(522,719,cs),
(321,719,o),
(145,589,o),
(103,370,cs),
(59,141,o),
(185,3,o),
(384,3,cs)
);
}
);
};
guides = (
{
angle = 79;
pos = (24,50);
},
{
angle = 79;
pos = (64,40);
}
);
layerId = "13A5184A-77A5-4E03-80A5-A9198A2CA35F";
shapes = (
{
closed = 1;
nodes = (
(515,-10,o),
(596,8,o),
(676,38,c),
(736,343,l),
(432,343,l),
(424,307,l),
(690,307,l),
(637,31,l),
(651,62,l),
(584,40,o),
(506,26,o),
(446,26,cs),
(206,26,o),
(90,155,o),
(129,360,cs),
(170,568,o),
(345,674,o),
(539,674,cs),
(592,674,o),
(647,668,o),
(702,651,cs),
(752,637,l),
(725,619,l),
(757,689,l),
(765,666,l),
(717,682,ls),
(668,699,o),
(605,710,o),
(545,710,cs),
(333,710,o),
(134,598,o),
(89,367,cs),
(45,137,o),
(179,-10,o),
(442,-10,cs)
);
}
);
width = 802;
},
{
anchors = (
{
name = bottom;
pos = (358,-35);
},
{
name = top.case;
pos = (499,720);
}
);
background = {
shapes = (
{
closed = 1;
nodes = (
(473,-9,o),
(596,25,o),
(671,69,c),
(736,404,l),
(398,404,l),
(370,255,l),
(523,255,l),
(503,154,l),
(534,198,l),
(487,187,o),
(449,184,o),
(409,184,cs),
(303,184,o),
(256,226,o),
(280,348,cs),
(305,474,o),
(373,514,o),
(483,514,cs),
(525,514,o),
(573,508,o),
(627,499,cs),
(715,484,l),
(642,429,l),
(753,707,l),
(807,624,l),
(704,669,ls),
(644,695,o),
(580,709,o),
(513,709,cs),
(293,709,o),
(98,586,o),
(52,350,cs),
(10,133,o),
(122,-9,o),
(362,-9,cs)
);
}
);
};
guides = (
{
angle = 79;
pos = (0,78);
},
{
angle = 79;
pos = (650,-42);
}
);
layerId = "6D60D92C-1450-4586-BB49-599D0D4C1213";
shapes = (
{
closed = 1;
nodes = (
(472,-9,o),
(596,21,o),
(670,61,c),
(737,404,l),
(399,404,l),
(371,255,l),
(524,255,l),
(504,154,l),
(535,198,l),
(488,187,o),
(450,184,o),
(410,184,cs),
(304,184,o),
(257,226,o),
(282,358,cs),
(305,475,o),
(367,514,o),
(488,514,cs),
(526,514,o),
(575,508,o),
(626,499,cs),
(715,484,l),
(643,429,l),
(754,707,l),
(792,633,l),
(704,667,ls),
(637,693,o),
(543,709,o),
(479,709,cs),
(268,709,o),
(103,609,o),
(57,377,cs),
(16,169,o),
(135,-9,o),
(363,-9,cs)
);
}
);
width = 739;
},
{
anchors = (
{
name = bottom;
pos = (387,-35);
},
{
name = top.case;
pos = (519,720);
}
);
background = {
shapes = (
{
closed = 1;
nodes = (
(494,-10,o),
(596,17,o),
(674,54,c),
(741,396,l),
(420,396,l),
(398,281,l),
(588,281,l),
(551,93,l),
(593,130,l),
(536,114,o),
(478,105,o),
(428,105,cs),
(256,105,o),
(172,187,o),
(204,350,cs),
(236,513,o),
(358,589,o),
(510,589,cs),
(557,589,o),
(609,582,o),
(663,569,cs),
(731,553,l),
(684,524,l),
(757,698,l),
(785,644,l),
(712,675,ls),
(656,699,o),
(593,710,o),
(530,710,cs),
(313,710,o),
(116,585,o),
(70,351,cs),
(26,126,o),
(149,-10,o),
(403,-10,cs)
);
}
);
};
layerId = "74CCE9C5-5564-42E0-9214-3BF0725DF94D";
shapes = (
{
closed = 1;
nodes = (
(477,-10,o),
(597,17,o),
(674,54,c),
(741,396,l),
(421,396,l),
(399,281,l),
(588,281,l),
(551,93,l),
(576,128,l),
(521,113,o),
(466,105,o),
(418,105,cs),
(252,105,o),
(174,198,o),
(204,354,cs),
(237,518,o),
(345,589,o),
(500,589,cs),
(541,589,o),
(587,583,o),
(633,572,cs),
(687,559,l),
(645,509,l),
(736,686,l),
(746,653,l),
(693,674,ls),
(643,693,o),
(573,710,o),
(508,710,cs),
(300,710,o),
(119,605,o),
(73,372,cs),
(33,153,o),
(153,-10,o),
(389,-10,cs)
);
}
);
width = 757;
}
);
metricLeft = O;
unicode = 71;
},
{
color = 4;
glyphname = H;
lastChange = "2021-09-30 22:27:23 +0000";
layers = (
{
anchors = (
{
name = top.case;
pos = (472,720);
}
);
layerId = "13A5184A-77A5-4E03-80A5-A9198A2CA35F";
shapes = (
{
closed = 1;
nodes = (
(96,0,l),
(163,346,l),
(635,346,l),
(568,0,l),
(607,0,l),
(743,700,l),
(704,700,l),
(642,382,l),
(170,382,l),
(232,700,l),
(193,700,l),
(57,0,l)
);
}
);
width = 760;
},
{
anchors = (
{
name = top.case;
pos = (471,720);
}
);
layerId = "6D60D92C-1450-4586-BB49-599D0D4C1213";
shapes = (
{
closed = 1;
nodes = (
(227,0,l),
(276,253,l),
(495,253,l),
(446,0,l),
(669,0,l),
(805,700,l),
(582,700,l),
(535,458,l),
(316,458,l),
(363,700,l),
(140,700,l),
(4,0,l)
);
}
);
width = 775;
},
{
anchors = (
{
name = top.case;
pos = (466,720);
}
);
background = {
shapes = (
{
closed = 1;
nodes = (
(165,0,l),
(223,299,l),
(546,299,l),
(488,0,l),
(619,0,l),
(755,700,l),
(624,700,l),
(570,423,l),
(247,423,l),
(301,700,l),
(170,700,l),
(34,0,l)
);
}
);
};
guides = (
{
pos = (178,418);
},
{
pos = (157,303);
}
);
layerId = "74CCE9C5-5564-42E0-9214-3BF0725DF94D";
shapes = (
{
closed = 1;
nodes = (
(165,0,l),
(224,303,l),
(547,303,l),
(488,0,l),
(619,0,l),
(755,700,l),
(624,700,l),
(569,418,l),
(246,418,l),
(301,700,l),
(170,700,l),
(34,0,l)
);
}
);
width = 751;
}
);
unicode = 72;
},
{
color = 3;
glyphname = Hbar;
lastChange = "2021-09-30 22:27:23 +0000";
layers = (
{
layerId = "13A5184A-77A5-4E03-80A5-A9198A2CA35F";
shapes = (
{
closed = 1;
nodes = (
(859,518,l),
(865,554,l),
(65,554,l),
(59,518,l)
);
},
{
pos = (26,0);
ref = H;
}
);
width = 811;
},
{
layerId = "6D60D92C-1450-4586-BB49-599D0D4C1213";
shapes = (
{
closed = 1;
nodes = (
(847,517,l),
(870,635,l),
(85,635,l),
(62,517,l)
);
},
{
pos = (17,0);
ref = H;
}
);
width = 805;
},
{
background = {
shapes = (
{
closed = 1;
nodes = (
(852,521,l),
(872,625,l),
(80,625,l),
(60,521,l)
);
}
);
};
layerId = "74CCE9C5-5564-42E0-9214-3BF0725DF94D";
shapes = (
{
closed = 1;
nodes = (
(853,529,l),
(871,617,l),
(79,617,l),
(61,529,l)
);
},
{
alignment = -1;
pos = (28,0);
ref = H;
}
);
width = 808;
}
);
unicode = 294;
},
{
color = 4;
glyphname = I;
lastChange = "2021-09-30 22:27:23 +0000";
layers = (
{
anchors = (
{
name = bottom;
pos = (67,-35);
},
{
name = ogonek;
pos = (38,10);
},
{
name = top.case;
pos = (217,720);
}
);
layerId = "13A5184A-77A5-4E03-80A5-A9198A2CA35F";
shapes = (
{
closed = 1;
nodes = (
(96,0,l),
(232,700,l),
(193,700,l),
(57,0,l)
);
}
);
width = 249;
},
{
anchors = (
{
name = bottom;
pos = (98,-35);
},
{
name = ogonek;
pos = (100,10);
},
{
name = top.case;
pos = (256,720);
}
);
layerId = "6D60D92C-1450-4586-BB49-599D0D4C1213";
shapes = (
{
closed = 1;
nodes = (
(227,0,l),
(363,700,l),
(140,700,l),
(4,0,l)
);
}
);
width = 333;
},
{
anchors = (
{
name = bottom;
pos = (88,-35);
},
{
name = ogonek;
pos = (72,10);
},
{
name = top.case;
pos = (240,720);
}
);
layerId = "74CCE9C5-5564-42E0-9214-3BF0725DF94D";
shapes = (
{
closed = 1;
nodes = (
(165,0,l),
(301,700,l),
(170,700,l),
(34,0,l)
);
}
);
width = 297;
}
);
metricLeft = H;
metricRight = H;
unicode = 73;
},
{
color = 4;
glyphname = J;
kernLeft = J;
kernRight = U;
lastChange = "2021-09-30 23:32:10 +0000";
layers = (
{
anchors = (
{
name = top.case;
pos = (487,720);
}
);
background = {
shapes = (
{
closed = 1;
nodes = (
(294,-10,o),
(380,49,o),
(409,198,cs),
(507,700,l),
(468,700,l),
(370,196,ls),
(346,70,o),
(273,26,o),
(157,26,cs),
(102,26,o),
(70,31,o),
(36,38,cs),
(-9,48,l),
(19,63,l),
(-10,0,l),
(-20,18,l),
(24,7,ls),
(74,-5,o),
(113,-10,o),
(153,-10,cs)
);
}
);
};
layerId = "13A5184A-77A5-4E03-80A5-A9198A2CA35F";
shapes = (
{
closed = 1;
nodes = (
(293,-10,o),
(374,46,o),
(404,198,cs),
(502,700,l),
(463,700,l),
(365,196,ls),
(341,70,o),
(268,26,o),
(152,26,cs),
(97,26,o),
(65,30,o),
(31,36,cs),
(-14,44,l),
(11,65,l),
(-15,0,l),
(-25,18,l),
(19,7,ls),
(69,-5,o),
(108,-10,o),
(148,-10,cs)
);
}
);
width = 504;
},
{
anchors = (
{
name = top.case;
pos = (510,720);
}
);
background = {
anchors = (
{
name = top.case;
pos = (510,720);
}
);
shapes = (
{
closed = 1;
nodes = (
(370,-9,o),
(500,87,o),
(534,264,cs),
(619,700,l),
(396,700,l),
(311,265,ls),
(303,223,o),
(267,196,o),
(214,196,cs),
(184,196,o),
(153,196,o),
(117,201,cs),
(24,213,l),
(85,279,l),
(-39,0,l),
(-64,48,l),
(14,22,ls),
(76,1,o),
(129,-9,o),
(184,-9,cs)
);
}
);
};
layerId = "6D60D92C-1450-4586-BB49-599D0D4C1213";
shapes = (
{
closed = 1;
nodes = (
(385,-9,o),
(494,65,o),
(524,216,cs),
(619,700,l),
(396,700,l),
(311,265,ls),
(302,218,o),
(274,196,o),
(214,196,cs),
(184,196,o),
(148,198,o),
(115,202,cs),
(24,213,l),
(85,279,l),
(-39,0,l),
(-64,55,l),
(18,27,ls),
(80,6,o),
(149,-9,o),
(203,-9,cs)
);
}
);
width = 574;
},
{
anchors = (
{
name = top.case;
pos = (502,720);
}
);
background = {
shapes = (
{
closed = 1;
nodes = (
(340,-10,o),
(438,61,o),
(471,231,cs),
(562,700,l),
(431,700,l),
(341,236,ls),
(324,152,o),
(269,116,o),
(185,116,cs),
(142,116,o),
(111,118,o),
(65,124,cs),
(6,131,l),
(53,176,l),
(-26,0,l),
(-42,34,l),
(20,14,ls),
(74,-3,o),
(120,-10,o),
(167,-10,cs)
);
}
);
};
layerId = "74CCE9C5-5564-42E0-9214-3BF0725DF94D";
shapes = (
{
closed = 1;
nodes = (
(340,-10,o),
(438,61,o),
(471,231,cs),
(562,700,l),
(431,700,l),
(340,231,ls),
(324,147,o),
(268,111,o),
(184,111,cs),
(141,111,o),
(110,114,o),
(64,119,cs),
(5,126,l),
(53,176,l),
(-26,0,l),
(-42,34,l),
(20,14,ls),
(74,-3,o),
(120,-10,o),
(167,-10,cs)
);
}
);
width = 540;
}
);
metricRight = U;
unicode = 74;
},
{
glyphname = K;
kernRight = K;
lastChange = "2021-09-30 22:27:23 +0000";
layers = (
{
anchors = (
{
name = bottom;
pos = (295,-35);
}
);
background = {
anchors = (
{
name = bottom;
pos = (374,-13);
}
);
shapes = (
{
closed = 1;
nodes = (
(613,-2,l),
(330,370,l),
(669,695,l),
(622,700,l),
(299,387,l),
(189,399,l),
(185,363,l),
(295,352,l),
(564,3,l)
);
},
{
closed = 1;
nodes = (
(163,45,l),
(236,741,l),
(197,745,l),
(124,49,l)
);
}
);
};
layerId = "13A5184A-77A5-4E03-80A5-A9198A2CA35F";
shapes = (
{
closed = 1;
nodes = (
(549,0,l),
(293,338,l),
(668,700,l),
(617,700,l),
(263,355,l),
(154,355,l),
(147,319,l),
(259,319,l),
(504,0,l)
);
},
{
closed = 1;
nodes = (
(96,0,l),
(232,700,l),
(193,700,l),
(57,0,l)
);
}
);
width = 612;
},
{
anchors = (
{
name = bottom;
pos = (329,-35);
}
);
background = {
shapes = (
{
closed = 1;
nodes = (
(677,0,l),
(516,356,l),
(801,700,l),
(545,700,l),
(340,436,l),
(236,437,l),
(203,272,l),
(308,272,l),
(431,0,l)
);
},
{
closed = 1;
nodes = (
(227,0,l),
(363,700,l),
(140,700,l),
(4,0,l)
);
}
);
};
guides = (
{
pos = (388,436);
},
{
pos = (388,272);
}
);
layerId = "6D60D92C-1450-4586-BB49-599D0D4C1213";
shapes = (
{
closed = 1;
nodes = (
(677,0,l),
(522,356,l),
(801,700,l),
(545,700,l),
(348,436,l),
(236,437,l),
(203,272,l),
(316,272,l),
(431,0,l)
);
},
{
closed = 1;
nodes = (
(227,0,l),
(363,700,l),
(140,700,l),
(4,0,l)
);
}
);
width = 738;
},
{
anchors = (
{
name = bottom;
pos = (314,-35);
}
);
background = {
anchors = (
{
name = bottom;
pos = (341,-29);
}
);
shapes = (
{
closed = 1;
nodes = (
(617,0,l),
(414,357,l),
(736,700,l),
(578,700,l),
(306,406,l),
(204,406,l),
(160,291,l),
(292,291,l),
(450,0,l)
);
},
{
closed = 1;
nodes = (
(166,0,l),
(302,700,l),
(171,700,l),
(35,0,l)
);
}
);
};
layerId = "74CCE9C5-5564-42E0-9214-3BF0725DF94D";
shapes = (
{
closed = 1;
nodes = (
(616,0,l),
(413,357,l),
(735,700,l),
(578,700,l),
(305,406,l),
(203,406,l),
(158,291,l),
(298,291,l),
(473,0,l)
);
},
{
closed = 1;
nodes = (
(165,0,l),
(301,700,l),
(170,700,l),
(34,0,l)
);
}
);
width = 683;
}
);
metricLeft = H;
unicode = 75;
},
{
color = 4;
glyphname = L;
kernRight = L;
lastChange = "2023-04-13 23:44:03 +0000";
layers = (
{
anchors = (
{
name = bottom;
pos = (285,-35);
},
{
name = caron;
pos = (421,413);
},
{
name = top.case;
pos = (216,720);
}
);
layerId = "13A5184A-77A5-4E03-80A5-A9198A2CA35F";
shapes = (
{
closed = 1;
nodes = (
(522,0,l),
(529,36,l),
(103,36,l),
(232,700,l),
(193,700,l),
(57,0,l)
);
}
);
width = 600;
},
{
anchors = (
{
name = bottom;
pos = (279,-35);
},
{
name = caron;
pos = (544,413);
},
{
name = top.case;
pos = (250,720);
}
);
background = {
shapes = (
{
closed = 1;
nodes = (
(549,0,l),
(587,195,l),
(266,195,l),
(364,700,l),
(141,700,l),
(5,0,l)
);
}
);
};
layerId = "6D60D92C-1450-4586-BB49-599D0D4C1213";
shapes = (
{
closed = 1;
nodes = (
(548,0,l),
(586,195,l),
(265,195,l),
(363,700,l),
(140,700,l),
(4,0,l)
);
}
);
width = 614;
},
{
anchors = (
{
name = bottom;
pos = (298,-35);
},
{
name = caron;
pos = (465,413);
},
{
name = top.case;
pos = (237,720);
}
);
background = {
shapes = (
{
closed = 1;
nodes = (
(534,0,l),
(556,115,l),
(187,115,l),
(301,700,l),
(170,700,l),
(34,0,l)
);
}
);
};
layerId = "74CCE9C5-5564-42E0-9214-3BF0725DF94D";
shapes = (
{
closed = 1;
nodes = (
(534,0,l),
(556,115,l),
(187,115,l),
(301,700,l),
(170,700,l),
(34,0,l)
);
}
);
width = 607;
}
);
metricLeft = H;
unicode = 76;
},
{
color = 3;
glyphname = Lslash;
kernRight = L;
lastChange = "2021-09-30 22:27:23 +0000";
layers = (
{
background = {
shapes = (
{
closed = 1;
nodes = (
(456,358,l),
(449,393,l),
(35,258,l),
(41,222,l)
);
},
{
closed = 1;
nodes = (
(585,0,l),
(592,36,l),
(166,36,l),
(295,700,l),
(256,700,l),
(120,0,l)
);
}
);
};
layerId = "13A5184A-77A5-4E03-80A5-A9198A2CA35F";
shapes = (
{
closed = 1;
nodes = (
(458,358,l),
(445,394,l),
(195,312,l),
(186,268,l)
);
},
{
closed = 1;
nodes = (
(186,268,l),
(195,312,l),
(33,259,l),
(46,222,l)
);
},
{
pos = (63,0);
ref = L;
}
);
width = 663;
},
{
background = {
shapes = (
{
closed = 1;
nodes = (
(296,295,l),
(590,417,l),
(562,524,l),
(321,424,l)
);
},
{
closed = 1;
nodes = (
(324,439,l),
(33,319,l),
(61,211,l),
(299,310,l)
);
},
{
closed = 1;
nodes = (
(623,0,l),
(663,205,l),
(342,205,l),
(438,700,l),
(215,700,l),
(79,0,l)
);
}
);
};
layerId = "6D60D92C-1450-4586-BB49-599D0D4C1213";
shapes = (
{
closed = 1;
nodes = (
(590,407,l),
(547,516,l),
(321,428,l),
(314,299,l)
);
},
{
closed = 1;
nodes = (
(283,297,l),
(290,426,l),
(16,320,l),
(59,210,l)
);
},
{
pos = (74,0);
ref = L;
}
);
width = 688;
},
{
background = {
shapes = (
{
closed = 1;
nodes = (
(227,278,l),
(518,388,l),
(499,468,l),
(245,373,l)
);
},
{
closed = 1;
nodes = (
(247,383,l),
(28,300,l),
(48,219,l),
(229,288,l)
);
},
{
closed = 1;
nodes = (
(583,0,l),
(607,124,l),
(253,124,l),
(365,700,l),
(234,700,l),
(98,0,l)
);
}
);
};
layerId = "74CCE9C5-5564-42E0-9214-3BF0725DF94D";
shapes = (
{
closed = 1;
nodes = (
(519,384,l),
(488,465,l),
(249,383,l),
(244,288,l)
);
},
{
closed = 1;
nodes = (
(245,293,l),
(250,388,l),
(24,308,l),
(55,226,l)
);
},
{
pos = (64,0);
ref = L;
}
);
width = 671;
}
);
metricRight = L;
unicode = 321;
},
{
glyphname = M;
lastChange = "2021-09-30 22:27:23 +0000";
layers = (
{
background = {
shapes = (
{
closed = 1;
nodes = (
(101,0,l),
(224,633,l),
(467,231,l),
(482,231,l),
(868,629,l),
(746,0,l),
(785,0,l),
(921,700,l),
(891,700,l),
(480,280,l),
(479,280,l),
(228,700,l),
(198,700,l),
(62,0,l)
);
}
);
};
layerId = "13A5184A-77A5-4E03-80A5-A9198A2CA35F";
shapes = (
{
closed = 1;
nodes = (
(96,0,l),
(219,636,l),
(462,231,l),
(477,231,l),
(864,633,l),
(741,0,l),
(780,0,l),
(916,700,l),
(883,700,l),
(475,280,l),
(474,280,l),
(225,700,l),
(193,700,l),
(57,0,l)
);
}
);
width = 933;
},
{
background = {
shapes = (
{
closed = 1;
nodes = (
(251,37,l),
(292,375,l),
(381,176,l),
(529,159,l),
(664,329,l),
(621,-9,l),
(838,-35,l),
(924,660,l),
(715,685,l),
(483,392,l),
(481,392,l),
(328,733,l),
(120,759,l),
(34,64,l)
);
}
);
};
guides = (
{
angle = 79;
pos = (304,422);
},
{
angle = 79;
pos = (682,441);
},
{
pos = (728,349);
}
);
layerId = "6D60D92C-1450-4586-BB49-599D0D4C1213";
shapes = (
{
closed = 1;
nodes = (
(222,0,l),
(290,349,l),
(365,154,l),
(519,154,l),
(663,340,l),
(596,0,l),
(814,0,l),
(950,700,l),
(737,700,l),
(478,379,l),
(476,379,l),
(350,700,l),
(140,700,l),
(4,0,l)
);
}
);
width = 920;
},
{
associatedMasterId = "6D60D92C-1450-4586-BB49-599D0D4C1213";
background = {
shapes = (
{
closed = 1;
nodes = (
(256,22,l),
(288,384,l),
(445,193,l),
(452,193,l),
(640,353,l),
(609,-9,l),
(831,-28,l),
(892,669,l),
(708,685,l),
(475,484,l),
(473,484,l),
(279,723,l),
(100,738,l),
(39,41,l)
);
}
);
};
layerId = "0118A8E5-585C-4363-8704-53B43E3C9E6D";
name = "May 9 18, 08:31";
shapes = (
{
closed = 1;
nodes = (
(222,0,l),
(293,367,l),
(431,187,l),
(438,187,l),
(647,363,l),
(576,0,l),
(799,0,l),
(935,700,l),
(740,700,l),
(474,478,l),
(471,478,l),
(310,700,l),
(140,700,l),
(4,0,l)
);
}
);
width = 905;
},
{
background = {
shapes = (
{
closed = 1;
nodes = (
(162,0,l),
(255,477,l),
(382,176,l),
(477,176,l),
(732,467,l),
(642,0,l),
(770,0,l),
(906,700,l),
(773,700,l),
(450,328,l),
(448,328,l),
(290,700,l),
(170,700,l),
(34,0,l)
);
}
);
};
guides = (
{
pos = (659,477);
},
{
pos = (642,320);
}
);
layerId = "74CCE9C5-5564-42E0-9214-3BF0725DF94D";
shapes = (
{
closed = 1;
nodes = (
(162,0,l),
(255,477,l),
(382,176,l),
(477,176,l),
(735,477,l),
(642,0,l),
(773,0,l),
(909,700,l),
(773,700,l),
(450,320,l),
(448,320,l),
(290,700,l),
(170,700,l),
(34,0,l)
);
}
);
width = 905;
}
);
metricLeft = H;
metricRight = H;
unicode = 77;
},
{
glyphname = N;
lastChange = "2021-09-30 22:27:23 +0000";
layers = (
{
anchors = (
{
name = bottom;
pos = (347,-35);
},
{
name = top.case;
pos = (490,720);
}
);
background = {
anchors = (
{
name = bottom;
pos = (368,-31);
},
{
name = top.case;
pos = (468,718);
}
);
shapes = (
{
closed = 1;
nodes = (
(110,61,l),
(186,694,l),
(188,694,l),
(619,1,l),
(652,-5,l),
(737,691,l),
(698,696,l),
(623,67,l),
(621,68,l),
(192,758,l),
(155,763,l),
(70,67,l)
);
}
);
};
layerId = "13A5184A-77A5-4E03-80A5-A9198A2CA35F";
shapes = (
{
closed = 1;
nodes = (
(96,0,l),
(219,633,l),
(222,633,l),
(614,0,l),
(644,0,l),
(780,700,l),
(741,700,l),
(617,68,l),
(615,68,l),
(223,700,l),
(193,700,l),
(57,0,l)
);
}
);
width = 797;
},
{
anchors = (
{
name = bottom;
pos = (358,-35);
},
{
name = top.case;
pos = (466,720);
}
);
background = {
anchors = (
{
name = bottom;
pos = (382,-37);
},
{
name = top.case;
pos = (444,715);
}
);
shapes = (
{
closed = 1;
nodes = (
(258,12,l),
(293,347,l),
(295,347,l),
(508,-15,l),
(699,-35,l),
(773,661,l),
(553,684,l),
(520,357,l),
(518,357,l),
(309,710,l),
(112,731,l),
(38,35,l)
);
}
);
};
layerId = "6D60D92C-1450-4586-BB49-599D0D4C1213";
shapes = (
{
closed = 1;
nodes = (
(225,0,l),
(291,342,l),
(293,342,l),
(498,0,l),
(669,0,l),
(805,700,l),
(584,700,l),
(518,367,l),
(516,367,l),
(314,700,l),
(140,700,l),
(4,0,l)
);
}
);
width = 775;
},
{
anchors = (
{
name = bottom;
pos = (344,-35);
},
{
name = top.case;
pos = (464,720);
}
);
background = {
anchors = (
{
name = bottom;
pos = (379,-35);
},
{
name = top.case;
pos = (441,718);
}
);
shapes = (
{
closed = 1;
nodes = (
(200,21,l),
(249,490,l),
(251,489,l),
(571,-20,l),
(669,-30,l),
(744,667,l),
(614,679,l),
(566,230,l),
(564,231,l),
(257,718,l),
(145,730,l),
(70,33,l)
);
}
);
};
layerId = "74CCE9C5-5564-42E0-9214-3BF0725DF94D";
shapes = (
{
closed = 1;
nodes = (
(164,0,l),
(257,475,l),
(259,475,l),
(554,0,l),
(636,0,l),
(772,700,l),
(642,700,l),
(554,245,l),
(552,245,l),
(267,700,l),
(170,700,l),
(34,0,l)
);
}
);
width = 768;
}
);
metricLeft = H;
metricRight = H;
unicode = 78;
},
{
color = 4;
glyphname = Nhookleft;
kernLeft = j;
lastChange = "2023-04-14 00:01:07 +0000";
layers = (
{
background = {
shapes = (
{
closed = 1;
nodes = (
(-140,-192,l),
(-102,-202,ls),
(-85,-206,o),
(-69,-209,o),
(-46,-209,cs),
(19,-209,o),
(57,-179,o),
(70,-116,cs),
(216,633,l),
(218,633,l),
(610,0,l),
(640,0,l),
(776,700,l),
(738,700,l),
(614,68,l),
(611,68,l),
(219,700,l),
(189,700,l),
(31,-116,ls),
(24,-155,o),
(-1,-175,o),
(-42,-175,cs),
(-57,-175,o),
(-75,-173,o),
(-94,-171,cs),
(-133,-166,l),
(-108,-154,l),
(-127,-211,l)
);
}
);
};
layerId = "13A5184A-77A5-4E03-80A5-A9198A2CA35F";
shapes = (
{
closed = 1;
nodes = (
(-102,-202,ls),
(-85,-206,o),
(-69,-209,o),
(-46,-209,cs),
(19,-209,o),
(57,-179,o),
(70,-116,cs),
(216,633,l),
(218,633,l),
(610,0,l),
(640,0,l),
(776,700,l),
(738,700,l),
(614,68,l),
(611,68,l),
(219,700,l),
(189,700,l),
(31,-116,ls),
(24,-155,o),
(-1,-175,o),
(-42,-175,cs),
(-57,-175,o),
(-75,-173,o),
(-94,-171,cs),
(-113,-169,l),
(-122,-197,l)
);
}
);
width = 793;
},
{
background = {
shapes = (
{
closed = 1;
nodes = (
(-176,-171,l),
(-112,-190,ls),
(-73,-202,o),
(-12,-209,o),
(20,-209,cs),
(148,-209,o),
(227,-148,o),
(250,-28,cs),
(322,342,l),
(324,342,l),
(529,0,l),
(700,0,l),
(836,700,l),
(615,700,l),
(549,367,l),
(547,367,l),
(345,700,l),
(171,700,l),
(34,-1,ls),
(28,-30,o),
(10,-39,o),
(-23,-39,cs),
(-33,-39,o),
(-47,-38,o),
(-58,-37,cs),
(-93,-33,l),
(-76,-12,l),
(-152,-217,l)
);
}
);
};
layerId = "6D60D92C-1450-4586-BB49-599D0D4C1213";
shapes = (
{
closed = 1;
nodes = (
(-112,-190,ls),
(-73,-202,o),
(-12,-209,o),
(20,-209,cs),
(148,-209,o),
(227,-148,o),
(250,-28,cs),
(322,342,l),
(324,342,l),
(529,0,l),
(700,0,l),
(836,700,l),
(615,700,l),
(549,367,l),
(547,367,l),
(345,700,l),
(171,700,l),
(34,-1,ls),
(28,-30,o),
(10,-39,o),
(-23,-39,cs),
(-33,-39,o),
(-47,-38,o),
(-58,-37,cs),
(-84,-34,l),
(-139,-182,l)
);
}
);
width = 806;
},
{
background = {
shapes = (
{
closed = 1;
nodes = (
(-145,-180,l),
(-90,-195,ls),
(-60,-203,o),
(-29,-209,o),
(-3,-209,cs),
(75,-209,o),
(130,-173,o),
(148,-81,cs),
(256,475,l),
(258,475,l),
(553,0,l),
(635,0,l),
(771,700,l),
(641,700,l),
(553,245,l),
(551,245,l),
(266,700,l),
(169,700,l),
(24,-45,ls),
(17,-82,o),
(1,-91,o),
(-34,-91,cs),
(-45,-91,o),
(-60,-90,o),
(-69,-89,cs),
(-105,-86,l),
(-76,-58,l),
(-123,-214,l)
);
}
);
};
layerId = "74CCE9C5-5564-42E0-9214-3BF0725DF94D";
shapes = (
{
closed = 1;
nodes = (
(-90,-195,ls),
(-60,-203,o),
(-29,-209,o),
(-3,-209,cs),
(75,-209,o),
(130,-173,o),
(148,-81,cs),
(256,475,l),
(258,475,l),
(553,0,l),
(635,0,l),
(771,700,l),
(641,700,l),
(553,245,l),
(551,245,l),
(266,700,l),
(169,700,l),
(24,-45,ls),
(17,-82,o),
(1,-91,o),
(-34,-91,cs),
(-45,-91,o),
(-60,-90,o),
(-69,-89,cs),
(-85,-88,l),
(-115,-188,l)
);
}
);
width = 767;
}
);
metricLeft = "=j+15";
metricRight = N;
unicode = 413;
},
{
color = 4;
glyphname = Eng;
lastChange = "2023-04-14 00:01:11 +0000";
layers = (
{
background = {
shapes = (
{
closed = 1;
nodes = (
(96,0,l),
(219,632,l),
(222,632,l),
(614,12,l),
(644,0,l),
(780,700,l),
(742,700,l),
(620,78,l),
(617,78,l),
(223,700,l),
(193,700,l),
(57,0,l)
);
},
{
closed = 1;
nodes = (
(371,-192,l),
(416,-202,ls),
(437,-206,o),
(456,-209,o),
(483,-209,cs),
(560,-209,o),
(608,-179,o),
(621,-116,cs),
(650,31,l),
(611,31,l),
(583,-116,ls),
(575,-156,o),
(541,-175,o),
(489,-175,cs),
(470,-175,o),
(447,-173,o),
(423,-171,cs),
(374,-166,l),
(405,-154,l),
(387,-211,l)
);
}
);
};
layerId = "13A5184A-77A5-4E03-80A5-A9198A2CA35F";
shapes = (
{
closed = 1;
nodes = (
(560,-209,o),
(608,-179,o),
(621,-116,cs),
(780,700,l),
(742,700,l),
(620,78,l),
(617,78,l),
(223,700,l),
(193,700,l),
(57,0,l),
(96,0,l),
(219,632,l),
(222,632,l),
(609,20,l),
(583,-116,ls),
(575,-156,o),
(541,-175,o),
(489,-175,cs),
(470,-175,o),
(447,-173,o),
(423,-171,cs),
(401,-169,l),
(392,-197,l),
(416,-202,ls),
(437,-206,o),
(456,-209,o),
(483,-209,cs)
);
}
);
width = 797;
},
{
background = {
shapes = (
{
closed = 1;
nodes = (
(225,0,l),
(291,342,l),
(293,342,l),
(498,0,l),
(669,0,l),
(805,700,l),
(584,700,l),
(518,367,l),
(516,367,l),
(314,700,l),
(140,700,l),
(4,0,l)
);
},
{
closed = 0;
nodes = (
(288,-217,l)
);
},
{
closed = 0;
nodes = (
(320,-188,l),
(357,-198,o),
(414,-209,o),
(445,-209,cs),
(565,-209,o),
(642,-149,o),
(663,-37,cs),
(694,125,l),
(499,125,l),
(474,-1,ls),
(468,-30,o),
(446,-39,o),
(409,-39,cs),
(397,-39,o),
(382,-38,o),
(369,-37,cs),
(330,-33,l)
);
}
);
};
layerId = "6D60D92C-1450-4586-BB49-599D0D4C1213";
shapes = (
{
closed = 1;
nodes = (
(565,-209,o),
(642,-149,o),
(663,-37,c),
(805,700,l),
(584,700,l),
(518,367,l),
(516,367,l),
(314,700,l),
(140,700,l),
(4,0,l),
(225,0,l),
(291,342,l),
(293,342,l),
(480,30,l),
(474,-1,ls),
(468,-30,o),
(446,-39,o),
(409,-39,cs),
(397,-39,o),
(382,-38,o),
(369,-37,cs),
(355,-36,l),
(301,-183,l),
(320,-188,ls),
(357,-198,o),
(414,-209,o),
(445,-209,cs)
);
}
);
width = 776;
},
{
background = {
shapes = (
{
closed = 1;
nodes = (
(164,0,l),
(257,475,l),
(259,475,l),
(562,0,l),
(636,0,l),
(772,700,l),
(642,700,l),
(556,252,l),
(554,252,l),
(267,700,l),
(170,700,l),
(34,0,l)
);
},
{
closed = 1;
nodes = (
(306,-181,l),
(365,-196,ls),
(397,-204,o),
(431,-209,o),
(459,-209,cs),
(544,-209,o),
(603,-170,o),
(623,-68,cs),
(651,74,l),
(524,74,l),
(501,-45,ls),
(494,-83,o),
(473,-93,o),
(429,-93,cs),
(416,-93,o),
(398,-92,o),
(386,-91,cs),
(342,-87,l),
(377,-58,l),
(330,-214,l)
);
}
);
};
layerId = "74CCE9C5-5564-42E0-9214-3BF0725DF94D";
shapes = (
{
closed = 1;
nodes = (
(544,-209,o),
(603,-170,o),
(623,-68,cs),
(772,700,l),
(642,700,l),
(556,252,l),
(554,252,l),
(267,700,l),
(170,700,l),
(34,0,l),
(164,0,l),
(257,475,l),
(259,475,l),
(522,63,l),
(501,-45,ls),
(494,-83,o),
(473,-93,o),
(429,-93,cs),
(416,-93,o),
(398,-92,o),
(386,-91,cs),
(368,-89,l),
(338,-189,l),
(365,-196,ls),
(397,-204,o),
(431,-209,o),
(459,-209,cs)
);
}
);
width = 769;
}
);
metricLeft = N;
metricRight = N;
unicode = 330;
},
{
color = 4;
glyphname = O;
kernLeft = O;
kernRight = O;
lastChange = "2021-09-30 22:27:23 +0000";
layers = (
{
anchors = (
{
name = bottom;
pos = (353,-35);
},
{
name = ogonek;
pos = (403,10);
},
{
name = top.case;
pos = (509,720);
}
);
background = {
shapes = (
{
closed = 1;
nodes = (
(573,-10,o),
(733,127,o),
(774,339,cs),
(816,551,o),
(705,710,o),
(497,710,cs),
(297,710,o),
(134,570,o),
(93,361,cs),
(51,147,o),
(159,-10,o),
(365,-10,cs)
);
},
{
closed = 1;
nodes = (
(191,26,o),
(95,161,o),
(134,361,cs),
(170,548,o),
(321,674,o),
(496,674,cs),
(679,674,o),
(769,530,o),
(733,339,cs),
(697,152,o),
(547,26,o),
(370,26,cs)
);
}
);
};
guides = (
{
angle = 79;
pos = (23,52);
},
{
angle = 79;
pos = (63,44);
},
{
angle = 79;
pos = (707,44);
},
{
angle = 79;
pos = (666,44);
}
);
layerId = "13A5184A-77A5-4E03-80A5-A9198A2CA35F";
shapes = (
{
closed = 1;
nodes = (
(568,-10,o),
(728,127,o),
(769,339,cs),
(811,551,o),
(700,710,o),
(492,710,cs),
(292,710,o),
(129,570,o),
(88,361,cs),
(46,147,o),
(154,-10,o),
(360,-10,cs)
);
},
{
closed = 1;
nodes = (
(186,26,o),
(90,161,o),
(129,361,cs),
(165,548,o),
(316,674,o),
(491,674,cs),
(677,674,o),
(765,533,o),
(728,339,cs),
(692,152,o),
(542,26,o),
(365,26,cs)
);
}
);
width = 816;
},
{
anchors = (
{
name = bottom;
pos = (347,-35);
},
{
name = ogonek;
pos = (447,10);
},
{
name = top.case;
pos = (486,720);
}
);
background = {
shapes = (
{
closed = 0;
nodes = (
(57,382,ls),
(14,164,o),
(128,-9,o),
(359,-9,cs),
(582,-9,o),
(742,99,o),
(786,322,cs)
);
},
{
closed = 0;
nodes = (
(563,341,ls),
(540,225,o),
(486,196,o),
(396,196,cs),
(299,196,o),
(256,243,o),
(279,359,cs)
);
}
);
};
guides = (
{
angle = 79;
pos = (107,636);
},
{
angle = 79;
pos = (848,636);
},
{
angle = 79;
pos = (331,619);
},
{
angle = 79;
pos = (612,592);
}
);
layerId = "6D60D92C-1450-4586-BB49-599D0D4C1213";
shapes = (
{
closed = 1;
nodes = (
(583,-9,o),
(742,95,o),
(786,318,cs),
(829,536,o),
(715,709,o),
(484,709,cs),
(261,709,o),
(101,601,o),
(57,378,cs),
(14,160,o),
(129,-9,o),
(360,-9,cs)
);
},
{
closed = 1;
nodes = (
(300,198,o),
(259,243,o),
(282,359,cs),
(305,475,o),
(357,502,o),
(447,502,cs),
(544,502,o),
(585,457,o),
(562,341,cs),
(539,225,o),
(487,198,o),
(397,198,cs)
);
}
);
width = 810;
},
{
anchors = (
{
name = bottom;
pos = (365,-35);
},
{
name = ogonek;
pos = (430,10);
},
{
name = top.case;
pos = (489,720);
}
);
background = {
shapes = (
{
closed = 1;
nodes = (
(568,-10,o),
(741,136,o),
(783,350,cs),
(825,564,o),
(713,710,o),
(496,710,cs),
(285,710,o),
(112,565,o),
(70,351,cs),
(28,136,o),
(140,-10,o),
(356,-10,cs)
);
},
{
closed = 1;
nodes = (
(246,111,o),
(174,196,o),
(204,350,cs),
(234,505,o),
(340,589,o),
(472,589,cs),
(607,589,o),
(679,505,o),
(649,351,cs),
(619,196,o),
(513,111,o),
(380,111,cs)
);
}
);
};
guides = (
{
angle = 79;
pos = (130,668);
},
{
angle = 79;
pos = (248,583);
},
{
angle = 79;
pos = (698,760);
},
{
angle = 79;
pos = (812,656);
},
{
angle = 79;
pos = (421,250);
},
{
pos = (276,590);
}
);
layerId = "74CCE9C5-5564-42E0-9214-3BF0725DF94D";
shapes = (
{
closed = 1;
nodes = (
(597,-10,o),
(737,130,o),
(777,326,cs),
(825,553,o),
(701,710,o),
(487,710,cs),
(253,710,o),
(113,569,o),
(73,373,cs),
(27,146,o),
(149,-10,o),
(370,-10,cs)
);
},
{
closed = 1;
nodes = (
(244,111,o),
(171,194,o),
(205,360,cs),
(233,497,o),
(315,589,o),
(472,589,cs),
(605,589,o),
(681,506,o),
(646,340,cs),
(618,203,o),
(536,111,o),
(379,111,cs)
);
}
);
width = 813;
},
{
anchors = (
{
name = bottom;
pos = (337,-35);
},
{
name = ogonek;
pos = (389,10);
},
{
name = top.case;
pos = (483,720);
}
);
associatedMasterId = "74CCE9C5-5564-42E0-9214-3BF0725DF94D";
background = {
shapes = (
{
closed = 1;
nodes = (
(576,-10,o),
(718,131,o),
(757,327,cs),
(804,567,o),
(678,710,o),
(480,710,cs),
(281,710,o),
(125,594,o),
(82,374,cs),
(38,148,o),
(149,-10,o),
(357,-10,cs)
);
},
{
closed = 1;
nodes = (
(251,116,o),
(183,197,o),
(214,360,cs),
(242,505,o),
(330,584,o),
(463,584,cs),
(586,584,o),
(657,503,o),
(625,340,cs),
(599,206,o),
(522,116,o),
(374,116,cs)
);
}
);
};
guides = (
{
angle = 79;
pos = (139,668);
},
{
angle = 79;
pos = (257,583);
},
{
angle = 79;
pos = (707,760);
},
{
angle = 79;
pos = (821,656);
},
{
angle = 79;
pos = (393,250);
}
);
layerId = "900372FE-1004-4C74-8D0F-10A4560C49DC";
name = "Jun 17 18, 19:38";
shapes = (
{
closed = 1;
nodes = (
(583,-10,o),
(718,130,o),
(757,326,cs),
(801,553,o),
(685,710,o),
(475,710,cs),
(256,710,o),
(121,569,o),
(82,373,cs),
(38,146,o),
(154,-10,o),
(364,-10,cs)
);
},
{
closed = 1;
nodes = (
(251,116,o),
(183,197,o),
(214,360,cs),
(240,494,o),
(317,584,o),
(465,584,cs),
(588,584,o),
(656,503,o),
(625,340,cs),
(599,206,o),
(522,116,o),
(374,116,cs)
);
}
);
width = 801;
},
{
anchors = (
{
name = bottom;
pos = (337,-35);
},
{
name = ogonek;
pos = (389,10);
},
{
name = top.case;
pos = (483,720);
}
);
associatedMasterId = "74CCE9C5-5564-42E0-9214-3BF0725DF94D";
background = {
shapes = (
{
closed = 1;
nodes = (
(576,-10,o),
(718,131,o),
(757,327,cs),
(804,567,o),
(678,710,o),
(480,710,cs),
(281,710,o),
(125,594,o),
(82,374,cs),
(38,148,o),
(149,-10,o),
(357,-10,cs)
);
},
{
closed = 1;
nodes = (
(251,116,o),
(183,197,o),
(214,360,cs),
(242,505,o),
(330,584,o),
(463,584,cs),
(586,584,o),
(657,503,o),
(625,340,cs),
(599,206,o),
(522,116,o),
(374,116,cs)
);
}
);
};
guides = (
{
angle = 79;
pos = (139,668);
},
{
angle = 79;
pos = (257,583);
},
{
angle = 79;
pos = (707,760);
},
{
angle = 79;
pos = (821,656);
},
{
angle = 79;
pos = (393,250);
}
);
layerId = "100C6CC0-6A46-4C3D-9933-D150D44CE7EB";
name = "Jun 17 18, 19:42";
shapes = (
{
closed = 1;
nodes = (
(583,-10,o),
(716,115,o),
(754,311,cs),
(798,538,o),
(685,710,o),
(475,710,cs),
(256,710,o),
(123,579,o),
(84,383,cs),
(40,156,o),
(154,-10,o),
(364,-10,cs)
);
},
{
closed = 1;
nodes = (
(251,116,o),
(185,207,o),
(216,370,cs),
(242,504,o),
(317,584,o),
(465,584,cs),
(588,584,o),
(654,487,o),
(622,324,cs),
(596,190,o),
(522,116,o),
(374,116,cs)
);
}
);
width = 801;
}
);
unicode = 79;
},
{
glyphname = Ohorn;
lastChange = "2021-09-30 22:27:23 +0000";
layers = (
{
anchors = (
{
name = bottom;
pos = (353,-35);
},
{
name = ogonek;
pos = (403,10);
},
{
name = top.case;
pos = (509,720);
}
);
layerId = "13A5184A-77A5-4E03-80A5-A9198A2CA35F";
shapes = (
{
closed = 1;
nodes = (
(841,648,o),
(890,685,o),
(907,771,cs),
(914,806,o),
(908,844,o),
(893,883,c),
(955,865,l),
(825,839,l),
(879,878,l),
(877,836,o),
(876,798,o),
(871,770,cs),
(858,695,o),
(805,680,o),
(739,680,cs),
(668,680,o),
(575,710,o),
(503,710,c),
(664,660,l),
(697,654,o),
(726,650,o),
(751,650,cs)
);
},
{
ref = O;
}
);
width = 815;
},
{
anchors = (
{
name = bottom;
pos = (337,-35);
},
{
name = ogonek;
pos = (389,10);
},
{
name = top.case;
pos = (483,720);
}
);
background = {
shapes = (
{
closed = 1;
nodes = (
(845,588,o),
(898,634,o),
(900,736,cs),
(901,794,o),
(874,865,o),
(835,926,c),
(931,894,l),
(728,851,l),
(765,886,l),
(772,842,o),
(777,802,o),
(777,772,cs),
(777,694,o),
(743,683,o),
(692,683,cs),
(630,683,o),
(543,710,o),
(463,710,c),
(674,601,l),
(699,593,o),
(728,588,o),
(756,588,cs)
);
}
);
};
layerId = "74CCE9C5-5564-42E0-9214-3BF0725DF94D";
shapes = (
{
closed = 1;
nodes = (
(842,588,o),
(889,632,o),
(908,723,cs),
(921,786,o),
(902,870,o),
(882,926,c),
(972,894,l),
(761,851,l),
(805,886,l),
(803,842,o),
(800,802,o),
(794,772,cs),
(778,694,o),
(743,683,o),
(692,683,cs),
(630,683,o),
(548,710,o),
(468,710,c),
(658,601,l),
(682,593,o),
(710,588,o),
(738,588,cs)
);
},
{
alignment = -1;
ref = O;
}
);
width = 789;
},
{
anchors = (
{
name = bottom;
pos = (347,-35);
},
{
name = ogonek;
pos = (447,10);
},
{
name = top.case;
pos = (486,720);
}
);
background = {
shapes = (
{
pos = (-204,0);
ref = Uhorn;
}
);
};
layerId = "6D60D92C-1450-4586-BB49-599D0D4C1213";
shapes = (
{
closed = 1;
nodes = (
(888,566,o),
(953,615,o),
(967,693,cs),
(988,807,o),
(952,893,o),
(928,969,c),
(1044,923,l),
(751,864,l),
(822,899,l),
(831,854,o),
(838,806,o),
(829,755,cs),
(817,693,o),
(757,684,o),
(714,684,cs),
(651,684,o),
(589,709,o),
(478,709,c),
(714,579,l),
(726,572,o),
(755,566,o),
(783,566,cs)
);
},
{
ref = O;
}
);
width = 819;
}
);
metricLeft = O;
unicode = 416;
},
{
glyphname = Oslash;
kernLeft = O;
kernRight = O;
lastChange = "2021-09-30 22:27:23 +0000";
layers = (
{
guides = (
{
angle = 79;
pos = (148,647);
},
{
angle = 79;
pos = (830,632);
}
);
layerId = "13A5184A-77A5-4E03-80A5-A9198A2CA35F";
shapes = (
{
closed = 1;
nodes = (
(845,684,l),
(822,710,l),
(30,16,l),
(53,-10,l)
);
},
{
ref = O;
}
);
width = 825;
},
{
guides = (
{
angle = 79;
pos = (846,622);
},
{
angle = 79;
pos = (111,651);
}
);
layerId = "6D60D92C-1450-4586-BB49-599D0D4C1213";
shapes = (
{
closed = 1;
nodes = (
(845,621,l),
(772,709,l),
(0,79,l),
(74,-9,l)
);
},
{
ref = O;
}
);
width = 810;
},
{
background = {
guides = (
{
angle = 79;
pos = (131,618);
}
);
shapes = (
{
closed = 1;
nodes = (
(800,642,l),
(736,710,l),
(22,59,l),
(86,-9,l)
);
}
);
};
guides = (
{
angle = 79;
pos = (820,653);
},
{
angle = 79;
pos = (131,618);
}
);
layerId = "74CCE9C5-5564-42E0-9214-3BF0725DF94D";
shapes = (
{
closed = 1;
nodes = (
(800,642,l),
(737,710,l),
(22,59,l),
(86,-9,l)
);
},
{
ref = O;
}
);
width = 813;
}
);
metricLeft = O;
metricRight = O;
unicode = 216;
},
{
color = 3;
glyphname = OE;
kernLeft = O;
kernRight = E;
lastChange = "2021-09-30 22:27:23 +0000";
layers = (
{
background = {
shapes = (
{
closed = 1;
nodes = (
(552,-10,o),
(718,140,o),
(759,350,cs),
(800,560,o),
(692,710,o),
(497,710,cs),
(297,710,o),
(126,560,o),
(85,350,cs),
(44,140,o),
(157,-10,o),
(357,-10,cs)
);
},
{
closed = 1;
nodes = (
(189,26,o),
(90,163,o),
(126,350,cs),
(162,537,o),
(315,674,o),
(490,674,cs),
(667,674,o),
(765,537,o),
(729,350,cs),
(693,163,o),
(541,26,o),
(364,26,cs)
);
},
{
closed = 1;
nodes = (
(1136,0,l),
(1143,36,l),
(707,36,l),
(766,340,l),
(1155,340,l),
(1162,376,l),
(773,376,l),
(829,664,l),
(1258,664,l),
(1265,700,l),
(797,700,l),
(661,0,l)
);
}
);
};
layerId = "13A5184A-77A5-4E03-80A5-A9198A2CA35F";
shapes = (
{
closed = 1;
nodes = (
(562,-10,o),
(718,134,o),
(757,339,cs),
(801,566,o),
(693,710,o),
(488,710,cs),
(292,710,o),
(129,570,o),
(88,361,cs),
(46,147,o),
(154,-10,o),
(360,-10,cs)
);
},
{
closed = 1;
nodes = (
(186,26,o),
(90,161,o),
(129,361,cs),
(165,548,o),
(316,674,o),
(491,674,cs),
(677,674,o),
(765,533,o),
(728,339,cs),
(692,152,o),
(542,26,o),
(365,26,cs)
);
},
{
closed = 1;
nodes = (
(1137,0,l),
(1144,36,l),
(708,36,l),
(767,340,l),
(1156,340,l),
(1163,376,l),
(774,376,l),
(830,664,l),
(1259,664,l),
(1266,700,l),
(798,700,l),
(662,0,l)
);
}
);
width = 1240;
},
{
background = {
guides = (
{
angle = 79;
pos = (419,504);
}
);
shapes = (
{
closed = 1;
nodes = (
(1075,0,l),
(1112,192,l),
(787,192,l),
(802,268,l),
(1080,268,l),
(1115,446,l),
(837,446,l),
(849,510,l),
(1167,510,l),
(1204,700,l),
(663,700,l),
(527,0,l)
);
},
{
closed = 1;
nodes = (
(518,-9,o),
(657,187,o),
(685,332,cs),
(727,552,o),
(644,709,o),
(441,709,cs),
(248,709,o),
(101,601,o),
(57,378,cs),
(14,160,o),
(123,-9,o),
(341,-9,cs)
);
},
{
closed = 1;
nodes = (
(300,196,o),
(257,243,o),
(280,359,cs),
(303,475,o),
(357,504,o),
(447,504,cs),
(544,504,o),
(587,457,o),
(564,341,cs),
(541,225,o),
(487,196,o),
(397,196,cs)
);
}
);
};
guides = (
{
angle = 79;
pos = (108,641);
},
{
angle = 79;
pos = (316,545);
},
{
angle = 79;
pos = (718,504);
},
{
angle = 79;
pos = (419,504);
}
);
layerId = "6D60D92C-1450-4586-BB49-599D0D4C1213";
shapes = (
{
closed = 1;
nodes = (
(531,-9,o),
(656,176,o),
(690,356,cs),
(724,531,o),
(655,709,o),
(441,709,cs),
(248,709,o),
(101,601,o),
(57,378,cs),
(14,160,o),
(123,-9,o),
(341,-9,cs)
);
},
{
closed = 1;
nodes = (
(300,196,o),
(257,243,o),
(280,359,cs),
(303,475,o),
(357,504,o),
(447,504,cs),
(544,504,o),
(587,457,o),
(564,341,cs),
(541,225,o),
(487,196,o),
(397,196,cs)
);
},
{
closed = 1;
nodes = (
(1075,0,l),
(1112,192,l),
(787,192,l),
(802,268,l),
(1080,268,l),
(1115,446,l),
(837,446,l),
(849,510,l),
(1167,510,l),
(1204,700,l),
(663,700,l),
(527,0,l)
);
}
);
width = 1151;
},
{
background = {
shapes = (
{
pos = (515,0);
ref = E;
}
);
};
guides = (
{
angle = 79;
pos = (353,418);
},
{
angle = 79;
pos = (601,552);
},
{
angle = 79;
pos = (366,410);
}
);
layerId = "74CCE9C5-5564-42E0-9214-3BF0725DF94D";
shapes = (
{
closed = 1;
nodes = (
(553,-10,o),
(686,142,o),
(720,326,cs),
(763,558,o),
(665,710,o),
(458,710,cs),
(247,710,o),
(112,569,o),
(73,373,cs),
(28,146,o),
(145,-10,o),
(355,-10,cs)
);
},
{
closed = 1;
nodes = (
(241,111,o),
(173,197,o),
(205,360,cs),
(231,494,o),
(311,589,o),
(459,589,cs),
(582,589,o),
(648,503,o),
(616,340,cs),
(590,206,o),
(512,111,o),
(364,111,cs)
);
},
{
closed = 1;
nodes = (
(1050,0,l),
(1072,115,l),
(686,115,l),
(723,301,l),
(1062,301,l),
(1084,416,l),
(745,416,l),
(777,585,l),
(1156,585,l),
(1179,700,l),
(686,700,l),
(550,0,l)
);
}
);
width = 1139;
}
);
metricLeft = O;
metricRight = E;
unicode = 338;
},
{
glyphname = P;
lastChange = "2021-09-30 22:27:23 +0000";
layers = (
{
background = {
shapes = (
{
closed = 1;
nodes = (
(102,0,l),
(153,262,l),
(375,262,ls),
(531,262,o),
(635,339,o),
(663,482,cs),
(690,622,o),
(615,700,o),
(460,700,cs),
(198,700,l),
(62,0,l)
);
},
{
closed = 1;
nodes = (
(231,664,l),
(453,664,ls),
(582,664,o),
(647,608,o),
(623,485,cs),
(600,368,o),
(520,298,o),
(369,298,cs),
(160,298,l)
);
}
);
};
guides = (
{
angle = 79;
pos = (598,202);
},
{
angle = 79;
pos = (555,187);
}
);
layerId = "13A5184A-77A5-4E03-80A5-A9198A2CA35F";
shapes = (
{
closed = 1;
nodes = (
(96,0,l),
(147,262,l),
(381,262,ls),
(531,262,o),
(630,336,o),
(657,479,cs),
(684,619,o),
(610,700,o),
(455,700,cs),
(193,700,l),
(57,0,l)
);
},
{
closed = 1;
nodes = (
(225,664,l),
(448,664,ls),
(577,664,o),
(641,605,o),
(617,482,cs),
(595,365,o),
(519,298,o),
(373,298,cs),
(154,298,l)
);
}
);
width = 652;
},
{
background = {
shapes = (
{
closed = 1;
nodes = (
(228,0,l),
(265,193,l),
(409,193,ls),
(564,193,o),
(688,291,o),
(718,446,cs),
(747,598,o),
(675,700,o),
(511,700,cs),
(141,700,l),
(5,0,l)
);
},
{
closed = 1;
nodes = (
(328,517,l),
(414,517,ls),
(472,517,o),
(501,503,o),
(490,448,cs),
(479,393,o),
(446,380,o),
(388,380,cs),
(302,380,l)
);
}
);
};
guides = (
{
angle = 79;
pos = (646,104);
},
{
angle = 79;
pos = (430,146);
}
);
layerId = "6D60D92C-1450-4586-BB49-599D0D4C1213";
shapes = (
{
closed = 1;
nodes = (
(227,0,l),
(264,193,l),
(388,193,ls),
(595,193,o),
(688,292,o),
(715,435,cs),
(744,592,o),
(666,700,o),
(485,700,cs),
(140,700,l),
(4,0,l)
);
},
{
closed = 1;
nodes = (
(327,517,l),
(433,517,ls),
(475,517,o),
(499,499,o),
(489,448,cs),
(479,398,o),
(455,380,o),
(407,380,cs),
(302,380,l)
);
}
);
width = 711;
},
{
background = {
shapes = (
{
closed = 1;
nodes = (
(165,0,l),
(207,222,l),
(392,222,ls),
(542,222,o),
(655,316,o),
(684,465,cs),
(713,612,o),
(640,700,o),
(486,700,cs),
(170,700,l),
(34,0,l)
);
},
{
closed = 1;
nodes = (
(279,585,l),
(445,585,ls),
(527,585,o),
(567,551,o),
(550,463,cs),
(533,377,o),
(478,337,o),
(396,337,cs),
(230,337,l)
);
}
);
};
guides = (
{
angle = 79;
pos = (616,128);
},
{
angle = 79;
pos = (481,105);
}
);
layerId = "74CCE9C5-5564-42E0-9214-3BF0725DF94D";
shapes = (
{
closed = 1;
nodes = (
(164,0,l),
(207,222,l),
(371,222,ls),
(541,222,o),
(653,304,o),
(680,446,cs),
(710,605,o),
(630,700,o),
(466,700,cs),
(170,700,l),
(34,0,l)
);
},
{
closed = 1;
nodes = (
(279,585,l),
(436,585,ls),
(521,585,o),
(566,550,o),
(548,459,cs),
(532,378,o),
(480,337,o),
(382,337,cs),
(230,337,l)
);
}
);
width = 678;
}
);
metricLeft = H;
unicode = 80;
},
{
color = 3;
glyphname = Thorn;
lastChange = "2021-09-30 22:27:23 +0000";
layers = (
{
background = {
shapes = (
{
closed = 1;
nodes = (
(97,0,l),
(127,154,l),
(349,154,ls),
(503,154,o),
(611,240,o),
(638,380,cs),
(665,520,o),
(588,592,o),
(434,592,cs),
(212,592,l),
(233,700,l),
(193,700,l),
(57,0,l)
);
},
{
closed = 1;
nodes = (
(205,556,l),
(427,556,ls),
(556,556,o),
(621,502,o),
(597,379,cs),
(574,259,o),
(485,190,o),
(356,190,cs),
(134,190,l)
);
}
);
};
layerId = "13A5184A-77A5-4E03-80A5-A9198A2CA35F";
shapes = (
{
closed = 1;
nodes = (
(96,0,l),
(126,154,l),
(360,154,ls),
(510,154,o),
(609,228,o),
(636,371,cs),
(662,511,o),
(589,592,o),
(434,592,cs),
(211,592,l),
(232,700,l),
(193,700,l),
(57,0,l)
);
},
{
closed = 1;
nodes = (
(204,556,l),
(427,556,ls),
(556,556,o),
(620,497,o),
(596,374,cs),
(573,257,o),
(498,190,o),
(352,190,cs),
(133,190,l)
);
}
);
width = 652;
},
{
background = {
shapes = (
{
closed = 1;
nodes = (
(227,0,l),
(248,107,l),
(387,107,ls),
(542,107,o),
(665,205,o),
(695,360,cs),
(724,512,o),
(652,614,o),
(488,614,cs),
(346,614,l),
(363,700,l),
(140,700,l),
(4,0,l)
);
},
{
closed = 1;
nodes = (
(309,420,l),
(416,420,ls),
(460,420,o),
(481,408,o),
(472,359,cs),
(462,310,o),
(436,299,o),
(392,299,cs),
(285,299,l)
);
}
);
};
layerId = "6D60D92C-1450-4586-BB49-599D0D4C1213";
shapes = (
{
closed = 1;
nodes = (
(227,0,l),
(247,107,l),
(390,107,ls),
(578,107,o),
(668,206,o),
(692,341,cs),
(721,506,o),
(646,614,o),
(468,614,cs),
(346,614,l),
(363,700,l),
(140,700,l),
(4,0,l)
);
},
{
closed = 1;
nodes = (
(309,420,l),
(415,420,ls),
(457,420,o),
(480,402,o),
(471,357,cs),
(463,317,o),
(440,299,o),
(392,299,cs),
(286,299,l)
);
}
);
width = 707;
},
{
background = {
shapes = (
{
closed = 1;
nodes = (
(166,0,l),
(188,121,l),
(348,121,ls),
(502,121,o),
(619,214,o),
(647,363,cs),
(676,510,o),
(602,599,o),
(442,599,cs),
(282,599,l),
(301,700,l),
(170,700,l),
(35,0,l)
);
},
{
closed = 1;
nodes = (
(259,484,l),
(400,484,ls),
(487,484,o),
(529,449,o),
(513,362,cs),
(496,276,o),
(439,236,o),
(353,236,cs),
(211,236,l)
);
}
);
};
layerId = "74CCE9C5-5564-42E0-9214-3BF0725DF94D";
shapes = (
{
closed = 1;
nodes = (
(165,0,l),
(188,122,l),
(336,122,ls),
(506,122,o),
(617,203,o),
(645,351,cs),
(674,508,o),
(601,599,o),
(432,599,cs),
(283,599,l),
(303,700,l),
(170,700,l),
(34,0,l)
);
},
{
closed = 1;
nodes = (
(259,484,l),
(402,484,ls),
(490,484,o),
(527,441,o),
(512,358,cs),
(498,286,o),
(448,236,o),
(350,236,cs),
(211,236,l)
);
}
);
width = 661;
}
);
metricLeft = H;
metricRight = P;
unicode = 222;
},
{
color = 0;
glyphname = Q;
kernLeft = O;
kernRight = O;
lastChange = "2021-09-30 22:27:23 +0000";
layers = (
{
background = {
shapes = (
{
closed = 1;
nodes = (
(719,16,l),
(485,349,l),
(451,327,l),
(686,-7,l)
);
},
{
closed = 1;
nodes = (
(575,6,o),
(734,136,o),
(760,345,cs),
(786,554,o),
(662,720,o),
(462,744,cs),
(264,768,o),
(105,638,o),
(79,429,cs),
(53,220,o),
(176,54,o),
(375,30,cs)
);
},
{
closed = 1;
nodes = (
(206,89,o),
(98,239,o),
(120,424,cs),
(142,609,o),
(284,730,o),
(458,708,cs),
(633,686,o),
(741,535,o),
(719,350,cs),
(697,165,o),
(555,43,o),
(380,66,cs)
);
}
);
};
layerId = "13A5184A-77A5-4E03-80A5-A9198A2CA35F";
shapes = (
{
closed = 1;
nodes = (
(714,17,l),
(501,320,l),
(468,296,l),
(681,-8,l)
);
},
{
ref = O;
}
);
width = 823;
},
{
background = {
shapes = (
{
closed = 1;
nodes = (
(759,40,l),
(475,355,l),
(389,282,l),
(677,-37,l)
);
},
{
closed = 1;
nodes = (
(606,-29,o),
(767,95,o),
(789,311,cs),
(811,529,o),
(690,684,o),
(459,708,cs),
(237,731,o),
(77,607,o),
(54,391,cs),
(31,173,o),
(153,18,o),
(384,-6,cs)
);
},
{
closed = 1;
nodes = (
(313,208,o),
(267,245,o),
(279,365,cs),
(291,487,o),
(349,513,o),
(438,504,cs),
(530,495,o),
(577,457,o),
(564,337,cs),
(551,215,o),
(494,189,o),
(406,198,cs)
);
}
);
};
guides = (
{
angle = 79;
pos = (758,173);
}
);
layerId = "6D60D92C-1450-4586-BB49-599D0D4C1213";
shapes = (
{
closed = 1;
nodes = (
(737,66,l),
(476,355,l),
(389,280,l),
(656,-9,l)
);
},
{
ref = O;
}
);
width = 810;
},
{
background = {
shapes = (
{
closed = 1;
nodes = (
(713,62,l),
(450,372,l),
(363,302,l),
(628,-10,l)
);
}
);
};
guides = (
{
angle = 79;
pos = (742,141);
}
);
layerId = "74CCE9C5-5564-42E0-9214-3BF0725DF94D";
shapes = (
{
closed = 1;
nodes = (
(726,61,l),
(482,349,l),
(396,279,l),
(641,-8,l)
);
},
{
alignment = -1;
ref = O;
}
);
width = 814;
}
);
metricLeft = O;
metricRight = O;
unicode = 81;
},
{
glyphname = R;
kernRight = R;
lastChange = "2021-09-30 22:27:23 +0000";
layers = (
{
anchors = (
{
name = bottom;
pos = (299,-35);
},
{
name = top.case;
pos = (441,720);
}
);
background = {
shapes = (
{
closed = 1;
nodes = (
(96,0,l),
(156,307,l),
(394,307,ls),
(575,307,o),
(657,389,o),
(679,502,cs),
(704,628,o),
(625,700,o),
(478,700,cs),
(193,700,l),
(57,0,l)
);
},
{
closed = 1;
nodes = (
(615,0,l),
(459,327,l),
(423,313,l),
(571,0,l)
);
},
{
closed = 1;
nodes = (
(225,664,l),
(468,664,ls),
(598,664,o),
(659,608,o),
(639,505,cs),
(618,396,o),
(535,343,o),
(411,343,cs),
(163,343,l)
);
}
);
};
guides = (
{
angle = 79;
pos = (629,245);
},
{
angle = 79;
pos = (586,234);
}
);
layerId = "13A5184A-77A5-4E03-80A5-A9198A2CA35F";
shapes = (
{
closed = 1;
nodes = (
(96,0,l),
(156,307,l),
(388,307,ls),
(573,307,o),
(657,389,o),
(679,502,cs),
(706,628,o),
(620,700,o),
(459,700,cs),
(193,700,l),
(57,0,l)
);
},
{
closed = 1;
nodes = (
(225,664,l),
(444,664,ls),
(593,664,o),
(662,608,o),
(639,505,cs),
(617,396,o),
(530,343,o),
(400,343,cs),
(163,343,l)
);
},
{
closed = 1;
nodes = (
(615,0,l),
(459,327,l),
(423,313,l),
(571,0,l)
);
}
);
width = 713;
},
{
anchors = (
{
name = bottom;
pos = (322,-35);
},
{
name = top.case;
pos = (441,720);
}
);
guides = (
{
angle = 79;
pos = (673,214);
},
{
angle = 79;
pos = (474,318);
}
);
layerId = "6D60D92C-1450-4586-BB49-599D0D4C1213";
shapes = (
{
closed = 1;
nodes = (
(227,0,l),
(273,235,l),
(313,235,ls),
(555,235,o),
(688,291,o),
(719,451,cs),
(746,590,o),
(674,700,o),
(483,700,cs),
(140,700,l),
(4,0,l)
);
},
{
closed = 1;
nodes = (
(327,516,l),
(439,516,ls),
(495,516,o),
(507,486,o),
(500,451,cs),
(491,401,o),
(464,382,o),
(405,382,cs),
(301,382,l)
);
},
{
closed = 1;
nodes = (
(671,0,l),
(539,286,l),
(340,249,l),
(437,0,l)
);
}
);
width = 732;
},
{
anchors = (
{
name = bottom;
pos = (314,-35);
},
{
name = top.case;
pos = (443,720);
}
);
background = {
shapes = (
{
closed = 1;
nodes = (
(166,0,l),
(217,260,l),
(362,260,ls),
(530,260,o),
(662,333,o),
(691,485,cs),
(717,621,o),
(635,700,o),
(484,700,cs),
(171,700,l),
(35,0,l)
);
},
{
closed = 1;
nodes = (
(633,0,l),
(501,307,l),
(372,281,l),
(487,0,l)
);
},
{
closed = 1;
nodes = (
(280,585,l),
(449,585,ls),
(533,585,o),
(572,553,o),
(559,484,cs),
(546,413,o),
(491,375,o),
(410,375,cs),
(239,375,l)
);
}
);
};
guides = (
{
angle = 79;
pos = (707,643);
},
{
angle = 79;
pos = (562,604);
}
);
layerId = "74CCE9C5-5564-42E0-9214-3BF0725DF94D";
shapes = (
{
closed = 1;
nodes = (
(165,0,l),
(217,260,l),
(354,260,ls),
(561,260,o),
(662,328,o),
(689,472,cs),
(714,608,o),
(644,700,o),
(479,700,cs),
(170,700,l),
(34,0,l)
);
},
{
closed = 1;
nodes = (
(280,585,l),
(458,585,ls),
(533,585,o),
(573,549,o),
(558,477,cs),
(543,406,o),
(496,375,o),
(417,375,cs),
(239,375,l)
);
},
{
closed = 1;
nodes = (
(626,0,l),
(489,298,l),
(354,272,l),
(476,0,l)
);
}
);
width = 695;
},
{
anchors = (
{
name = bottom;
pos = (299,-35);
},
{
name = top.case;
pos = (416,720);
}
);
associatedMasterId = "13A5184A-77A5-4E03-80A5-A9198A2CA35F";
background = {
anchors = (
{
name = bottom;
pos = (315,-12);
},
{
name = top.case;
pos = (420,736);
}
);
shapes = (
{
closed = 1;
nodes = (
(96,0,l),
(156,307,l),
(394,307,ls),
(575,307,o),
(659,398,o),
(681,511,cs),
(705,636,o),
(623,700,o),
(478,700,cs),
(193,700,l),
(57,0,l)
);
},
{
closed = 1;
nodes = (
(615,0,l),
(464,327,l),
(423,313,l),
(568,0,l)
);
},
{
closed = 1;
nodes = (
(225,664,l),
(468,664,ls),
(596,664,o),
(660,614,o),
(640,512,cs),
(619,403,o),
(535,343,o),
(411,343,cs),
(163,343,l)
);
}
);
};
guides = (
{
angle = 79;
pos = (594,245);
},
{
angle = 79;
pos = (549,225);
}
);
layerId = "DEF352B3-50B0-42BF-AC57-FC4CDE592B2A";
name = "Feb 18 20, 13:08";
shapes = (
{
closed = 1;
nodes = (
(96,0,l),
(152,286,l),
(360,286,ls),
(545,286,o),
(624,373,o),
(647,493,cs),
(673,625,o),
(596,700,o),
(431,700,cs),
(193,700,l),
(57,0,l)
);
},
{
closed = 1;
nodes = (
(585,0,l),
(437,309,l),
(400,295,l),
(540,0,l)
);
},
{
closed = 1;
nodes = (
(225,664,l),
(438,664,ls),
(568,664,o),
(628,604,o),
(607,495,cs),
(585,382,o),
(500,322,o),
(370,322,cs),
(159,322,l)
);
}
);
width = 663;
}
);
metricLeft = H;
unicode = 82;
},
{
glyphname = S;
kernLeft = S;
kernRight = S;
lastChange = "2021-09-30 22:27:23 +0000";
layers = (
{
anchors = (
{
name = bottom;
pos = (242,-35);
},
{
name = top.case;
pos = (403,720);
}
);
background = {
shapes = (
{
closed = 1;
nodes = (
(409,-10,o),
(510,44,o),
(536,174,cs),
(556,284,o),
(506,330,o),
(339,382,cs),
(189,429,o),
(144,451,o),
(162,536,cs),
(180,625,o),
(266,674,o),
(392,674,cs),
(451,674,o),
(507,665,o),
(567,650,cs),
(614,638,l),
(590,627,l),
(616,685,l),
(628,667,l),
(582,681,ls),
(524,699,o),
(461,710,o),
(403,710,cs),
(267,710,o),
(147,667,o),
(122,537,cs),
(102,431,o),
(152,394,o),
(318,345,cs),
(466,301,o),
(513,263,o),
(495,175,cs),
(476,76,o),
(389,26,o),
(256,26,cs),
(204,26,o),
(132,35,o),
(81,47,cs),
(6,65,l),
(42,98,l),
(8,16,l),
(-9,37,l),
(72,14,ls),
(109,4,o),
(178,-10,o),
(255,-10,cs)
);
}
);
};
guides = (
{
angle = 79;
pos = (67,279);
},
{
angle = 79;
pos = (109,290);
},
{
angle = 79;
pos = (576,409);
},
{
angle = 79;
pos = (536,415);
}
);
layerId = "13A5184A-77A5-4E03-80A5-A9198A2CA35F";
shapes = (
{
closed = 1;
nodes = (
(409,-10,o),
(510,44,o),
(536,174,cs),
(556,284,o),
(505,331,o),
(332,383,cs),
(188,426,o),
(144,451,o),
(162,536,cs),
(180,625,o),
(266,674,o),
(392,674,cs),
(451,674,o),
(507,665,o),
(567,650,cs),
(614,638,l),
(590,627,l),
(616,685,l),
(628,667,l),
(582,681,ls),
(524,699,o),
(461,710,o),
(403,710,cs),
(267,710,o),
(147,667,o),
(123,542,cs),
(102,431,o),
(152,394,o),
(318,345,cs),
(466,301,o),
(513,263,o),
(495,175,cs),
(476,76,o),
(389,26,o),
(256,26,cs),
(204,26,o),
(132,35,o),
(81,47,cs),
(6,65,l),
(42,98,l),
(8,16,l),
(-9,37,l),
(72,14,ls),
(109,4,o),
(178,-10,o),
(255,-10,cs)
);
}
);
width = 605;
},
{
anchors = (
{
name = bottom;
pos = (275,-35);
},
{
name = top.case;
pos = (443,720);
}
);
background = {
shapes = (
{
closed = 1;
nodes = (
(450,-9,o),
(579,40,o),
(612,216,cs),
(632,313,o),
(601,391,o),
(446,435,cs),
(338,466,o),
(328,472,o),
(332,492,cs),
(335,507,o),
(356,516,o),
(430,516,cs),
(467,516,o),
(507,514,o),
(532,511,cs),
(686,495,l),
(601,421,l),
(694,711,l),
(763,639,l),
(626,681,ls),
(564,700,o),
(496,709,o),
(434,709,cs),
(261,709,o),
(134,650,o),
(105,501,cs),
(81,375,o),
(122,314,o),
(278,264,cs),
(376,232,o),
(378,224,o),
(376,211,cs),
(373,195,o),
(348,187,o),
(298,187,cs),
(247,187,o),
(183,192,o),
(141,198,cs),
(-33,219,l),
(89,291,l),
(-17,0,l),
(-49,67,l),
(52,32,ls),
(127,6,o),
(201,-9,o),
(271,-9,cs)
);
}
);
};
guides = (
{
angle = 79;
pos = (146,709);
},
{
angle = 79;
pos = (659,455);
},
{
angle = 79;
pos = (356,618);
},
{
angle = 79;
pos = (400,336);
}
);
layerId = "6D60D92C-1450-4586-BB49-599D0D4C1213";
shapes = (
{
closed = 1;
nodes = (
(450,-9,o),
(579,40,o),
(612,216,cs),
(632,313,o),
(601,391,o),
(446,435,cs),
(338,466,o),
(328,472,o),
(332,492,cs),
(335,507,o),
(356,516,o),
(430,516,cs),
(467,516,o),
(508,514,o),
(575,507,cs),
(686,495,l),
(601,421,l),
(694,711,l),
(776,639,l),
(626,681,ls),
(573,696,o),
(504,709,o),
(440,709,cs),
(264,709,o),
(135,650,o),
(105,501,cs),
(81,375,o),
(122,314,o),
(278,264,cs),
(376,232,o),
(378,224,o),
(376,211,cs),
(373,195,o),
(348,187,o),
(298,187,cs),
(247,187,o),
(183,192,o),
(141,198,cs),
(-33,219,l),
(89,291,l),
(-17,0,l),
(-49,67,l),
(52,32,ls),
(127,6,o),
(201,-9,o),
(271,-9,cs)
);
}
);
width = 660;
},
{
anchors = (
{
name = bottom;
pos = (256,-35);
},
{
name = top.case;
pos = (420,720);
}
);
background = {
shapes = (
{
closed = 1;
nodes = (
(430,-10,o),
(538,48,o),
(565,190,cs),
(589,313,o),
(532,362,o),
(388,411,cs),
(265,452,o),
(241,464,o),
(250,513,cs),
(260,567,o),
(317,591,o),
(415,591,cs),
(462,591,o),
(516,586,o),
(563,578,cs),
(642,565,l),
(590,524,l),
(649,698,l),
(686,659,l),
(609,681,ls),
(559,695,o),
(479,710,o),
(424,710,cs),
(271,710,o),
(145,656,o),
(121,531,cs),
(96,401,o),
(155,350,o),
(301,301,cs),
(420,261,o),
(439,238,o),
(429,188,cs),
(419,138,o),
(381,111,o),
(275,111,cs),
(224,111,o),
(159,118,o),
(88,132,cs),
(-8,151,l),
(68,195,l),
(0,8,l),
(-15,46,l),
(61,22,ls),
(136,-2,o),
(194,-10,o),
(274,-10,cs)
);
}
);
};
guides = (
{
angle = 79;
pos = (603,386);
},
{
angle = 79;
pos = (481,456);
},
{
angle = 79;
pos = (88,360);
},
{
angle = 79;
pos = (191,211);
}
);
layerId = "74CCE9C5-5564-42E0-9214-3BF0725DF94D";
shapes = (
{
closed = 1;
nodes = (
(430,-10,o),
(538,48,o),
(565,190,cs),
(589,313,o),
(532,362,o),
(388,411,cs),
(265,452,o),
(241,464,o),
(250,513,cs),
(260,567,o),
(317,591,o),
(415,591,cs),
(462,591,o),
(516,586,o),
(563,578,cs),
(642,565,l),
(590,524,l),
(649,698,l),
(686,659,l),
(609,681,ls),
(559,695,o),
(479,710,o),
(424,710,cs),
(271,710,o),
(145,656,o),
(121,531,cs),
(96,401,o),
(155,350,o),
(301,301,cs),
(420,261,o),
(439,238,o),
(429,188,cs),
(419,138,o),
(381,111,o),
(275,111,cs),
(224,111,o),
(159,118,o),
(88,132,cs),
(-8,151,l),
(68,195,l),
(0,8,l),
(-15,50,l),
(61,24,ls),
(136,-2,o),
(194,-10,o),
(274,-10,cs)
);
}
);
width = 625;
}
);
unicode = 83;
},
{
glyphname = Germandbls;
lastChange = "2021-09-30 22:27:23 +0000";
layers = (
{
background = {
shapes = (
{
closed = 1;
nodes = (
(537,-10,o),
(647,69,o),
(671,190,cs),
(694,310,o),
(633,385,o),
(461,385,cs),
(423,385,l),
(443,371,l),
(678,629,l),
(685,658,l),
(622,692,o),
(545,710,o),
(469,710,cs),
(322,710,o),
(177,645,o),
(151,507,cs),
(52,0,l),
(91,0,l),
(190,507,ls),
(212,622,o),
(337,674,o),
(465,674,cs),
(534,674,o),
(603,660,o),
(659,631,c),
(658,657,l),
(399,376,l),
(395,349,l),
(451,349,ls),
(596,349,o),
(649,289,o),
(630,192,cs),
(609,83,o),
(530,27,o),
(398,27,cs),
(366,27,o),
(327,30,o),
(295,36,cs),
(240,46,l),
(264,59,l),
(247,-5,l),
(237,15,l),
(278,2,ls),
(310,-8,o),
(356,-10,o),
(391,-10,cs)
);
}
);
};
guides = (
{
angle = 79;
pos = (630,-19);
},
{
angle = 79;
pos = (593,0);
}
);
layerId = "13A5184A-77A5-4E03-80A5-A9198A2CA35F";
shapes = (
{
closed = 1;
nodes = (
(543,-10,o),
(643,50,o),
(668,175,cs),
(692,298,o),
(632,385,o),
(457,385,cs),
(423,385,l),
(443,371,l),
(678,629,l),
(685,658,l),
(622,692,o),
(545,710,o),
(469,710,cs),
(311,710,o),
(177,645,o),
(151,507,cs),
(52,0,l),
(91,0,l),
(188,496,ls),
(212,622,o),
(337,674,o),
(465,674,cs),
(534,674,o),
(603,660,o),
(659,631,c),
(658,657,l),
(399,376,l),
(395,349,l),
(451,349,ls),
(593,349,o),
(649,286,o),
(628,179,cs),
(608,75,o),
(529,26,o),
(391,26,cs),
(359,26,o),
(322,30,o),
(295,35,cs),
(240,45,l),
(264,59,l),
(247,-5,l),
(237,15,l),
(266,6,ls),
(288,-1,o),
(348,-10,o),
(404,-10,cs)
);
}
);
width = 722;
},
{
background = {
shapes = (
{
closed = 1;
nodes = (
(621,-47,o),
(718,40,o),
(730,153,cs),
(743,279,o),
(659,369,o),
(503,385,cs),
(484,387,l),
(539,344,l),
(693,554,l),
(700,616,l),
(633,660,o),
(547,689,o),
(465,697,cs),
(295,714,o),
(140,666,o),
(123,505,cs),
(73,24,l),
(204,10,l),
(252,472,ls),
(261,561,o),
(344,591,o),
(441,582,cs),
(493,577,o),
(545,560,o),
(586,532,c),
(580,613,l),
(414,391,l),
(404,296,l),
(473,289,ls),
(566,280,o),
(601,238,o),
(595,178,cs),
(588,108,o),
(537,79,o),
(451,89,cs),
(424,92,o),
(389,101,o),
(367,107,cs),
(313,123,l),
(336,133,l),
(297,-2,l),
(290,27,l),
(337,6,ls),
(379,-13,o),
(420,-22,o),
(468,-28,cs)
);
}
);
};
guides = (
{
angle = 79;
pos = (640,-65);
},
{
angle = 79;
pos = (500,-89);
}
);
layerId = "74CCE9C5-5564-42E0-9214-3BF0725DF94D";
shapes = (
{
closed = 1;
nodes = (
(564,-10,o),
(668,76,o),
(690,190,cs),
(715,316,o),
(638,404,o),
(481,404,cs),
(462,404,l),
(524,367,l),
(690,591,l),
(702,654,l),
(637,689,o),
(547,710,o),
(461,710,cs),
(294,710,o),
(144,668,o),
(107,479,cs),
(14,0,l),
(145,0,l),
(233,450,ls),
(253,552,o),
(332,593,o),
(436,593,cs),
(488,593,o),
(540,582,o),
(580,559,c),
(570,638,l),
(392,400,l),
(373,305,l),
(459,305,ls),
(539,305,o),
(570,261,o),
(558,201,cs),
(544,131,o),
(491,103,o),
(405,103,cs),
(378,103,o),
(336,109,o),
(314,113,cs),
(261,123,l),
(282,135,l),
(249,-2,l),
(234,25,l),
(275,13,ls),
(324,-2,o),
(364,-10,o),
(428,-10,cs)
);
}
);
width = 727;
},
{
background = {
shapes = (
{
closed = 1;
nodes = (
(629,-9,o),
(731,96,o),
(752,204,cs),
(775,322,o),
(721,400,o),
(552,400,cs),
(519,400,l),
(592,362,l),
(737,548,l),
(757,649,l),
(691,689,o),
(593,709,o),
(504,709,cs),
(302,709,o),
(119,644,o),
(84,461,cs),
(-6,0,l),
(217,0,l),
(303,441,ls),
(315,504,o),
(371,530,o),
(441,530,cs),
(477,530,o),
(512,521,o),
(538,504,c),
(565,605,l),
(406,398,l),
(384,284,l),
(480,284,ls),
(538,284,o),
(551,261,o),
(544,228,cs),
(536,185,o),
(497,165,o),
(448,165,cs),
(423,165,o),
(391,171,o),
(372,174,cs),
(315,184,l),
(343,210,l),
(266,2,l),
(258,34,l),
(309,17,ls),
(360,0,o),
(399,-9,o),
(462,-9,cs)
);
}
);
};
guides = (
{
angle = 79;
pos = (720,39);
},
{
angle = 79;
pos = (513,70);
}
);
layerId = "6D60D92C-1450-4586-BB49-599D0D4C1213";
shapes = (
{
closed = 1;
nodes = (
(629,-9,o),
(727,74,o),
(748,182,cs),
(771,299,o),
(718,400,o),
(552,400,cs),
(519,400,l),
(592,362,l),
(737,548,l),
(756,640,l),
(690,686,o),
(585,709,o),
(472,709,cs),
(267,709,o),
(118,636,o),
(82,451,cs),
(-6,0,l),
(217,0,l),
(303,441,ls),
(315,504,o),
(371,530,o),
(441,530,cs),
(477,530,o),
(514,523,o),
(540,506,c),
(565,605,l),
(406,398,l),
(384,284,l),
(480,284,ls),
(538,284,o),
(550,254,o),
(543,221,cs),
(535,178,o),
(497,165,o),
(448,165,cs),
(423,165,o),
(387,169,o),
(356,175,cs),
(311,183,l),
(333,210,l),
(271,2,l),
(258,34,l),
(309,17,ls),
(360,0,o),
(414,-9,o),
(487,-9,cs)
);
}
);
width = 774;
}
);
unicode = 7838;
},
{
color = 4;
glyphname = T;
kernLeft = T;
kernRight = T;
lastChange = "2021-09-30 22:27:23 +0000";
layers = (
{
anchors = (
{
name = bottom;
pos = (267,-35);
},
{
name = top.case;
pos = (413,720);
}
);
layerId = "13A5184A-77A5-4E03-80A5-A9198A2CA35F";
shapes = (
{
closed = 1;
nodes = (
(292,0,l),
(421,664,l),
(693,664,l),
(700,700,l),
(118,700,l),
(111,664,l),
(382,664,l),
(253,0,l)
);
}
);
width = 642;
},
{
anchors = (
{
name = bottom;
pos = (287,-35);
},
{
name = top.case;
pos = (434,720);
}
);
layerId = "6D60D92C-1450-4586-BB49-599D0D4C1213";
shapes = (
{
closed = 1;
nodes = (
(406,0,l),
(504,505,l),
(712,505,l),
(750,700,l),
(110,700,l),
(72,505,l),
(281,505,l),
(183,0,l)
);
}
);
width = 690;
},
{
anchors = (
{
name = bottom;
pos = (290,-35);
},
{
name = top.case;
pos = (427,720);
}
);
background = {
shapes = (
{
closed = 1;
nodes = (
(352,0,l),
(464,576,l),
(694,576,l),
(718,700,l),
(127,700,l),
(103,576,l),
(334,576,l),
(222,0,l)
);
}
);
};
guides = (
{
pos = (180,586);
}
);
layerId = "74CCE9C5-5564-42E0-9214-3BF0725DF94D";
shapes = (
{
closed = 1;
nodes = (
(353,0,l),
(467,585,l),
(706,585,l),
(728,700,l),
(117,700,l),
(95,585,l),
(336,585,l),
(222,0,l)
);
}
);
width = 672;
}
);
unicode = 84;
},
{
color = 3;
glyphname = Tbar;
kernLeft = T;
kernRight = T;
lastChange = "2021-09-30 22:27:23 +0000";
layers = (
{
layerId = "13A5184A-77A5-4E03-80A5-A9198A2CA35F";
shapes = (
{
closed = 1;
nodes = (
(525,350,l),
(531,386,l),
(163,386,l),
(157,350,l)
);
},
{
ref = T;
}
);
width = 642;
},
{
layerId = "6D60D92C-1450-4586-BB49-599D0D4C1213";
shapes = (
{
closed = 1;
nodes = (
(595,250,l),
(617,368,l),
(114,368,l),
(92,250,l)
);
},
{
ref = T;
}
);
width = 690;
},
{
layerId = "74CCE9C5-5564-42E0-9214-3BF0725DF94D";
shapes = (
{
closed = 1;
nodes = (
(561,294,l),
(579,382,l),
(145,382,l),
(127,294,l)
);
},
{
alignment = -1;
ref = T;
}
);
width = 672;
}
);
metricLeft = T;
metricRight = T;
unicode = 358;
},
{
glyphname = U;
kernLeft = U;
kernRight = U;
lastChange = "2021-09-30 22:27:23 +0000";
layers = (
{
anchors = (
{
name = bottom;
pos = (311,-35);
},
{
name = ogonek;
pos = (359,10);
},
{
name = top.case;
pos = (457,720);
}
);
background = {
shapes = (
{
closed = 1;
nodes = (
(499,-10,o),
(612,75,o),
(650,274,cs),
(733,700,l),
(696,700,l),
(615,285,ls),
(579,100,o),
(479,26,o),
(328,26,cs),
(180,26,o),
(105,100,o),
(141,285,cs),
(222,700,l),
(183,700,l),
(103,285,ls),
(64,86,o),
(153,-10,o),
(327,-10,cs)
);
}
);
};
layerId = "13A5184A-77A5-4E03-80A5-A9198A2CA35F";
shapes = (
{
closed = 1;
nodes = (
(494,-10,o),
(607,75,o),
(645,274,cs),
(728,700,l),
(691,700,l),
(610,285,ls),
(574,100,o),
(474,26,o),
(323,26,cs),
(174,26,o),
(100,98,o),
(138,292,cs),
(218,700,l),
(178,700,l),
(100,296,ls),
(59,84,o),
(147,-10,o),
(322,-10,cs)
);
}
);
width = 730;
},
{
anchors = (
{
name = bottom;
pos = (332,-35);
},
{
name = ogonek;
pos = (417,10);
},
{
name = top.case;
pos = (473,720);
}
);
background = {
shapes = (
{
closed = 1;
nodes = (
(530,-9,o),
(690,106,o),
(725,286,cs),
(806,700,l),
(590,700,l),
(515,315,ls),
(497,223,o),
(450,198,o),
(373,198,cs),
(294,198,o),
(255,223,o),
(273,315,cs),
(348,700,l),
(125,700,l),
(44,286,ls),
(9,106,o),
(113,-9,o),
(326,-9,cs)
);
}
);
};
layerId = "6D60D92C-1450-4586-BB49-599D0D4C1213";
shapes = (
{
closed = 1;
nodes = (
(536,-9,o),
(685,85,o),
(726,293,cs),
(806,700,l),
(590,700,l),
(512,304,ls),
(496,223,o),
(443,199,o),
(376,199,cs),
(303,199,o),
(256,222,o),
(272,306,cs),
(349,700,l),
(125,700,l),
(48,304,ls),
(4,76,o),
(169,-9,o),
(336,-9,cs)
);
}
);
width = 761;
},
{
anchors = (
{
name = bottom;
pos = (311,-35);
},
{
name = ogonek;
pos = (364,10);
},
{
name = top.case;
pos = (452,720);
}
);
background = {
shapes = (
{
closed = 1;
nodes = (
(511,-10,o),
(632,78,o),
(672,270,cs),
(756,700,l),
(629,700,l),
(550,295,ls),
(524,162,o),
(453,113,o),
(344,113,cs),
(233,113,o),
(179,160,o),
(205,299,cs),
(284,700,l),
(152,700,l),
(75,300,ls),
(32,80,o),
(153,-10,o),
(328,-10,cs)
);
}
);
};
layerId = "74CCE9C5-5564-42E0-9214-3BF0725DF94D";
shapes = (
{
closed = 1;
nodes = (
(501,-10,o),
(621,78,o),
(660,270,cs),
(744,700,l),
(617,700,l),
(539,301,ls),
(513,164,o),
(443,116,o),
(337,116,cs),
(232,116,o),
(179,164,o),
(205,301,cs),
(283,700,l),
(152,700,l),
(74,300,ls),
(32,80,o),
(150,-10,o),
(321,-10,cs)
);
}
);
width = 722;
}
);
unicode = 85;
},
{
glyphname = Uhorn;
lastChange = "2021-09-30 22:27:23 +0000";
layers = (
{
anchors = (
{
name = bottom;
pos = (311,-35);
},
{
name = ogonek;
pos = (359,10);
},
{
name = top.case;
pos = (457,720);
}
);
layerId = "13A5184A-77A5-4E03-80A5-A9198A2CA35F";
shapes = (
{
closed = 1;
nodes = (
(901,648,o),
(948,682,o),
(966,771,cs),
(973,806,o),
(967,844,o),
(952,883,c),
(1014,865,l),
(884,839,l),
(938,878,l),
(937,836,o),
(935,798,o),
(930,770,cs),
(917,697,o),
(878,680,o),
(831,680,cs),
(798,680,o),
(763,690,o),
(728,700,c),
(715,668,l),
(755,655,o),
(795,648,o),
(832,648,cs)
);
},
{
ref = U;
}
);
width = 730;
},
{
anchors = (
{
name = bottom;
pos = (311,-35);
},
{
name = ogonek;
pos = (364,10);
},
{
name = top.case;
pos = (452,720);
}
);
background = {
shapes = (
{
pos = (88,8);
ref = Ohorn;
}
);
};
layerId = "74CCE9C5-5564-42E0-9214-3BF0725DF94D";
shapes = (
{
closed = 1;
nodes = (
(902,581,o),
(974,612,o),
(995,722,cs),
(1009,792,o),
(994,866,o),
(971,926,c),
(1061,902,l),
(849,859,l),
(891,886,l),
(891,843,o),
(887,806,o),
(881,776,cs),
(869,716,o),
(834,692,o),
(801,692,cs),
(782,692,o),
(766,695,o),
(744,700,c),
(705,599,l),
(734,587,o),
(771,581,o),
(807,581,cs)
);
},
{
alignment = -1;
ref = U;
}
);
width = 792;
},
{
anchors = (
{
name = bottom;
pos = (305,-35);
},
{
name = ogonek;
pos = (363,10);
},
{
name = top.case;
pos = (453,720);
}
);
background = {
shapes = (
{
closed = 1;
nodes = (
(990,559,o),
(1050,606,o),
(1068,698,cs),
(1083,772,o),
(1071,847,o),
(1025,959,c),
(1143,919,l),
(851,861,l),
(923,897,l),
(932,841,o),
(937,788,o),
(930,754,cs),
(920,711,o),
(893,687,o),
(836,687,cs),
(833,687,o),
(831,688,o),
(829,688,c),
(772,563,l),
(794,561,o),
(814,559,o),
(834,559,cs)
);
}
);
};
layerId = "6D60D92C-1450-4586-BB49-599D0D4C1213";
shapes = (
{
closed = 1;
nodes = (
(978,552,o),
(1051,605,o),
(1068,697,cs),
(1082,770,o),
(1071,842,o),
(1036,941,c),
(1151,922,l),
(847,861,l),
(923,891,l),
(931,849,o),
(932,813,o),
(932,783,cs),
(932,727,o),
(898,694,o),
(847,694,cs),
(834,694,o),
(820,696,o),
(806,700,c),
(766,563,l),
(792,560,o),
(817,559,o),
(840,558,cs)
);
},
{
ref = U;
}
);
width = 900;
}
);
metricLeft = U;
unicode = 431;
},
{
glyphname = V;
lastChange = "2021-09-30 23:32:11 +0000";
layers = (
{
background = {
shapes = (
{
closed = 1;
nodes = (
(315,-5,l),
(763,700,l),
(719,700,l),
(299,37,l),
(297,37,l),
(138,700,l),
(98,700,l),
(269,-5,l)
);
}
);
};
guides = (
{
pos = (424,23);
}
);
layerId = "13A5184A-77A5-4E03-80A5-A9198A2CA35F";
shapes = (
{
closed = 1;
nodes = (
(321,-5,l),
(763,700,l),
(719,700,l),
(296,23,l),
(294,23,l),
(138,700,l),
(98,700,l),
(263,-5,l)
);
}
);
width = 685;
},
{
background = {
shapes = (
{
closed = 1;
nodes = (
(504,19,l),
(871,676,l),
(626,715,l),
(432,296,l),
(428,296,l),
(359,757,l),
(105,797,l),
(259,58,l)
);
}
);
};
layerId = "6D60D92C-1450-4586-BB49-599D0D4C1213";
shapes = (
{
closed = 1;
nodes = (
(488,0,l),
(881,700,l),
(620,700,l),
(418,256,l),
(414,256,l),
(352,700,l),
(105,700,l),
(249,0,l)
);
}
);
width = 816;
},
{
background = {
shapes = (
{
closed = 1;
nodes = (
(391,33,l),
(800,683,l),
(662,706,l),
(366,209,l),
(362,209,l),
(237,772,l),
(94,795,l),
(274,52,l)
);
}
);
};
layerId = "74CCE9C5-5564-42E0-9214-3BF0725DF94D";
shapes = (
{
closed = 1;
nodes = (
(369,-6,l),
(804,700,l),
(651,700,l),
(345,170,l),
(341,170,l),
(238,700,l),
(102,700,l),
(251,-6,l)
);
}
);
width = 732;
}
);
metricLeft = "=A+5";
metricRight = "=A+5";
unicode = 86;
},
{
glyphname = W;
kernLeft = W;
kernRight = W;
lastChange = "2021-09-30 22:27:23 +0000";
layers = (
{
anchors = (
{
name = top.case;
pos = (615,720);
}
);
background = {
shapes = (
{
closed = 1;
nodes = (
(277,-5,l),
(600,645,l),
(609,645,l),
(598,686,l),
(672,-5,l),
(724,-5,l),
(1103,700,l),
(1062,700,l),
(705,23,l),
(693,23,l),
(704,13,l),
(631,700,l),
(588,700,l),
(256,23,l),
(239,23,l),
(256,9,l),
(162,700,l),
(123,700,l),
(223,-5,l)
);
}
);
};
guides = (
{
pos = (427,23);
}
);
layerId = "13A5184A-77A5-4E03-80A5-A9198A2CA35F";
shapes = (
{
closed = 1;
nodes = (
(277,-5,l),
(606,674,l),
(623,674,l),
(606,686,l),
(672,-5,l),
(724,-5,l),
(1103,700,l),
(1062,700,l),
(705,23,l),
(693,23,l),
(704,13,l),
(639,700,l),
(580,700,l),
(256,23,l),
(239,23,l),
(256,9,l),
(162,700,l),
(123,700,l),
(223,-5,l)
);
}
);
width = 1050;
},
{
anchors = (
{
name = top.case;
pos = (651,720);
}
);
background = {
shapes = (
{
closed = 1;
nodes = (
(408,0,l),
(585,380,l),
(602,384,l),
(581,448,l),
(632,0,l),
(854,0,l),
(1202,700,l),
(960,700,l),
(775,306,l),
(754,306,l),
(775,267,l),
(739,700,l),
(562,700,l),
(375,296,l),
(361,296,l),
(373,258,l),
(341,700,l),
(115,700,l),
(193,0,l)
);
}
);
};
guides = (
{
pos = (72,271);
},
{
pos = (72,390);
}
);
layerId = "6D60D92C-1450-4586-BB49-599D0D4C1213";
shapes = (
{
closed = 1;
nodes = (
(408,0,l),
(583,392,l),
(602,392,l),
(581,448,l),
(632,0,l),
(854,0,l),
(1202,700,l),
(960,700,l),
(771,271,l),
(750,271,l),
(772,248,l),
(739,700,l),
(562,700,l),
(369,271,l),
(355,271,l),
(370,258,l),
(341,700,l),
(115,700,l),
(193,0,l)
);
}
);
width = 1147;
},
{
anchors = (
{
name = top.case;
pos = (634,720);
}
);
background = {
shapes = (
{
closed = 1;
nodes = (
(333,36,l),
(578,510,l),
(597,506,l),
(574,566,l),
(630,-22,l),
(768,-49,l),
(1126,601,l),
(997,626,l),
(739,146,l),
(718,151,l),
(741,106,l),
(680,692,l),
(551,717,l),
(298,224,l),
(280,228,l),
(300,191,l),
(242,773,l),
(104,800,l),
(197,62,l)
);
}
);
};
guides = (
{
pos = (85,164);
},
{
pos = (149,508);
}
);
layerId = "74CCE9C5-5564-42E0-9214-3BF0725DF94D";
shapes = (
{
closed = 1;
nodes = (
(337,-6,l),
(581,503,l),
(601,503,l),
(576,564,l),
(630,-6,l),
(764,-6,l),
(1118,700,l),
(977,700,l),
(733,164,l),
(708,164,l),
(736,141,l),
(676,704,l),
(552,704,l),
(302,164,l),
(283,164,l),
(302,139,l),
(257,700,l),
(117,700,l),
(202,-6,l)
);
}
);
width = 1061;
}
);
unicode = 87;
},
{
glyphname = X;
lastChange = "2021-09-30 22:27:23 +0000";
layers = (
{
background = {
shapes = (
{
closed = 1;
nodes = (
(645,13,l),
(411,403,l),
(399,413,l),
(186,768,l),
(140,775,l),
(369,392,l),
(379,383,l),
(601,17,l)
);
},
{
closed = 1;
nodes = (
(99,74,l),
(388,374,l),
(371,406,l),
(51,79,l)
);
},
{
closed = 1;
nodes = (
(714,709,l),
(669,713,l),
(380,404,l),
(398,372,l)
);
}
);
};
layerId = "13A5184A-77A5-4E03-80A5-A9198A2CA35F";
shapes = (
{
closed = 1;
nodes = (
(572,0,l),
(367,361,l),
(359,371,l),
(173,700,l),
(131,700,l),
(330,347,l),
(338,338,l),
(531,0,l)
);
},
{
closed = 1;
nodes = (
(30,0,l),
(344,332,l),
(326,362,l),
(-23,0,l)
);
},
{
closed = 1;
nodes = (
(701,700,l),
(652,700,l),
(335,361,l),
(355,331,l)
);
}
);
width = 645;
},
{
background = {
shapes = (
{
closed = 1;
nodes = (
(702,-42,l),
(502,416,l),
(466,445,l),
(358,721,l),
(99,762,l),
(308,282,l),
(341,261,l),
(462,-4,l)
);
},
{
closed = 1;
nodes = (
(220,35,l),
(389,223,l),
(286,423,l),
(-17,72,l)
);
},
{
closed = 1;
nodes = (
(808,650,l),
(567,688,l),
(417,526,l),
(512,327,l)
);
}
);
};
layerId = "6D60D92C-1450-4586-BB49-599D0D4C1213";
shapes = (
{
closed = 1;
nodes = (
(687,0,l),
(495,420,l),
(462,444,l),
(347,700,l),
(100,700,l),
(316,259,l),
(349,242,l),
(457,0,l)
);
},
{
closed = 1;
nodes = (
(210,0,l),
(377,216,l),
(271,392,l),
(-41,0,l)
);
},
{
closed = 1;
nodes = (
(818,700,l),
(561,700,l),
(410,510,l),
(506,334,l)
);
}
);
width = 748;
},
{
background = {
shapes = (
{
closed = 0;
nodes = (
(316,309,l),
(117,700,l),
(255,700,l),
(404,410,l)
);
}
);
};
layerId = "74CCE9C5-5564-42E0-9214-3BF0725DF94D";
shapes = (
{
closed = 1;
nodes = (
(623,0,l),
(424,391,l),
(405,408,l),
(255,700,l),
(118,700,l),
(319,303,l),
(336,290,l),
(485,0,l)
);
},
{
closed = 1;
nodes = (
(128,0,l),
(366,272,l),
(296,377,l),
(-29,0,l)
);
},
{
closed = 1;
nodes = (
(756,700,l),
(603,700,l),
(369,438,l),
(433,332,l)
);
}
);
width = 695;
}
);
unicode = 88;
},
{
glyphname = Y;
kernLeft = Y;
kernRight = Y;
lastChange = "2021-09-30 22:27:23 +0000";
layers = (
{
anchors = (
{
name = bottom;
pos = (272,-35);
},
{
name = top.case;
pos = (419,720);
}
);
background = {
shapes = (
{
closed = 1;
nodes = (
(297,0,l),
(357,313,l),
(717,700,l),
(664,700,l),
(342,347,l),
(159,700,l),
(113,700,l),
(319,316,l),
(258,0,l)
);
}
);
};
layerId = "13A5184A-77A5-4E03-80A5-A9198A2CA35F";
shapes = (
{
closed = 1;
nodes = (
(297,0,l),
(357,313,l),
(717,700,l),
(664,700,l),
(343,347,l),
(341,347,l),
(159,700,l),
(113,700,l),
(319,316,l),
(258,0,l)
);
}
);
width = 654;
},
{
anchors = (
{
name = bottom;
pos = (342,-35);
},
{
name = top.case;
pos = (500,720);
}
);
background = {
shapes = (
{
closed = 1;
nodes = (
(469,0,l),
(510,210,l),
(882,700,l),
(638,700,l),
(441,410,l),
(437,410,l),
(353,700,l),
(99,700,l),
(285,202,l),
(246,0,l)
);
}
);
};
guides = (
{
pos = (375,262);
}
);
layerId = "6D60D92C-1450-4586-BB49-599D0D4C1213";
shapes = (
{
closed = 1;
nodes = (
(470,0,l),
(510,210,l),
(877,700,l),
(616,700,l),
(439,410,l),
(437,410,l),
(344,700,l),
(110,700,l),
(294,235,l),
(247,0,l)
);
}
);
width = 817;
},
{
anchors = (
{
name = bottom;
pos = (303,-35);
},
{
name = top.case;
pos = (455,720);
}
);
background = {
shapes = (
{
closed = 1;
nodes = (
(402,9,l),
(436,251,l),
(777,663,l),
(621,685,l),
(393,387,l),
(389,388,l),
(252,737,l),
(92,760,l),
(307,269,l),
(273,27,l)
);
}
);
};
layerId = "74CCE9C5-5564-42E0-9214-3BF0725DF94D";
shapes = (
{
closed = 1;
nodes = (
(379,0,l),
(425,239,l),
(805,700,l),
(629,700,l),
(386,369,l),
(382,369,l),
(257,700,l),
(111,700,l),
(297,250,l),
(248,0,l)
);
}
);
width = 742;
}
);
unicode = 89;
},
{
glyphname = Z;
kernLeft = Z;
kernRight = Z;
lastChange = "2021-09-30 22:27:23 +0000";
layers = (
{
anchors = (
{
name = top.case;
pos = (389,720);
}
);
background = {
anchors = (
{
name = top.case;
pos = (360,719);
}
);
shapes = (
{
closed = 1;
nodes = (
(556,-26,l),
(560,10,l),
(83,60,l),
(618,643,l),
(621,671,l),
(112,724,l),
(108,688,l),
(567,640,l),
(32,58,l),
(29,29,l)
);
}
);
};
layerId = "13A5184A-77A5-4E03-80A5-A9198A2CA35F";
shapes = (
{
closed = 1;
nodes = (
(522,0,l),
(529,36,l),
(11,36,l),
(25,3,l),
(645,672,l),
(650,700,l),
(138,700,l),
(131,664,l),
(629,664,l),
(615,697,l),
(-2,29,l),
(-8,0,l)
);
}
);
width = 610;
},
{
anchors = (
{
name = top.case;
pos = (433,720);
}
);
background = {
shapes = (
{
closed = 1;
nodes = (
(599,0,l),
(637,195,l),
(305,195,l),
(316,171,l),
(695,532,l),
(728,700,l),
(126,700,l),
(88,505,l),
(426,505,l),
(416,529,l),
(16,160,l),
(-15,0,l)
);
}
);
};
layerId = "6D60D92C-1450-4586-BB49-599D0D4C1213";
shapes = (
{
closed = 1;
nodes = (
(598,0,l),
(637,195,l),
(305,195,l),
(318,164,l),
(694,532,l),
(727,700,l),
(125,700,l),
(88,505,l),
(427,505,l),
(415,536,l),
(15,160,l),
(-16,0,l)
);
}
);
width = 684;
},
{
anchors = (
{
name = top.case;
pos = (403,720);
}
);
background = {
shapes = (
{
closed = 1;
nodes = (
(541,0,l),
(565,124,l),
(199,124,l),
(652,607,l),
(670,700,l),
(135,700,l),
(111,576,l),
(461,576,l),
(8,89,l),
(-9,0,l)
);
}
);
};
layerId = "74CCE9C5-5564-42E0-9214-3BF0725DF94D";
shapes = (
{
closed = 1;
nodes = (
(541,0,l),
(563,115,l),
(144,115,l),
(158,82,l),
(652,607,l),
(670,700,l),
(135,700,l),
(112,585,l),
(515,585,l),
(501,618,l),
(8,89,l),
(-9,0,l)
);
}
);
width = 630;
}
);
unicode = 90;
},
{
color = 4;
glyphname = a;
kernLeft = a;
kernRight = a;
lastChange = "2021-09-30 22:27:23 +0000";
layers = (
{
anchors = (
{
name = bottom;
pos = (224,-35);
},
{
name = ogonek;
pos = (391,10);
},
{
name = top;
pos = (314,550);
}
);
background = {
shapes = (
{
closed = 1;
nodes = (
(478,39,l),
(492,20,l),
(398,21,o),
(383,33,o),
(393,85,cs),
(440,325,ls),
(463,443,o),
(408,496,o),
(302,496,cs),
(245,496,o),
(189,483,o),
(142,464,cs),
(85,442,l),
(104,471,l),
(122,415,l),
(104,425,l),
(146,438,ls),
(182,449,o),
(234,464,o),
(293,464,cs),
(384,464,o),
(423,423,o),
(405,331,cs),
(358,88,l),
(357,80,l),
(347,28,o),
(374,-6,o),
(441,-6,cs),
(457,-6,o),
(471,-5,o),
(486,-1,c),
(464,-25,l)
);
},
{
closed = 1;
nodes = (
(214,-6,o),
(278,13,o),
(332,53,cs),
(384,92,l),
(386,120,l),
(321,78,ls),
(270,45,o),
(221,28,o),
(182,28,cs),
(101,28,o),
(53,64,o),
(66,137,cs),
(76,188,o),
(97,211,o),
(189,233,cs),
(421,290,l),
(427,321,l),
(177,260,ls),
(84,237,o),
(43,206,o),
(30,142,cs),
(12,48,o),
(81,-6,o),
(165,-6,cs)
);
}
);
};
guides = (
{
angle = 79;
pos = (51,274);
},
{
angle = 79;
pos = (89,282);
},
{
angle = 77.8594;
pos = (419,622);
}
);
layerId = "13A5184A-77A5-4E03-80A5-A9198A2CA35F";
shapes = (
{
closed = 1;
nodes = (
(478,39,l),
(492,20,l),
(398,21,o),
(383,33,o),
(393,85,cs),
(440,325,ls),
(463,443,o),
(408,496,o),
(302,496,cs),
(245,496,o),
(189,483,o),
(142,464,cs),
(85,442,l),
(104,471,l),
(122,415,l),
(104,425,l),
(146,438,ls),
(182,449,o),
(234,464,o),
(293,464,cs),
(384,464,o),
(423,423,o),
(405,331,cs),
(358,88,l),
(357,80,l),
(347,28,o),
(374,-6,o),
(441,-6,cs),
(457,-6,o),
(471,-5,o),
(486,-1,c),
(464,-25,l)
);
},
{
closed = 1;
nodes = (
(214,-6,o),
(278,13,o),
(332,53,cs),
(384,92,l),
(386,120,l),
(321,78,ls),
(270,45,o),
(221,28,o),
(182,28,cs),
(101,28,o),
(53,64,o),
(66,137,cs),
(76,188,o),
(97,211,o),
(189,233,cs),
(421,290,l),
(427,321,l),
(177,260,ls),
(79,236,o),
(43,209,o),
(31,145,cs),
(12,48,o),
(81,-6,o),
(165,-6,cs)
);
}
);
width = 523;
},
{
anchors = (
{
name = bottom;
pos = (251,-35);
},
{
name = ogonek;
pos = (415,10);
},
{
name = top;
pos = (344,550);
}
);
background = {
shapes = (
{
closed = 1;
nodes = (
(584,190,l),
(596,130,l),
(534,139,o),
(514,147,o),
(521,180,cs),
(548,320,ls),
(575,458,o),
(492,535,o),
(340,535,cs),
(273,535,o),
(202,519,o),
(133,496,cs),
(-51,435,l),
(90,535,l),
(97,309,l),
(43,344,l),
(127,359,ls),
(173,367,o),
(218,371,o),
(259,371,cs),
(312,371,o),
(341,361,o),
(333,321,cs),
(303,164,ls),
(300,152,o),
(300,141,o),
(300,130,c),
(308,120,l),
(309,46,o),
(351,-9,o),
(463,-9,cs),
(488,-9,o),
(544,6,o),
(569,17,c),
(512,-45,l)
);
},
{
closed = 1;
nodes = (
(197,-9,o),
(267,27,o),
(326,73,c),
(309,157,l),
(271,141,o),
(244,133,o),
(222,133,cs),
(200,133,o),
(186,145,o),
(191,169,cs),
(194,187,o),
(204,202,o),
(240,210,cs),
(320,229,l),
(341,328,l),
(187,294,ls),
(59,266,o),
(1,227,o),
(-16,138,cs),
(-37,34,o),
(40,-9,o),
(126,-9,cs)
);
}
);
};
guides = (
{
angle = 79;
pos = (-52,-45);
}
);
layerId = "6D60D92C-1450-4586-BB49-599D0D4C1213";
shapes = (
{
closed = 1;
nodes = (
(584,190,l),
(596,130,l),
(534,139,o),
(514,147,o),
(521,180,cs),
(548,316,ls),
(578,469,o),
(464,535,o),
(348,535,cs),
(282,535,o),
(206,522,o),
(131,499,cs),
(-51,444,l),
(87,535,l),
(109,309,l),
(43,344,l),
(127,359,ls),
(173,367,o),
(218,371,o),
(259,371,cs),
(323,371,o),
(340,355,o),
(331,309,cs),
(301,151,l),
(308,126,l),
(306,52,o),
(351,-9,o),
(463,-9,cs),
(488,-9,o),
(544,3,o),
(569,11,c),
(512,-45,l)
);
},
{
closed = 1;
nodes = (
(177,-9,o),
(240,12,o),
(293,51,cs),
(346,90,l),
(312,159,l),
(285,147,ls),
(262,137,o),
(241,133,o),
(225,133,cs),
(203,133,o),
(187,149,o),
(192,173,cs),
(196,192,o),
(205,204,o),
(243,212,cs),
(320,229,l),
(341,326,l),
(199,298,ls),
(54,270,o),
(1,229,o),
(-15,146,cs),
(-38,33,o),
(51,-9,o),
(128,-9,cs)
);
}
);
width = 602;
},
{
anchors = (
{
name = bottom;
pos = (221,-35);
},
{
name = ogonek;
pos = (410,10);
},
{
name = top;
pos = (320,550);
}
);
background = {
shapes = (
{
closed = 1;
nodes = (
(519,108,l),
(530,76,l),
(457,84,o),
(438,88,o),
(447,137,cs),
(484,337,ls),
(504,443,o),
(440,516,o),
(314,516,cs),
(249,516,o),
(188,500,o),
(129,481,cs),
(8,442,l),
(98,503,l),
(118,362,l),
(76,378,l),
(133,389,ls),
(173,397,o),
(220,403,o),
(274,403,cs),
(344,403,o),
(368,372,o),
(360,329,cs),
(320,126,l),
(325,103,l),
(328,43,o),
(356,-8,o),
(441,-8,cs),
(463,-8,o),
(502,-1,o),
(526,8,c),
(479,-35,l)
);
},
{
closed = 1;
nodes = (
(199,-8,o),
(256,12,o),
(306,52,cs),
(355,91,l),
(344,156,l),
(297,129,ls),
(259,108,o),
(222,97,o),
(195,97,cs),
(157,97,o),
(131,114,o),
(138,155,cs),
(143,181,o),
(159,198,o),
(194,207,cs),
(363,252,l),
(378,324,l),
(182,291,ls),
(70,272,o),
(33,236,o),
(16,155,cs),
(-4,53,o),
(71,-8,o),
(154,-8,cs)
);
}
);
};
guides = (
{
angle = 79;
pos = (39,274);
},
{
angle = 79;
pos = (264,350);
}
);
layerId = "74CCE9C5-5564-42E0-9214-3BF0725DF94D";
shapes = (
{
closed = 1;
nodes = (
(519,108,l),
(530,76,l),
(457,84,o),
(438,88,o),
(447,137,cs),
(484,337,ls),
(504,443,o),
(440,516,o),
(314,516,cs),
(249,516,o),
(188,500,o),
(129,481,cs),
(8,442,l),
(98,503,l),
(118,362,l),
(89,378,l),
(142,389,ls),
(180,397,o),
(224,403,o),
(274,403,cs),
(344,403,o),
(368,372,o),
(360,329,cs),
(320,126,l),
(325,103,l),
(328,43,o),
(356,-8,o),
(441,-8,cs),
(463,-8,o),
(502,-1,o),
(526,8,c),
(479,-35,l)
);
},
{
closed = 1;
nodes = (
(204,-8,o),
(252,9,o),
(296,44,cs),
(355,91,l),
(344,156,l),
(297,129,ls),
(259,108,o),
(222,97,o),
(195,97,cs),
(157,97,o),
(131,114,o),
(138,155,cs),
(143,181,o),
(159,198,o),
(194,207,cs),
(363,252,l),
(378,324,l),
(199,294,ls),
(73,273,o),
(31,227,o),
(16,155,cs),
(-4,55,o),
(73,-8,o),
(158,-8,cs)
);
}
);
width = 555;
}
);
unicode = 97;
},
{
color = 3;
glyphname = ae;
kernLeft = a;
kernRight = e;
lastChange = "2021-09-30 23:32:10 +0000";
layers = (
{
anchors = (
{
name = top;
pos = (512,550);
}
);
background = {
anchors = (
{
name = top;
pos = (512,550);
}
);
shapes = (
{
pos = (1,0);
ref = a;
}
);
};
layerId = "13A5184A-77A5-4E03-80A5-A9198A2CA35F";
shapes = (
{
closed = 1;
nodes = (
(214,-6,o),
(280,14,o),
(338,56,cs),
(409,106,l),
(396,126,l),
(321,77,ls),
(271,44,o),
(222,28,o),
(183,28,cs),
(102,28,o),
(54,64,o),
(66,137,cs),
(77,188,o),
(98,211,o),
(189,233,cs),
(421,290,l),
(427,321,l),
(177,260,ls),
(84,237,o),
(43,206,o),
(30,142,cs),
(13,48,o),
(82,-6,o),
(166,-6,cs)
);
},
{
closed = 1;
nodes = (
(440,325,l),
(441,331,ls),
(463,443,o),
(409,496,o),
(299,496,cs),
(246,496,o),
(189,483,o),
(143,464,cs),
(85,442,l),
(104,471,l),
(123,415,l),
(104,425,l),
(146,438,ls),
(183,449,o),
(234,464,o),
(284,464,cs),
(379,464,o),
(424,422,o),
(406,331,cs),
(404,321,l)
);
},
{
closed = 1;
nodes = (
(631,-6,o),
(687,8,o),
(732,27,cs),
(784,48,l),
(769,18,l),
(748,81,l),
(776,72,l),
(724,53,ls),
(679,37,o),
(634,27,o),
(589,27,cs),
(468,27,o),
(391,109,o),
(419,259,cs),
(445,391,o),
(544,463,o),
(654,463,cs),
(770,463,o),
(815,380,o),
(792,258,c),
(817,280,l),
(398,280,l),
(393,248,l),
(824,248,l),
(828,269,ls),
(851,386,o),
(797,496,o),
(656,496,cs),
(514,496,o),
(409,396,o),
(382,257,cs),
(351,93,o),
(451,-6,o),
(584,-6,cs)
);
}
);
width = 873;
},
{
anchors = (
{
name = top;
pos = (545,550);
}
);
background = {
shapes = (
{
closed = 1;
nodes = (
(175,-9,o),
(238,11,o),
(292,51,cs),
(344,90,l),
(317,162,l),
(282,147,ls),
(260,137,o),
(238,133,o),
(222,133,cs),
(200,133,o),
(186,145,o),
(191,169,cs),
(194,187,o),
(204,202,o),
(240,210,cs),
(320,229,l),
(341,328,l),
(187,294,ls),
(59,266,o),
(1,227,o),
(-16,138,cs),
(-37,34,o),
(40,-9,o),
(126,-9,cs)
);
},
{
closed = 1;
nodes = (
(503,209,l),
(544,425,l),
(520,496,o),
(448,535,o),
(340,535,cs),
(273,535,o),
(202,519,o),
(133,496,cs),
(-51,435,l),
(90,535,l),
(97,309,l),
(43,344,l),
(127,359,ls),
(173,367,o),
(218,371,o),
(259,371,cs),
(312,371,o),
(341,361,o),
(333,321,cs),
(309,194,l)
);
},
{
closed = 1;
nodes = (
(630,-9,o),
(700,4,o),
(772,32,cs),
(854,64,l),
(823,28,l),
(782,222,l),
(832,181,l),
(750,165,ls),
(705,156,o),
(665,151,o),
(632,151,cs),
(548,151,o),
(509,176,o),
(527,270,cs),
(546,366,o),
(585,392,o),
(642,392,cs),
(701,392,o),
(714,361,o),
(700,289,c),
(745,321,l),
(494,321,l),
(473,210,l),
(879,210,l),
(887,255,ls),
(921,428,o),
(838,535,o),
(670,535,cs),
(514,535,o),
(350,444,o),
(315,262,cs),
(281,87,o),
(398,-9,o),
(567,-9,cs)
);
}
);
};
layerId = "6D60D92C-1450-4586-BB49-599D0D4C1213";
shapes = (
{
closed = 1;
nodes = (
(177,-9,o),
(240,12,o),
(293,51,cs),
(366,104,l),
(333,169,l),
(285,147,ls),
(262,137,o),
(241,133,o),
(225,133,cs),
(203,133,o),
(187,149,o),
(192,173,cs),
(196,192,o),
(205,204,o),
(243,212,cs),
(320,229,l),
(341,326,l),
(199,298,ls),
(54,270,o),
(1,229,o),
(-15,146,cs),
(-38,33,o),
(51,-9,o),
(128,-9,cs)
);
},
{
closed = 1;
nodes = (
(526,254,l),
(538,316,ls),
(568,469,o),
(464,535,o),
(348,535,cs),
(282,535,o),
(206,522,o),
(131,499,cs),
(-51,444,l),
(87,535,l),
(109,309,l),
(43,344,l),
(127,359,ls),
(173,367,o),
(218,371,o),
(259,371,cs),
(323,371,o),
(340,355,o),
(331,309,cs),
(318,240,l)
);
},
{
closed = 1;
nodes = (
(632,-9,o),
(702,4,o),
(774,32,cs),
(856,64,l),
(825,28,l),
(784,222,l),
(834,181,l),
(752,165,ls),
(707,156,o),
(667,151,o),
(634,151,cs),
(539,151,o),
(512,181,o),
(531,279,cs),
(548,368,o),
(578,392,o),
(643,392,cs),
(694,392,o),
(716,361,o),
(702,291,c),
(747,321,l),
(496,321,l),
(475,210,l),
(881,210,l),
(889,255,ls),
(923,428,o),
(836,535,o),
(668,535,cs),
(512,535,o),
(355,458,o),
(320,276,cs),
(286,101,o),
(400,-9,o),
(569,-9,cs)
);
}
);
width = 906;
},
{
anchors = (
{
name = top;
pos = (505,550);
}
);
background = {
anchors = (
{
name = top;
pos = (535,550);
}
);
shapes = (
{
closed = 1;
nodes = (
(191,-8,o),
(250,12,o),
(302,52,cs),
(375,108,l),
(344,156,l),
(299,129,ls),
(264,108,o),
(229,97,o),
(203,97,cs),
(154,97,o),
(130,116,o),
(137,151,cs),
(142,178,o),
(160,198,o),
(201,209,cs),
(363,252,l),
(378,329,l),
(200,294,ls),
(96,274,o),
(29,223,o),
(12,137,cs),
(-7,39,o),
(63,-8,o),
(145,-8,cs)
);
},
{
closed = 1;
nodes = (
(476,283,l),
(483,323,ls),
(508,452,o),
(439,516,o),
(319,516,cs),
(262,516,o),
(204,504,o),
(132,480,cs),
(32,446,l),
(103,503,l),
(112,362,l),
(78,383,l),
(134,394,ls),
(175,402,o),
(222,408,o),
(265,408,cs),
(337,408,o),
(369,380,o),
(357,316,cs),
(338,218,l)
);
},
{
closed = 1;
nodes = (
(612,-8,o),
(671,4,o),
(730,30,cs),
(794,58,l),
(776,23,l),
(747,152,l),
(772,136,l),
(708,119,ls),
(668,108,o),
(628,102,o),
(594,102,cs),
(501,102,o),
(445,149,o),
(465,256,cs),
(483,347,o),
(543,409,o),
(625,409,cs),
(703,409,o),
(731,358,o),
(715,273,c),
(757,312,l),
(435,312,l),
(417,220,l),
(821,220,l),
(829,260,ls),
(858,408,o),
(798,516,o),
(646,516,cs),
(505,516,o),
(368,413,o),
(337,253,cs),
(304,84,o),
(411,-8,o),
(559,-8,cs)
);
}
);
};
layerId = "74CCE9C5-5564-42E0-9214-3BF0725DF94D";
shapes = (
{
closed = 1;
nodes = (
(199,-8,o),
(256,11,o),
(306,48,cs),
(381,102,l),
(355,162,l),
(297,129,ls),
(259,108,o),
(222,97,o),
(195,97,cs),
(156,97,o),
(130,116,o),
(138,152,cs),
(142,179,o),
(159,198,o),
(190,206,cs),
(363,252,l),
(378,324,l),
(176,290,ls),
(77,273,o),
(32,232,o),
(16,155,cs),
(-4,53,o),
(71,-8,o),
(154,-8,cs)
);
},
{
closed = 1;
nodes = (
(465,237,l),
(484,337,ls),
(504,443,o),
(440,516,o),
(314,516,cs),
(249,516,o),
(188,500,o),
(129,481,cs),
(8,442,l),
(98,503,l),
(118,362,l),
(77,383,l),
(134,394,ls),
(174,402,o),
(221,408,o),
(275,408,cs),
(341,408,o),
(369,378,o),
(359,327,cs),
(341,237,l)
);
},
{
closed = 1;
nodes = (
(615,-8,o),
(674,4,o),
(735,30,cs),
(799,58,l),
(777,23,l),
(744,152,l),
(772,136,l),
(708,119,ls),
(668,108,o),
(627,102,o),
(593,102,cs),
(493,102,o),
(445,149,o),
(468,271,cs),
(485,362,o),
(537,409,o),
(616,409,cs),
(694,409,o),
(730,352,o),
(715,273,c),
(757,312,l),
(435,312,l),
(417,220,l),
(821,220,l),
(829,261,ls),
(856,397,o),
(786,516,o),
(638,516,cs),
(496,516,o),
(376,434,o),
(345,270,cs),
(312,101,o),
(415,-8,o),
(562,-8,cs)
);
}
);
width = 862;
}
);
metricLeft = a;
metricRight = e;
unicode = 230;
},
{
color = 4;
glyphname = b;
kernLeft = h;
kernRight = o;
lastChange = "2021-09-30 23:32:11 +0000";
layers = (
{
background = {
shapes = (
{
angle = 180;
pos = (593,490);
ref = q;
}
);
};
guides = (
{
angle = 79;
pos = (498,66);
},
{
angle = 79;
pos = (457,42);
}
);
layerId = "13A5184A-77A5-4E03-80A5-A9198A2CA35F";
shapes = (
{
closed = 1;
nodes = (
(402,-6,o),
(508,89,o),
(534,228,cs),
(565,388,o),
(481,496,o),
(345,496,cs),
(309,496,o),
(271,488,o),
(210,466,cs),
(158,447,l),
(161,429,l),
(227,770,l),
(186,738,l),
(43,0,l),
(75,0,l),
(91,70,l),
(93,77,l),
(159,419,l),
(215,439,ls),
(259,455,o),
(302,463,o),
(339,463,cs),
(457,463,o),
(526,376,o),
(499,230,cs),
(475,110,o),
(387,27,o),
(259,27,cs),
(223,27,o),
(190,38,o),
(145,61,cs),
(85,95,l),
(79,68,l),
(127,36,ls),
(169,9,o),
(214,-6,o),
(263,-6,cs)
);
}
);
width = 592;
},
{
background = {
shapes = (
{
closed = 1;
nodes = (
(480,-9,o),
(597,101,o),
(628,263,cs),
(659,424,o),
(587,535,o),
(451,535,cs),
(410,535,o),
(358,524,o),
(322,508,cs),
(241,472,l),
(291,425,l),
(358,770,l),
(134,738,l),
(-9,0,l),
(149,0,l),
(196,100,l),
(234,136,l),
(275,345,l),
(298,351,ls),
(313,355,o),
(329,357,o),
(348,357,cs),
(405,357,o),
(423,329,o),
(410,263,cs),
(397,195,o),
(370,168,o),
(312,168,cs),
(294,168,o),
(274,173,o),
(258,181,cs),
(240,190,l),
(159,70,l),
(199,41,ls),
(245,7,o),
(292,-9,o),
(340,-9,cs)
);
}
);
};
guides = (
{
angle = 79;
pos = (676,494);
},
{
angle = 79;
pos = (487,641);
}
);
layerId = "6D60D92C-1450-4586-BB49-599D0D4C1213";
shapes = (
{
closed = 1;
nodes = (
(513,-9,o),
(603,118,o),
(628,245,cs),
(654,376,o),
(622,535,o),
(454,535,cs),
(418,535,o),
(365,526,o),
(325,508,cs),
(244,472,l),
(294,425,l),
(361,770,l),
(137,738,l),
(-6,0,l),
(152,0,l),
(199,100,l),
(237,136,l),
(278,345,l),
(301,351,ls),
(316,355,o),
(332,357,o),
(351,357,cs),
(402,357,o),
(426,331,o),
(412,258,cs),
(398,184,o),
(368,168,o),
(315,168,cs),
(299,168,o),
(278,172,o),
(261,181,cs),
(243,190,l),
(162,70,l),
(202,41,ls),
(245,10,o),
(297,-9,o),
(348,-9,cs)
);
}
);
width = 656;
},
{
background = {
shapes = (
{
closed = 1;
nodes = (
(441,-8,o),
(536,89,o),
(563,231,cs),
(592,376,o),
(518,516,o),
(349,516,cs),
(182,516,o),
(87,417,o),
(61,277,cs),
(30,119,o),
(122,-8,o),
(276,-8,cs)
);
},
{
closed = 1;
nodes = (
(218,107,o),
(166,159,o),
(187,268,cs),
(203,350,o),
(247,401,o),
(333,401,cs),
(421,401,o),
(454,326,o),
(437,240,cs),
(418,150,o),
(368,107,o),
(287,107,cs)
);
}
);
};
guides = (
{
angle = 79;
pos = (606,449);
},
{
angle = 79;
pos = (472,415);
}
);
layerId = "74CCE9C5-5564-42E0-9214-3BF0725DF94D";
shapes = (
{
closed = 1;
nodes = (
(427,-8,o),
(534,88,o),
(563,236,cs),
(597,398,o),
(522,516,o),
(390,516,cs),
(351,516,o),
(302,505,o),
(264,487,cs),
(188,453,l),
(230,427,l),
(297,770,l),
(165,738,l),
(21,0,l),
(117,0,l),
(150,93,l),
(169,114,l),
(221,375,l),
(256,387,ls),
(289,397,o),
(313,402,o),
(336,402,cs),
(417,402,o),
(458,345,o),
(438,246,cs),
(419,152,o),
(369,107,o),
(289,107,cs),
(257,107,o),
(231,115,o),
(208,132,cs),
(171,156,l),
(129,69,l),
(170,37,ls),
(207,9,o),
(250,-8,o),
(301,-8,cs)
);
}
);
width = 611;
}
);
metricLeft = n;
metricRight = o;
unicode = 98;
},
{
color = 4;
glyphname = c;
kernLeft = o;
kernRight = c;
lastChange = "2021-09-30 23:32:11 +0000";
layers = (
{
anchors = (
{
name = bottom;
pos = (249,-35);
},
{
name = top;
pos = (367,550);
}
);
background = {
shapes = (
{
closed = 1;
nodes = (
(295,-6,o),
(340,3,o),
(388,20,cs),
(443,40,l),
(427,15,l),
(411,69,l),
(436,65,l),
(378,47,ls),
(335,34,o),
(296,27,o),
(260,27,cs),
(127,27,o),
(67,114,o),
(93,255,cs),
(120,393,o),
(223,463,o),
(350,463,cs),
(384,463,o),
(421,458,o),
(467,444,cs),
(519,428,l),
(480,425,l),
(503,475,l),
(521,456,l),
(480,472,ls),
(441,487,o),
(394,496,o),
(352,496,cs),
(211,496,o),
(89,418,o),
(58,262,cs),
(27,107,o),
(100,-6,o),
(254,-6,cs)
);
}
);
};
guides = (
{
angle = 79;
pos = (94,469);
},
{
angle = 79;
pos = (132,478);
},
{
pos = (219,463);
}
);
layerId = "13A5184A-77A5-4E03-80A5-A9198A2CA35F";
shapes = (
{
closed = 1;
nodes = (
(295,-6,o),
(340,3,o),
(388,20,cs),
(443,40,l),
(427,15,l),
(409,69,l),
(436,65,l),
(378,47,ls),
(335,34,o),
(296,27,o),
(260,27,cs),
(127,27,o),
(67,114,o),
(93,255,cs),
(120,393,o),
(223,463,o),
(350,463,cs),
(384,463,o),
(421,458,o),
(467,444,cs),
(519,428,l),
(480,425,l),
(503,475,l),
(521,456,l),
(480,472,ls),
(441,487,o),
(394,496,o),
(352,496,cs),
(211,496,o),
(89,418,o),
(58,262,cs),
(27,107,o),
(100,-6,o),
(254,-6,cs)
);
}
);
width = 502;
},
{
anchors = (
{
name = bottom;
pos = (217,-35);
},
{
name = top;
pos = (371,550);
}
);
background = {
shapes = (
{
closed = 1;
nodes = (
(311,-9,o),
(363,1,o),
(417,19,cs),
(502,48,l),
(450,10,l),
(439,222,l),
(473,191,l),
(412,184,ls),
(369,179,o),
(346,177,o),
(325,177,cs),
(266,177,o),
(232,207,o),
(245,274,cs),
(256,334,o),
(289,357,o),
(359,357,cs),
(390,357,o),
(417,353,o),
(441,349,cs),
(509,338,l),
(448,304,l),
(541,516,l),
(587,482,l),
(511,510,ls),
(466,526,o),
(419,535,o),
(373,535,cs),
(202,535,o),
(63,456,o),
(29,281,cs),
(-5,104,o),
(99,-9,o),
(264,-9,cs)
);
}
);
};
guides = (
{
angle = 79;
pos = (70,496);
},
{
angle = 79;
pos = (310,615);
}
);
layerId = "6D60D92C-1450-4586-BB49-599D0D4C1213";
shapes = (
{
closed = 1;
nodes = (
(311,-9,o),
(363,1,o),
(417,19,cs),
(502,48,l),
(450,10,l),
(439,222,l),
(473,191,l),
(412,184,ls),
(369,179,o),
(346,177,o),
(325,177,cs),
(266,177,o),
(232,207,o),
(245,274,cs),
(256,334,o),
(289,357,o),
(359,357,cs),
(390,357,o),
(417,353,o),
(441,349,cs),
(509,338,l),
(448,304,l),
(541,516,l),
(587,477,l),
(503,510,ls),
(466,525,o),
(415,535,o),
(369,535,cs),
(194,535,o),
(62,453,o),
(29,281,cs),
(-5,104,o),
(99,-9,o),
(264,-9,cs)
);
}
);
width = 496;
},
{
anchors = (
{
name = bottom;
pos = (220,-35);
},
{
name = top;
pos = (348,550);
}
);
background = {
shapes = (
{
closed = 1;
nodes = (
(313,-8,o),
(353,0,o),
(408,17,cs),
(475,39,l),
(429,12,l),
(408,145,l),
(439,124,l),
(388,115,ls),
(354,110,o),
(319,107,o),
(293,107,cs),
(207,107,o),
(154,155,o),
(175,265,cs),
(193,352,o),
(249,400,o),
(347,400,cs),
(375,400,o),
(404,396,o),
(437,390,cs),
(496,378,l),
(457,362,l),
(505,497,l),
(527,472,l),
(484,487,ls),
(429,507,o),
(385,516,o),
(336,516,cs),
(191,516,o),
(79,433,o),
(48,270,cs),
(17,109,o),
(116,-8,o),
(269,-8,cs)
);
}
);
};
guides = (
{
angle = 79;
pos = (89,482);
},
{
angle = 79;
pos = (200,393);
},
{
pos = (209,107);
},
{
pos = (193,406);
},
{
pos = (193,389);
}
);
layerId = "74CCE9C5-5564-42E0-9214-3BF0725DF94D";
shapes = (
{
closed = 1;
nodes = (
(313,-8,o),
(353,0,o),
(408,17,cs),
(475,39,l),
(429,12,l),
(408,145,l),
(439,124,l),
(388,115,ls),
(354,110,o),
(319,107,o),
(293,107,cs),
(207,107,o),
(154,155,o),
(175,265,cs),
(192,352,o),
(251,406,o),
(346,406,cs),
(373,406,o),
(401,402,o),
(433,396,cs),
(491,384,l),
(457,362,l),
(505,497,l),
(527,473,l),
(484,488,ls),
(429,507,o),
(385,516,o),
(336,516,cs),
(191,516,o),
(79,433,o),
(48,270,cs),
(17,109,o),
(116,-8,o),
(269,-8,cs)
);
}
);
width = 492;
}
);
metricLeft = o;
unicode = 99;
},
{
color = 4;
glyphname = d;
kernLeft = o;
kernRight = d;
lastChange = "2021-09-30 23:32:11 +0000";
layers = (
{
anchors = (
{
name = caron;
pos = (826,410);
}
);
background = {
shapes = (
{
closed = 1;
nodes = (
(261,-9,o),
(313,10,o),
(366,41,cs),
(416,70,l),
(381,190,l),
(361,181,ls),
(342,172,o),
(323,168,o),
(308,168,cs),
(255,168,o),
(231,196,o),
(245,271,cs),
(259,344,o),
(290,357,o),
(341,357,cs),
(360,357,o),
(376,355,o),
(389,351,cs),
(410,345,l),
(369,136,l),
(393,100,l),
(402,0,l),
(560,0,l),
(710,770,l),
(486,738,l),
(426,425,l),
(494,472,l),
(421,508,ls),
(384,526,o),
(329,535,o),
(291,535,cs),
(225,535,o),
(162,510,o),
(111,457,cs),
(66,411,o),
(43,352,o),
(31,291,cs),
(5,160,o),
(46,-9,o),
(211,-9,cs)
);
}
);
};
guides = (
{
angle = 79;
pos = (63,464);
}
);
layerId = "6D60D92C-1450-4586-BB49-599D0D4C1213";
shapes = (
{
closed = 1;
nodes = (
(261,-9,o),
(313,10,o),
(366,41,cs),
(416,70,l),
(381,190,l),
(361,181,ls),
(342,172,o),
(323,168,o),
(308,168,cs),
(255,168,o),
(231,196,o),
(245,271,cs),
(259,344,o),
(290,357,o),
(341,357,cs),
(360,357,o),
(376,355,o),
(389,351,cs),
(410,345,l),
(369,136,l),
(393,100,l),
(402,0,l),
(560,0,l),
(710,770,l),
(486,738,l),
(426,425,l),
(494,472,l),
(421,508,ls),
(384,526,o),
(329,535,o),
(291,535,cs),
(157,535,o),
(60,436,o),
(31,291,cs),
(5,160,o),
(46,-9,o),
(211,-9,cs)
);
}
);
width = 656;
},
{
anchors = (
{
name = caron;
pos = (668,413);
}
);
background = {
shapes = (
{
closed = 1;
nodes = (
(291,-6,o),
(339,9,o),
(393,36,cs),
(440,61,l),
(437,84,l),
(382,61,ls),
(328,38,o),
(290,27,o),
(252,27,cs),
(131,27,o),
(64,121,o),
(92,260,cs),
(116,378,o),
(203,463,o),
(337,463,cs),
(374,463,o),
(410,453,o),
(456,431,cs),
(499,410,l),
(436,81,l),
(435,67,l),
(430,0,l),
(456,0,l),
(604,770,l),
(563,738,l),
(502,428,l),
(512,433,l),
(474,455,ls),
(431,480,o),
(388,496,o),
(338,496,cs),
(258,496,o),
(188,466,o),
(139,417,cs),
(100,379,o),
(70,328,o),
(59,266,cs),
(28,112,o),
(100,-6,o),
(243,-6,cs)
);
}
);
};
guides = (
{
angle = 79;
pos = (92,461);
},
{
angle = 79;
pos = (139,446);
}
);
layerId = "13A5184A-77A5-4E03-80A5-A9198A2CA35F";
shapes = (
{
closed = 1;
nodes = (
(291,-6,o),
(339,9,o),
(393,36,cs),
(440,61,l),
(437,84,l),
(382,61,ls),
(328,38,o),
(290,27,o),
(252,27,cs),
(131,27,o),
(64,121,o),
(92,260,cs),
(116,378,o),
(203,463,o),
(337,463,cs),
(374,463,o),
(410,453,o),
(456,431,cs),
(499,410,l),
(436,81,l),
(435,67,l),
(430,0,l),
(456,0,l),
(604,770,l),
(563,738,l),
(502,428,l),
(512,433,l),
(474,455,ls),
(431,480,o),
(388,496,o),
(338,496,cs),
(199,496,o),
(85,404,o),
(59,266,cs),
(28,112,o),
(100,-6,o),
(243,-6,cs)
);
}
);
width = 594;
},
{
anchors = (
{
name = caron;
pos = (729,413);
}
);
background = {
shapes = (
{
closed = 1;
nodes = (
(269,-8,o),
(322,11,o),
(370,41,cs),
(413,69,l),
(404,156,l),
(357,131,ls),
(330,116,o),
(301,107,o),
(273,107,cs),
(192,107,o),
(154,158,o),
(175,263,cs),
(193,360,o),
(249,401,o),
(317,401,cs),
(347,401,o),
(378,390,o),
(400,382,cs),
(439,367,l),
(390,114,l),
(401,93,l),
(398,0,l),
(494,0,l),
(644,770,l),
(510,738,l),
(451,427,l),
(489,455,l),
(437,481,ls),
(385,506,o),
(341,516,o),
(299,516,cs),
(237,516,o),
(173,488,o),
(126,435,cs),
(84,389,o),
(61,333,o),
(49,274,cs),
(22,137,o),
(69,-8,o),
(226,-8,cs)
);
}
);
};
guides = (
{
angle = 79;
pos = (83,451);
},
{
angle = 79;
pos = (206,420);
}
);
layerId = "74CCE9C5-5564-42E0-9214-3BF0725DF94D";
shapes = (
{
closed = 1;
nodes = (
(269,-8,o),
(322,11,o),
(370,41,cs),
(413,69,l),
(404,156,l),
(357,131,ls),
(330,116,o),
(301,107,o),
(273,107,cs),
(192,107,o),
(154,158,o),
(175,263,cs),
(193,360,o),
(249,401,o),
(317,401,cs),
(347,401,o),
(378,390,o),
(400,382,cs),
(439,367,l),
(390,114,l),
(401,93,l),
(398,0,l),
(494,0,l),
(644,770,l),
(510,738,l),
(451,427,l),
(489,455,l),
(437,481,ls),
(385,506,o),
(341,516,o),
(299,516,cs),
(173,516,o),
(76,412,o),
(49,274,cs),
(22,137,o),
(69,-8,o),
(226,-8,cs)
);
}
);
width = 614;
}
);
metricLeft = o;
metricRight = "=|n";
unicode = 100;
},
{
color = 9;
glyphname = eth;
kernLeft = eth;
kernRight = eth;
lastChange = "2023-04-22 04:17:55 +0000";
layers = (
{
background = {
shapes = (
{
closed = 1;
nodes = (
(593,740,l),
(577,764,l),
(287,548,l),
(303,524,l)
);
},
{
closed = 1;
nodes = (
(322,-6,o),
(462,65,o),
(505,286,cs),
(549,513,o),
(544,617,o),
(370,737,cs),
(330,765,l),
(307,738,l),
(346,709,ls),
(505,591,o),
(512,514,o),
(468,286,cs),
(430,89,o),
(313,25,o),
(205,25,cs),
(115,25,o),
(52,100,o),
(75,219,cs),
(96,330,o),
(188,429,o),
(314,429,cs),
(350,429,o),
(382,418,o),
(426,395,cs),
(488,363,l),
(502,387,l),
(447,421,ls),
(406,446,o),
(362,462,o),
(314,462,cs),
(178,462,o),
(66,358,o),
(39,221,cs),
(14,92,o),
(81,-6,o),
(202,-6,cs)
);
}
);
};
layerId = "13A5184A-77A5-4E03-80A5-A9198A2CA35F";
shapes = (
{
closed = 1;
nodes = (
(596,738,l),
(577,764,l),
(287,548,l),
(306,522,l)
);
},
{
ref = partialdiff;
}
);
width = 565;
},
{
background = {
shapes = (
{
closed = 1;
nodes = (
(380,580,l),
(470,492,l),
(664,682,l),
(573,770,l)
);
},
{
closed = 1;
nodes = (
(342,290,o),
(363,287,o),
(380,282,cs),
(431,266,l),
(411,313,l),
(391,212,o),
(354,165,o),
(291,165,cs),
(244,165,o),
(222,178,o),
(231,226,cs),
(241,277,o),
(270,290,o),
(319,290,cs)
);
},
{
closed = 1;
nodes = (
(153,464,o),
(42,372,o),
(15,229,cs),
(-12,84,o),
(70,-9,o),
(243,-9,cs),
(398,-9,o),
(569,76,o),
(615,313,cs),
(657,527,o),
(614,619,o),
(368,734,cs),
(302,765,l),
(190,622,l),
(258,579,ls),
(377,504,o),
(421,453,o),
(424,395,c),
(437,415,l),
(393,439,ls),
(364,455,o),
(330,464,o),
(295,464,cs)
);
}
);
};
layerId = "6D60D92C-1450-4586-BB49-599D0D4C1213";
shapes = (
{
closed = 1;
nodes = (
(656,666,l),
(558,765,l),
(277,472,l),
(374,373,l)
);
},
{
ref = partialdiff;
}
);
width = 636;
},
{
background = {
shapes = (
{
closed = 1;
nodes = (
(609,703,l),
(554,766,l),
(386,624,l),
(443,563,l)
);
}
);
};
layerId = "74CCE9C5-5564-42E0-9214-3BF0725DF94D";
shapes = (
{
closed = 1;
nodes = (
(609,697,l),
(549,766,l),
(291,548,l),
(354,481,l)
);
},
{
ref = partialdiff;
}
);
width = 600;
},
{
associatedMasterId = "13A5184A-77A5-4E03-80A5-A9198A2CA35F";
attr = {
axisRules = (
{
max = 445;
min = 308;
}
);
};
layerId = "CA0F0F05-F88E-4326-9DE1-0833810F0EEB";
shapes = (
{
ref = eth.bold;
}
);
width = 565;
},
{
associatedMasterId = "74CCE9C5-5564-42E0-9214-3BF0725DF94D";
attr = {
axisRules = (
{
max = 445;
min = 308;
}
);
};
layerId = "C963382E-075F-4B97-88DB-66D1B76BA0C9";
shapes = (
{
ref = eth.bold;
}
);
width = 600;
},
{
associatedMasterId = "6D60D92C-1450-4586-BB49-599D0D4C1213";
attr = {
axisRules = (
{
max = 445;
min = 308;
}
);
};
layerId = "20C52C85-777F-4DB7-B457-23A83FADA86B";
shapes = (
{
ref = eth.bold;
}
);
width = 636;
}
);
metricLeft = partialdiff;
metricRight = partialdiff;
unicode = 240;
},
{
color = 3;
glyphname = dcroat;
kernLeft = o;
lastChange = "2021-09-30 23:32:10 +0000";
layers = (
{
background = {
shapes = (
{
closed = 1;
nodes = (
(291,-6,o),
(339,9,o),
(393,36,cs),
(440,61,l),
(437,84,l),
(382,61,ls),
(328,38,o),
(290,27,o),
(252,27,cs),
(137,27,o),
(68,125,o),
(96,260,cs),
(119,377,o),
(208,463,o),
(337,463,cs),
(374,463,o),
(410,453,o),
(456,431,cs),
(499,410,l),
(436,81,l),
(435,67,l),
(430,0,l),
(456,0,l),
(604,770,l),
(563,738,l),
(502,428,l),
(512,433,l),
(474,455,ls),
(431,480,o),
(388,496,o),
(338,496,cs),
(258,496,o),
(188,466,o),
(139,417,cs),
(100,379,o),
(70,328,o),
(59,266,cs),
(29,119,o),
(104,-6,o),
(243,-6,cs)
);
},
{
closed = 1;
nodes = (
(673,591,l),
(680,624,l),
(332,624,l),
(326,591,l)
);
}
);
};
layerId = "13A5184A-77A5-4E03-80A5-A9198A2CA35F";
shapes = (
{
closed = 1;
nodes = (
(291,-6,o),
(339,9,o),
(393,36,cs),
(440,61,l),
(437,84,l),
(382,61,ls),
(328,38,o),
(290,27,o),
(252,27,cs),
(137,27,o),
(68,125,o),
(96,260,cs),
(119,377,o),
(208,463,o),
(337,463,cs),
(374,463,o),
(410,453,o),
(456,431,cs),
(499,410,l),
(436,81,l),
(435,67,l),
(430,0,l),
(456,0,l),
(604,770,l),
(563,738,l),
(502,428,l),
(512,433,l),
(474,455,ls),
(431,480,o),
(388,496,o),
(338,496,cs),
(199,496,o),
(85,404,o),
(59,266,cs),
(29,119,o),
(104,-6,o),
(243,-6,cs)
);
},
{
closed = 1;
nodes = (
(673,591,l),
(680,624,l),
(332,624,l),
(326,591,l)
);
}
);
width = 611;
},
{
background = {
shapes = (
{
closed = 1;
nodes = (
(260,-9,o),
(312,10,o),
(365,41,cs),
(415,70,l),
(380,185,l),
(360,178,ls),
(341,171,o),
(322,168,o),
(307,168,cs),
(254,168,o),
(228,190,o),
(239,249,cs),
(249,297,o),
(283,318,o),
(333,318,cs),
(348,318,o),
(366,315,o),
(383,310,cs),
(404,304,l),
(368,136,l),
(392,100,l),
(401,0,l),
(559,0,l),
(709,770,l),
(485,738,l),
(425,425,l),
(485,432,l),
(425,462,ls),
(381,483,o),
(334,495,o),
(287,495,cs),
(221,495,o),
(157,473,o),
(105,423,cs),
(61,380,o),
(37,325,o),
(26,269,cs),
(3,148,o),
(43,-9,o),
(210,-9,cs)
);
},
{
closed = 1;
nodes = (
(728,544,l),
(754,679,l),
(297,679,l),
(271,544,l)
);
}
);
};
guides = (
{
pos = (278,495);
},
{
angle = 79;
pos = (59,438);
},
{
angle = 79;
pos = (271,438);
},
{
angle = 79;
pos = (272,417);
},
{
angle = 79;
pos = (347,391);
}
);
layerId = "6D60D92C-1450-4586-BB49-599D0D4C1213";
shapes = (
{
closed = 1;
nodes = (
(260,-9,o),
(312,10,o),
(365,41,cs),
(415,70,l),
(380,185,l),
(360,178,ls),
(341,171,o),
(322,168,o),
(307,168,cs),
(254,168,o),
(228,190,o),
(239,249,cs),
(249,297,o),
(283,318,o),
(333,318,cs),
(348,318,o),
(366,315,o),
(383,310,cs),
(404,304,l),
(368,136,l),
(392,100,l),
(401,0,l),
(559,0,l),
(709,770,l),
(485,738,l),
(425,425,l),
(485,432,l),
(425,462,ls),
(381,483,o),
(334,495,o),
(287,495,cs),
(154,495,o),
(53,407,o),
(26,269,cs),
(3,148,o),
(43,-9,o),
(210,-9,cs)
);
},
{
closed = 1;
nodes = (
(728,544,l),
(754,679,l),
(297,679,l),
(271,544,l)
);
}
);
width = 678;
},
{
background = {
shapes = (
{
closed = 1;
nodes = (
(272,-8,o),
(321,11,o),
(369,41,cs),
(412,69,l),
(403,146,l),
(355,126,ls),
(327,114,o),
(298,107,o),
(270,107,cs),
(190,107,o),
(155,158,o),
(173,253,cs),
(191,346,o),
(237,382,o),
(310,382,cs),
(338,382,o),
(374,371,o),
(396,363,cs),
(435,348,l),
(389,114,l),
(400,93,l),
(397,0,l),
(493,0,l),
(643,770,l),
(509,738,l),
(450,427,l),
(479,435,l),
(425,461,ls),
(375,486,o),
(331,496,o),
(289,496,cs),
(228,496,o),
(169,472,o),
(122,421,cs),
(80,377,o),
(58,320,o),
(47,263,cs),
(22,136,o),
(77,-8,o),
(230,-8,cs)
);
},
{
closed = 1;
nodes = (
(687,568,l),
(704,652,l),
(300,652,l),
(284,568,l)
);
}
);
};
guides = (
{
angle = 79;
pos = (107,575);
},
{
angle = 79;
pos = (234,568);
},
{
angle = 79;
pos = (246,280);
},
{
angle = 79;
pos = (289,280);
},
{
angle = 79;
pos = (306,280);
},
{
pos = (109,496);
},
{
pos = (198,382);
}
);
layerId = "74CCE9C5-5564-42E0-9214-3BF0725DF94D";
shapes = (
{
closed = 1;
nodes = (
(272,-8,o),
(321,11,o),
(369,41,cs),
(412,69,l),
(403,146,l),
(355,126,ls),
(327,114,o),
(298,107,o),
(270,107,cs),
(190,107,o),
(155,158,o),
(173,253,cs),
(191,346,o),
(237,382,o),
(310,382,cs),
(338,382,o),
(374,371,o),
(396,363,cs),
(435,348,l),
(389,114,l),
(400,93,l),
(397,0,l),
(493,0,l),
(643,770,l),
(509,738,l),
(450,427,l),
(479,435,l),
(425,461,ls),
(375,486,o),
(331,496,o),
(289,496,cs),
(165,496,o),
(71,399,o),
(47,263,cs),
(22,136,o),
(77,-8,o),
(230,-8,cs)
);
},
{
closed = 1;
nodes = (
(687,568,l),
(704,652,l),
(300,652,l),
(284,568,l)
);
}
);
width = 632;
}
);
metricLeft = d;
metricRight = "=|hbar";
unicode = 273;
},
{
color = 4;
glyphname = e;
kernLeft = o;
kernRight = e;
lastChange = "2023-04-14 00:02:36 +0000";
layers = (
{
anchors = (
{
name = bottom;
pos = (272,-35);
},
{
name = ogonek;
pos = (362,10);
},
{
name = top;
pos = (384,550);
}
);
background = {
shapes = (
{
closed = 1;
nodes = (
(347,-9,o),
(424,6,o),
(504,39,cs),
(594,77,l),
(546,28,l),
(506,222,l),
(542,181,l),
(460,165,ls),
(415,156,o),
(375,151,o),
(342,151,cs),
(247,151,o),
(220,181,o),
(239,279,cs),
(256,368,o),
(286,392,o),
(351,392,cs),
(402,392,o),
(424,361,o),
(410,291,c),
(455,321,l),
(204,321,l),
(183,210,l),
(580,210,l),
(588,255,ls),
(621,428,o),
(536,535,o),
(370,535,cs),
(217,535,o),
(62,458,o),
(28,276,cs),
(-6,101,o),
(108,-9,o),
(277,-9,cs)
);
}
);
};
guides = (
{
angle = 79;
pos = (66,476);
},
{
angle = 79;
pos = (638,464);
},
{
angle = 79;
pos = (265,418);
}
);
layerId = "6D60D92C-1450-4586-BB49-599D0D4C1213";
shapes = (
{
closed = 1;
nodes = (
(347,-9,o),
(424,6,o),
(504,39,cs),
(541,54,l),
(516,176,l),
(460,165,ls),
(415,156,o),
(375,151,o),
(342,151,cs),
(275,151,o),
(241,166,o),
(235,210,c),
(580,210,l),
(588,255,ls),
(621,428,o),
(536,535,o),
(370,535,cs),
(217,535,o),
(62,458,o),
(28,276,cs),
(-6,101,o),
(108,-9,o),
(277,-9,cs)
);
},
{
closed = 1;
nodes = (
(268,376,o),
(298,392,o),
(351,392,cs),
(394,392,o),
(416,370,o),
(414,321,c),
(250,321,l)
);
}
);
width = 605;
},
{
anchors = (
{
name = bottom;
pos = (255,-35);
},
{
name = ogonek;
pos = (281,10);
},
{
name = top;
pos = (347,550);
}
);
background = {
shapes = (
{
closed = 1;
nodes = (
(306,-6,o),
(361,8,o),
(407,27,cs),
(458,48,l),
(443,18,l),
(422,81,l),
(451,72,l),
(398,53,ls),
(353,37,o),
(309,27,o),
(264,27,cs),
(143,27,o),
(65,109,o),
(94,259,cs),
(120,391,o),
(219,463,o),
(329,463,cs),
(444,463,o),
(490,380,o),
(466,258,c),
(492,280,l),
(73,280,l),
(67,248,l),
(498,248,l),
(502,269,ls),
(525,386,o),
(472,496,o),
(331,496,cs),
(188,496,o),
(83,396,o),
(57,257,cs),
(25,93,o),
(125,-6,o),
(259,-6,cs)
);
}
);
};
guides = (
{
angle = 79;
pos = (86,428);
},
{
angle = 79;
pos = (123,428);
}
);
layerId = "13A5184A-77A5-4E03-80A5-A9198A2CA35F";
shapes = (
{
closed = 1;
nodes = (
(306,-6,o),
(361,8,o),
(407,27,cs),
(436,39,l),
(428,64,l),
(398,53,ls),
(353,37,o),
(309,27,o),
(264,27,cs),
(146,27,o),
(69,105,o),
(92,248,c),
(498,248,l),
(502,269,ls),
(525,386,o),
(472,496,o),
(331,496,cs),
(188,496,o),
(83,396,o),
(57,257,cs),
(25,93,o),
(125,-6,o),
(259,-6,cs)
);
},
{
closed = 1;
nodes = (
(131,399,o),
(225,463,o),
(329,463,cs),
(437,463,o),
(484,390,o),
(470,280,c),
(99,280,l)
);
}
);
width = 547;
},
{
anchors = (
{
name = bottom;
pos = (264,-35);
},
{
name = ogonek;
pos = (334,10);
},
{
name = top;
pos = (351,550);
}
);
background = {
shapes = (
{
closed = 1;
nodes = (
(321,-8,o),
(381,4,o),
(442,30,cs),
(507,58,l),
(485,23,l),
(453,152,l),
(480,136,l),
(417,119,ls),
(376,108,o),
(335,102,o),
(301,102,cs),
(202,102,o),
(153,149,o),
(176,271,cs),
(194,362,o),
(246,409,o),
(325,409,cs),
(402,409,o),
(439,352,o),
(423,273,c),
(465,312,l),
(144,312,l),
(126,220,l),
(529,220,l),
(538,261,ls),
(564,397,o),
(495,516,o),
(345,516,cs),
(202,516,o),
(81,434,o),
(48,270,cs),
(16,101,o),
(120,-8,o),
(268,-8,cs)
);
}
);
};
guides = (
{
angle = 79;
pos = (96,516);
},
{
angle = 79;
pos = (201,401);
}
);
layerId = "74CCE9C5-5564-42E0-9214-3BF0725DF94D";
shapes = (
{
closed = 1;
nodes = (
(321,-8,o),
(381,4,o),
(442,30,cs),
(479,46,l),
(458,130,l),
(417,119,ls),
(376,108,o),
(335,102,o),
(301,102,cs),
(217,102,o),
(169,136,o),
(170,220,c),
(529,220,l),
(538,261,ls),
(564,397,o),
(495,516,o),
(345,516,cs),
(202,516,o),
(81,434,o),
(48,270,cs),
(16,101,o),
(120,-8,o),
(268,-8,cs)
);
},
{
closed = 1;
nodes = (
(212,376,o),
(259,409,o),
(325,409,cs),
(389,409,o),
(425,370,o),
(427,312,c),
(187,312,l)
);
}
);
width = 571;
}
);
metricLeft = o;
unicode = 101;
},
{
color = 4;
glyphname = f;
kernLeft = f;
kernRight = f;
lastChange = "2021-09-30 22:27:23 +0000";
layers = (
{
background = {
shapes = (
{
closed = 1;
nodes = (
(101,0,l),
(189,457,l),
(382,457,l),
(389,490,l),
(196,490,l),
(220,613,ls),
(235,690,o),
(280,723,o),
(366,723,cs),
(388,723,o),
(411,720,o),
(436,716,cs),
(470,710,l),
(449,705,l),
(466,748,l),
(474,735,l),
(448,743,ls),
(424,751,o),
(393,756,o),
(365,756,cs),
(269,756,o),
(204,710,o),
(187,621,cs),
(161,490,l),
(46,480,l),
(41,457,l),
(154,457,l),
(66,0,l)
);
}
);
};
layerId = "13A5184A-77A5-4E03-80A5-A9198A2CA35F";
shapes = (
{
closed = 1;
nodes = (
(101,0,l),
(189,457,l),
(382,457,l),
(389,490,l),
(196,490,l),
(220,613,ls),
(235,690,o),
(280,723,o),
(366,723,cs),
(388,723,o),
(411,720,o),
(436,716,cs),
(470,710,l),
(449,705,l),
(466,748,l),
(474,735,l),
(448,743,ls),
(424,751,o),
(393,756,o),
(365,756,cs),
(265,756,o),
(204,712,o),
(188,626,cs),
(161,490,l),
(46,480,l),
(41,457,l),
(154,457,l),
(66,0,l)
);
}
);
width = 360;
},
{
background = {
shapes = (
{
closed = 1;
nodes = (
(286,0,l),
(355,358,l),
(504,358,l),
(537,525,l),
(389,525,l),
(396,563,ls),
(401,589,o),
(421,601,o),
(475,601,cs),
(489,601,o),
(506,599,o),
(527,597,cs),
(575,591,l),
(535,568,l),
(616,779,l),
(654,722,l),
(585,742,ls),
(535,756,o),
(487,765,o),
(441,765,cs),
(312,765,o),
(208,715,o),
(182,582,cs),
(171,525,l),
(60,491,l),
(34,358,l),
(138,358,l),
(69,0,l)
);
}
);
};
layerId = "6D60D92C-1450-4586-BB49-599D0D4C1213";
shapes = (
{
closed = 1;
nodes = (
(286,0,l),
(355,358,l),
(504,358,l),
(537,525,l),
(389,525,l),
(396,563,ls),
(401,589,o),
(421,601,o),
(475,601,cs),
(489,601,o),
(506,599,o),
(527,597,cs),
(575,591,l),
(535,568,l),
(616,779,l),
(654,717,l),
(585,738,ls),
(535,753,o),
(475,765,o),
(429,765,cs),
(289,765,o),
(206,719,o),
(183,592,cs),
(171,525,l),
(60,491,l),
(34,358,l),
(138,358,l),
(69,0,l)
);
}
);
width = 511;
},
{
background = {
shapes = (
{
closed = 1;
nodes = (
(197,0,l),
(274,398,l),
(428,398,l),
(450,508,l),
(296,508,l),
(309,576,ls),
(319,628,o),
(356,647,o),
(413,647,cs),
(429,647,o),
(447,644,o),
(468,641,cs),
(504,635,l),
(464,594,l),
(526,764,l),
(550,730,l),
(506,743,ls),
(470,754,o),
(431,761,o),
(397,761,cs),
(293,761,o),
(210,713,o),
(187,594,cs),
(170,508,l),
(56,486,l),
(38,398,l),
(148,398,l),
(71,0,l)
);
}
);
};
layerId = "74CCE9C5-5564-42E0-9214-3BF0725DF94D";
shapes = (
{
closed = 1;
nodes = (
(197,0,l),
(274,398,l),
(428,398,l),
(450,508,l),
(296,508,l),
(310,580,ls),
(319,628,o),
(342,647,o),
(406,647,cs),
(422,647,o),
(447,644,o),
(468,640,cs),
(504,633,l),
(464,594,l),
(526,764,l),
(550,725,l),
(491,742,ls),
(465,750,o),
(417,761,o),
(381,761,cs),
(277,761,o),
(211,716,o),
(191,617,cs),
(170,508,l),
(56,486,l),
(38,398,l),
(148,398,l),
(71,0,l)
);
}
);
width = 425;
}
);
unicode = 102;
},
{
color = 4;
glyphname = g;
kernLeft = o;
kernRight = u;
lastChange = "2021-09-30 23:32:11 +0000";
layers = (
{
anchors = (
{
name = top;
pos = (354,550);
}
);
background = {
shapes = (
{
closed = 1;
nodes = (
(339,-209,o),
(422,-167,o),
(445,-47,cs),
(549,490,l),
(520,490,l),
(502,429,l),
(501,423,l),
(412,-41,l),
(392,-145,o),
(324,-176,o),
(207,-176,cs),
(165,-176,o),
(110,-170,o),
(67,-161,cs),
(18,-150,l),
(42,-133,l),
(19,-191,l),
(3,-175,l),
(56,-189,ls),
(97,-200,o),
(160,-209,o),
(201,-209,cs)
);
},
{
closed = 1;
nodes = (
(291,-6,o),
(339,9,o),
(393,36,cs),
(440,61,l),
(437,84,l),
(382,61,ls),
(328,38,o),
(290,27,o),
(252,27,cs),
(137,27,o),
(68,125,o),
(96,260,cs),
(119,377,o),
(206,463,o),
(337,463,cs),
(374,463,o),
(410,452,o),
(456,431,cs),
(502,409,l),
(513,433,l),
(464,460,ls),
(416,487,o),
(362,496,o),
(325,496,cs),
(257,496,o),
(195,473,o),
(142,423,cs),
(96,380,o),
(70,324,o),
(59,266,cs),
(29,119,o),
(104,-6,o),
(243,-6,cs)
);
}
);
};
layerId = "13A5184A-77A5-4E03-80A5-A9198A2CA35F";
shapes = (
{
closed = 1;
nodes = (
(339,-209,o),
(422,-167,o),
(445,-47,cs),
(549,490,l),
(520,490,l),
(502,429,l),
(501,423,l),
(412,-41,l),
(392,-145,o),
(324,-176,o),
(207,-176,cs),
(165,-176,o),
(110,-170,o),
(67,-161,cs),
(18,-150,l),
(42,-133,l),
(19,-191,l),
(3,-175,l),
(56,-189,ls),
(97,-200,o),
(160,-209,o),
(201,-209,cs)
);
},
{
closed = 1;
nodes = (
(291,-6,o),
(339,9,o),
(393,36,cs),
(440,61,l),
(437,84,l),
(382,61,ls),
(328,38,o),
(290,27,o),
(252,27,cs),
(137,27,o),
(68,125,o),
(96,260,cs),
(119,377,o),
(206,463,o),
(337,463,cs),
(374,463,o),
(410,452,o),
(456,431,cs),
(502,409,l),
(513,433,l),
(464,460,ls),
(416,487,o),
(362,496,o),
(325,496,cs),
(192,496,o),
(87,406,o),
(59,266,cs),
(29,119,o),
(104,-6,o),
(243,-6,cs)
);
}
);
width = 592;
},
{
anchors = (
{
name = top;
pos = (378,550);
}
);
background = {
shapes = (
{
closed = 1;
nodes = (
(398,-209,o),
(532,-148,o),
(565,28,cs),
(662,525,l),
(503,525,l),
(457,425,l),
(418,389,l),
(348,20,ls),
(339,-24,o),
(291,-37,o),
(229,-37,cs),
(188,-37,o),
(141,-31,o),
(96,-25,cs),
(28,-16,l),
(80,38,l),
(-17,-195,l),
(-54,-158,l),
(35,-182,ls),
(97,-200,o),
(163,-209,o),
(224,-209,cs)
);
},
{
closed = 1;
nodes = (
(264,28,o),
(317,45,o),
(372,75,cs),
(421,103,l),
(386,216,l),
(366,210,ls),
(346,203,o),
(326,199,o),
(311,199,cs),
(259,199,o),
(236,228,o),
(249,291,cs),
(261,356,o),
(288,369,o),
(339,369,cs),
(358,369,o),
(376,366,o),
(399,361,cs),
(439,352,l),
(499,480,l),
(443,503,ls),
(389,526,o),
(333,535,o),
(291,535,cs),
(158,535,o),
(61,439,o),
(32,296,cs),
(7,173,o),
(55,28,o),
(213,28,cs)
);
}
);
};
guides = (
{
angle = 79;
pos = (-12,78);
},
{
angle = 79;
pos = (217,135);
},
{
pos = (87,-170);
}
);
layerId = "6D60D92C-1450-4586-BB49-599D0D4C1213";
shapes = (
{
closed = 1;
nodes = (
(398,-209,o),
(532,-148,o),
(565,28,cs),
(662,525,l),
(503,525,l),
(457,425,l),
(418,389,l),
(348,20,ls),
(339,-24,o),
(291,-37,o),
(229,-37,cs),
(188,-37,o),
(141,-31,o),
(96,-25,cs),
(28,-16,l),
(80,38,l),
(-17,-195,l),
(-40,-158,l),
(43,-182,ls),
(103,-200,o),
(166,-209,o),
(224,-209,cs)
);
},
{
closed = 1;
nodes = (
(264,28,o),
(317,45,o),
(372,75,cs),
(421,103,l),
(386,216,l),
(366,210,ls),
(346,203,o),
(326,199,o),
(311,199,cs),
(259,199,o),
(236,228,o),
(249,291,cs),
(261,356,o),
(288,369,o),
(339,369,cs),
(358,369,o),
(376,366,o),
(399,361,cs),
(439,352,l),
(499,480,l),
(443,503,ls),
(389,526,o),
(333,535,o),
(291,535,cs),
(158,535,o),
(61,439,o),
(32,296,cs),
(7,173,o),
(55,28,o),
(213,28,cs)
);
}
);
width = 656;
},
{
anchors = (
{
name = top;
pos = (374,550);
}
);
associatedMasterId = "13A5184A-77A5-4E03-80A5-A9198A2CA35F";
background = {
shapes = (
{
closed = 1;
nodes = (
(424,-33,ls),
(404,-137,o),
(336,-168,o),
(220,-168,cs),
(177,-168,o),
(123,-162,o),
(80,-153,cs),
(30,-142,l),
(55,-125,l),
(31,-183,l),
(16,-167,l),
(68,-181,ls),
(109,-192,o),
(172,-201,o),
(213,-201,cs),
(352,-201,o),
(435,-159,o),
(458,-39,cs),
(560,490,l),
(531,490,l),
(513,429,l),
(512,422,l)
);
},
{
closed = 1;
nodes = (
(525,450,l),
(464,473,ls),
(427,487,o),
(388,496,o),
(350,496,cs),
(206,496,o),
(97,406,o),
(68,259,cs),
(40,116,o),
(118,-6,o),
(257,-6,cs),
(314,-6,o),
(389,19,o),
(457,88,c),
(461,121,l),
(404,62,o),
(312,27,o),
(263,27,cs),
(135,27,o),
(81,133,o),
(106,258,cs),
(133,393,o),
(230,464,o),
(350,464,cs),
(382,464,o),
(414,457,o),
(445,446,cs),
(515,421,l)
);
}
);
};
layerId = "E9963A18-2978-45B0-B2F8-2B3AB45DD2E5";
name = "May 6 18, 11:23";
shapes = (
{
closed = 1;
nodes = (
(424,-33,ls),
(404,-137,o),
(336,-168,o),
(220,-168,cs),
(177,-168,o),
(123,-162,o),
(80,-153,cs),
(30,-142,l),
(55,-125,l),
(31,-183,l),
(16,-167,l),
(68,-181,ls),
(109,-192,o),
(172,-201,o),
(213,-201,cs),
(352,-201,o),
(435,-159,o),
(458,-39,cs),
(560,490,l),
(531,490,l),
(513,429,l),
(512,422,l)
);
},
{
closed = 1;
nodes = (
(525,450,l),
(464,473,ls),
(427,487,o),
(388,496,o),
(350,496,cs),
(206,496,o),
(97,406,o),
(68,259,cs),
(40,116,o),
(118,-6,o),
(257,-6,cs),
(314,-6,o),
(389,19,o),
(457,88,c),
(461,121,l),
(404,62,o),
(312,27,o),
(263,27,cs),
(135,27,o),
(81,133,o),
(106,258,cs),
(133,393,o),
(230,464,o),
(350,464,cs),
(382,464,o),
(414,457,o),
(445,446,cs),
(515,421,l)
);
}
);
width = 608;
},
{
anchors = (
{
name = top;
pos = (349,550);
}
);
background = {
shapes = (
{
closed = 1;
nodes = (
(361,-209,o),
(464,-150,o),
(495,3,cs),
(592,508,l),
(500,508,l),
(465,422,l),
(445,400,l),
(367,-5,ls),
(354,-73,o),
(302,-93,o),
(230,-93,cs),
(175,-93,o),
(126,-87,o),
(88,-80,cs),
(30,-69,l),
(68,-48,l),
(12,-193,l),
(-13,-163,l),
(51,-183,ls),
(101,-199,o),
(162,-209,o),
(222,-209,cs)
);
},
{
closed = 1;
nodes = (
(262,20,o),
(306,30,o),
(346,47,cs),
(418,77,l),
(399,160,l),
(361,148,ls),
(334,139,o),
(307,135,o),
(281,135,cs),
(196,135,o),
(161,194,o),
(179,281,cs),
(195,361,o),
(249,401,o),
(322,401,cs),
(348,401,o),
(375,393,o),
(399,381,cs),
(445,358,l),
(485,440,l),
(438,472,ls),
(391,503,o),
(341,516,o),
(299,516,cs),
(237,516,o),
(179,493,o),
(128,444,cs),
(85,402,o),
(64,347,o),
(52,290,cs),
(22,137,o),
(90,20,o),
(226,20,cs)
);
}
);
};
guides = (
{
angle = 79;
pos = (83,452);
},
{
angle = 79;
pos = (200,394);
}
);
layerId = "74CCE9C5-5564-42E0-9214-3BF0725DF94D";
shapes = (
{
closed = 1;
nodes = (
(361,-209,o),
(464,-150,o),
(495,3,cs),
(592,508,l),
(500,508,l),
(465,422,l),
(445,400,l),
(367,-5,ls),
(354,-73,o),
(302,-93,o),
(230,-93,cs),
(175,-93,o),
(126,-87,o),
(88,-80,cs),
(30,-69,l),
(68,-48,l),
(12,-193,l),
(-13,-163,l),
(51,-183,ls),
(101,-199,o),
(162,-209,o),
(222,-209,cs)
);
},
{
closed = 1;
nodes = (
(262,20,o),
(306,30,o),
(346,47,cs),
(418,77,l),
(399,160,l),
(361,148,ls),
(334,139,o),
(307,135,o),
(281,135,cs),
(196,135,o),
(161,194,o),
(179,281,cs),
(195,361,o),
(249,401,o),
(322,401,cs),
(348,401,o),
(375,393,o),
(399,381,cs),
(445,358,l),
(485,440,l),
(438,472,ls),
(391,503,o),
(341,516,o),
(299,516,cs),
(173,516,o),
(79,425,o),
(52,290,cs),
(22,137,o),
(90,20,o),
(226,20,cs)
);
}
);
width = 614;
}
);
metricLeft = d;
metricRight = u;
unicode = 103;
},
{
color = 4;
glyphname = h;
kernLeft = b;
kernRight = n;
lastChange = "2021-09-30 22:27:23 +0000";
layers = (
{
anchors = (
{
name = top.case;
pos = (249,771);
}
);
background = {
shapes = (
{
closed = 1;
nodes = (
(211,0,l),
(275,328,l),
(296,335,ls),
(309,339,o),
(322,341,o),
(337,341,cs),
(385,341,o),
(395,323,o),
(389,292,cs),
(332,0,l),
(549,0,l),
(617,350,ls),
(637,455,o),
(586,535,o),
(455,535,cs),
(404,535,o),
(349,516,o),
(298,489,cs),
(218,447,l),
(294,425,l),
(361,770,l),
(138,738,l),
(-6,0,l)
);
}
);
};
guides = (
{
angle = 90;
pos = (177,291);
}
);
layerId = "6D60D92C-1450-4586-BB49-599D0D4C1213";
shapes = (
{
closed = 1;
nodes = (
(211,0,l),
(275,328,l),
(296,335,ls),
(309,339,o),
(322,341,o),
(337,341,cs),
(381,341,o),
(394,319,o),
(388,288,cs),
(332,0,l),
(549,0,l),
(616,343,ls),
(638,460,o),
(563,535,o),
(457,535,cs),
(404,535,o),
(342,517,o),
(281,480,cs),
(218,442,l),
(294,425,l),
(361,770,l),
(138,738,l),
(-6,0,l)
);
}
);
width = 640;
},
{
anchors = (
{
name = top.case;
pos = (209,771);
}
);
background = {
shapes = (
{
closed = 1;
nodes = (
(83,0,l),
(162,406,l),
(229,433,ls),
(274,451,o),
(316,463,o),
(360,463,cs),
(451,463,o),
(494,420,o),
(477,332,cs),
(412,0,l),
(446,0,l),
(512,336,ls),
(530,435,o),
(493,496,o),
(379,496,cs),
(331,496,o),
(275,485,o),
(220,458,cs),
(159,429,l),
(166,424,l),
(232,770,l),
(191,738,l),
(47,0,l)
);
}
);
};
layerId = "13A5184A-77A5-4E03-80A5-A9198A2CA35F";
shapes = (
{
closed = 1;
nodes = (
(78,0,l),
(156,406,l),
(214,429,ls),
(274,453,o),
(315,463,o),
(368,463,cs),
(447,463,o),
(486,418,o),
(472,340,cs),
(406,0,l),
(441,0,l),
(506,333,ls),
(527,440,o),
(471,496,o),
(374,496,cs),
(318,496,o),
(263,481,o),
(206,454,cs),
(152,429,l),
(161,424,l),
(228,770,l),
(187,738,l),
(42,0,l)
);
}
);
width = 569;
},
{
anchors = (
{
name = top.case;
pos = (235,771);
}
);
background = {
anchors = (
{
name = top.case;
pos = (235,771);
}
);
shapes = (
{
closed = 1;
nodes = (
(147,0,l),
(218,365,l),
(254,380,ls),
(290,394,o),
(317,402,o),
(347,402,cs),
(399,402,o),
(424,372,o),
(415,325,cs),
(353,0,l),
(480,0,l),
(550,358,ls),
(568,451,o),
(509,516,o),
(404,516,cs),
(354,516,o),
(304,502,o),
(265,483,cs),
(187,444,l),
(230,425,l),
(297,770,l),
(165,738,l),
(21,0,l)
);
}
);
};
layerId = "74CCE9C5-5564-42E0-9214-3BF0725DF94D";
shapes = (
{
closed = 1;
nodes = (
(147,0,l),
(218,365,l),
(254,380,ls),
(290,394,o),
(317,402,o),
(347,402,cs),
(399,402,o),
(424,372,o),
(415,325,cs),
(353,0,l),
(480,0,l),
(550,358,ls),
(568,451,o),
(509,516,o),
(404,516,cs),
(354,516,o),
(304,502,o),
(265,483,cs),
(187,444,l),
(230,425,l),
(297,770,l),
(165,738,l),
(21,0,l)
);
}
);
width = 593;
}
);
metricLeft = n;
metricRight = n;
unicode = 104;
},
{
color = 3;
glyphname = hbar;
kernRight = n;
lastChange = "2021-09-30 22:27:23 +0000";
layers = (
{
layerId = "13A5184A-77A5-4E03-80A5-A9198A2CA35F";
shapes = (
{
closed = 1;
nodes = (
(96,0,l),
(175,406,l),
(233,429,ls),
(293,453,o),
(334,463,o),
(386,463,cs),
(466,463,o),
(505,418,o),
(490,340,cs),
(425,0,l),
(460,0,l),
(525,333,ls),
(546,440,o),
(489,496,o),
(392,496,cs),
(337,496,o),
(281,481,o),
(224,454,cs),
(171,429,l),
(179,424,l),
(246,770,l),
(205,738,l),
(61,0,l)
);
},
{
closed = 1;
nodes = (
(421,591,l),
(427,624,l),
(79,624,l),
(73,591,l)
);
}
);
width = 588;
},
{
background = {
shapes = (
{
closed = 1;
nodes = (
(235,0,l),
(291,288,l),
(313,295,ls),
(325,299,o),
(339,301,o),
(354,301,cs),
(402,301,o),
(411,283,o),
(405,252,cs),
(356,0,l),
(573,0,l),
(633,310,ls),
(653,415,o),
(602,495,o),
(471,495,cs),
(420,495,o),
(366,476,o),
(314,449,cs),
(234,407,l),
(310,385,l),
(385,770,l),
(162,738,l),
(18,0,l)
);
},
{
closed = 1;
nodes = (
(517,544,l),
(543,679,l),
(86,679,l),
(60,544,l)
);
}
);
};
layerId = "6D60D92C-1450-4586-BB49-599D0D4C1213";
shapes = (
{
closed = 1;
nodes = (
(235,0,l),
(290,288,l),
(311,295,ls),
(324,299,o),
(337,301,o),
(352,301,cs),
(396,301,o),
(409,279,o),
(403,248,cs),
(356,0,l),
(573,0,l),
(631,303,ls),
(653,420,o),
(578,495,o),
(472,495,cs),
(419,495,o),
(357,477,o),
(296,440,cs),
(233,402,l),
(309,385,l),
(385,770,l),
(162,738,l),
(18,0,l)
);
},
{
closed = 1;
nodes = (
(517,544,l),
(543,679,l),
(86,679,l),
(60,544,l)
);
}
);
width = 664;
},
{
background = {
shapes = (
{
closed = 1;
nodes = (
(165,0,l),
(236,365,l),
(272,380,ls),
(308,394,o),
(335,402,o),
(365,402,cs),
(417,402,o),
(442,372,o),
(433,325,cs),
(371,0,l),
(498,0,l),
(568,358,ls),
(586,451,o),
(527,516,o),
(422,516,cs),
(372,516,o),
(322,502,o),
(283,483,cs),
(205,444,l),
(248,425,l),
(315,770,l),
(183,738,l),
(39,0,l)
);
},
{
closed = 1;
nodes = (
(469,568,l),
(485,652,l),
(82,652,l),
(66,568,l)
);
}
);
};
guides = (
{
pos = (658,496);
}
);
layerId = "74CCE9C5-5564-42E0-9214-3BF0725DF94D";
shapes = (
{
closed = 1;
nodes = (
(165,0,l),
(232,345,l),
(268,360,ls),
(304,375,o),
(331,382,o),
(361,382,cs),
(413,382,o),
(438,352,o),
(429,305,cs),
(371,0,l),
(498,0,l),
(564,338,ls),
(582,431,o),
(523,496,o),
(418,496,cs),
(368,496,o),
(318,482,o),
(279,463,cs),
(201,424,l),
(244,405,l),
(315,770,l),
(183,738,l),
(39,0,l)
);
},
{
closed = 1;
nodes = (
(469,568,l),
(485,652,l),
(82,652,l),
(66,568,l)
);
}
);
width = 611;
}
);
metricRight = n;
unicode = 295;
},
{
glyphname = idotless;
lastChange = "2021-09-30 22:27:23 +0000";
layers = (
{
anchors = (
{
name = bottom;
pos = (50,-35);
},
{
name = ogonek;
pos = (20,10);
},
{
name = top;
pos = (167,550);
}
);
layerId = "13A5184A-77A5-4E03-80A5-A9198A2CA35F";
shapes = (
{
closed = 1;
nodes = (
(78,0,l),
(173,490,l),
(139,490,l),
(42,0,l)
);
}
);
width = 216;
},
{
anchors = (
{
name = bottom;
pos = (95,-35);
},
{
name = ogonek;
pos = (97,10);
},
{
name = top;
pos = (210,550);
}
);
layerId = "6D60D92C-1450-4586-BB49-599D0D4C1213";
shapes = (
{
closed = 1;
nodes = (
(211,0,l),
(313,525,l),
(96,525,l),
(-6,0,l)
);
}
);
width = 307;
},
{
anchors = (
{
name = bottom;
pos = (76,-35);
},
{
name = ogonek;
pos = (62,10);
},
{
name = top;
pos = (191,550);
}
);
layerId = "74CCE9C5-5564-42E0-9214-3BF0725DF94D";
shapes = (
{
closed = 1;
nodes = (
(147,0,l),
(246,508,l),
(120,508,l),
(21,0,l)
);
}
);
width = 267;
}
);
metricLeft = n;
metricRight = u;
unicode = 305;
},
{
glyphname = j;
kernLeft = j;
lastChange = "2021-09-30 22:27:23 +0000";
layers = (
{
background = {
shapes = (
{
closed = 1;
nodes = (
(-152,-192,l),
(-114,-202,ls),
(-97,-206,o),
(-81,-209,o),
(-67,-209,cs),
(7,-209,o),
(46,-179,o),
(58,-116,cs),
(176,490,l),
(141,490,l),
(23,-116,ls),
(16,-155,o),
(-10,-175,o),
(-52,-175,cs),
(-67,-175,o),
(-86,-173,o),
(-105,-171,cs),
(-145,-166,l),
(-120,-154,l),
(-139,-211,l)
);
},
{
closed = 1;
nodes = (
(208,646,o),
(228,662,o),
(231,681,cs),
(235,699,o),
(222,715,o),
(204,715,cs),
(185,715,o),
(166,699,o),
(162,681,cs),
(159,662,o),
(171,646,o),
(190,646,cs)
);
}
);
};
layerId = "13A5184A-77A5-4E03-80A5-A9198A2CA35F";
shapes = (
{
ref = jdotless;
},
{
pos = (110,0);
ref = dotaccentcomb;
}
);
width = 216;
},
{
layerId = "6D60D92C-1450-4586-BB49-599D0D4C1213";
shapes = (
{
ref = jdotless;
},
{
pos = (156,0);
ref = dotaccentcomb;
}
);
width = 310;
},
{
layerId = "74CCE9C5-5564-42E0-9214-3BF0725DF94D";
shapes = (
{
ref = jdotless;
},
{
pos = (135,0);
ref = dotaccentcomb;
}
);
width = 268;
}
);
metricRight = i;
unicode = 106;
},
{
glyphname = jdotless;
kernLeft = j;
lastChange = "2021-09-30 22:27:23 +0000";
layers = (
{
anchors = (
{
name = top;
pos = (169,550);
}
);
background = {
shapes = (
{
closed = 1;
nodes = (
(-148,-184,l),
(-110,-194,ls),
(-93,-198,o),
(-77,-201,o),
(-54,-201,cs),
(11,-201,o),
(50,-171,o),
(62,-108,cs),
(179,490,l),
(144,490,l),
(27,-108,ls),
(19,-147,o),
(-6,-167,o),
(-48,-167,cs),
(-63,-167,o),
(-82,-165,o),
(-101,-163,cs),
(-141,-158,l),
(-116,-146,l),
(-135,-203,l)
);
}
);
};
layerId = "13A5184A-77A5-4E03-80A5-A9198A2CA35F";
shapes = (
{
closed = 1;
nodes = (
(-155,-192,l),
(-117,-202,ls),
(-100,-206,o),
(-84,-209,o),
(-61,-209,cs),
(4,-209,o),
(43,-179,o),
(55,-116,cs),
(174,490,l),
(139,490,l),
(20,-117,ls),
(12,-156,o),
(-13,-176,o),
(-55,-176,cs),
(-70,-176,o),
(-89,-174,o),
(-108,-172,cs),
(-148,-167,l),
(-123,-154,l),
(-142,-211,l)
);
}
);
width = 216;
},
{
anchors = (
{
name = top;
pos = (211,550);
}
);
layerId = "6D60D92C-1450-4586-BB49-599D0D4C1213";
shapes = (
{
closed = 1;
nodes = (
(-198,-171,l),
(-136,-188,ls),
(-99,-199,o),
(-42,-209,o),
(-11,-209,cs),
(109,-209,o),
(186,-149,o),
(207,-37,cs),
(315,525,l),
(98,525,l),
(-4,-1,ls),
(-10,-30,o),
(-28,-39,o),
(-59,-39,cs),
(-69,-39,o),
(-82,-38,o),
(-93,-37,cs),
(-126,-33,l),
(-92,-12,l),
(-168,-217,l)
);
}
);
width = 310;
},
{
anchors = (
{
name = top;
pos = (193,550);
}
);
background = {
shapes = (
{
closed = 1;
nodes = (
(-160,-180,l),
(-113,-195,ls),
(-87,-203,o),
(-60,-209,o),
(-38,-209,cs),
(59,-209,o),
(117,-161,o),
(135,-68,cs),
(247,508,l),
(121,508,l),
(13,-45,ls),
(7,-79,o),
(-13,-93,o),
(-47,-93,cs),
(-58,-93,o),
(-73,-92,o),
(-83,-91,cs),
(-120,-87,l),
(-86,-59,l),
(-141,-214,l)
);
}
);
};
layerId = "74CCE9C5-5564-42E0-9214-3BF0725DF94D";
shapes = (
{
closed = 1;
nodes = (
(-160,-180,l),
(-105,-195,ls),
(-75,-203,o),
(-44,-209,o),
(-18,-209,cs),
(60,-209,o),
(115,-173,o),
(133,-81,cs),
(247,508,l),
(121,508,l),
(13,-45,ls),
(6,-83,o),
(-10,-93,o),
(-47,-93,cs),
(-58,-93,o),
(-73,-92,o),
(-83,-91,cs),
(-120,-87,l),
(-91,-58,l),
(-138,-214,l)
);
}
);
width = 268;
}
);
metricRight = u;
unicode = 567;
},
{
color = 4;
glyphname = k;
kernLeft = h;
kernRight = k;
lastChange = "2021-09-30 22:27:23 +0000";
layers = (
{
anchors = (
{
name = bottom;
pos = (221,-35);
}
);
background = {
anchors = (
{
name = bottom;
pos = (287,-15);
}
);
shapes = (
{
closed = 1;
nodes = (
(83,0,l),
(129,239,l),
(250,239,l),
(509,490,l),
(463,490,l),
(241,272,l),
(135,272,l),
(232,770,l),
(191,738,l),
(47,0,l)
);
},
{
closed = 1;
nodes = (
(458,0,l),
(266,263,l),
(232,243,l),
(410,0,l)
);
}
);
};
layerId = "13A5184A-77A5-4E03-80A5-A9198A2CA35F";
shapes = (
{
closed = 1;
nodes = (
(78,0,l),
(125,239,l),
(246,239,l),
(504,490,l),
(455,490,l),
(233,272,l),
(130,272,l),
(228,770,l),
(187,738,l),
(42,0,l)
);
},
{
closed = 1;
nodes = (
(451,0,l),
(257,263,l),
(228,243,l),
(404,0,l)
);
}
);
width = 506;
},
{
anchors = (
{
name = bottom;
pos = (281,-35);
}
);
background = {
shapes = (
{
closed = 1;
nodes = (
(211,0,l),
(243,164,l),
(370,164,l),
(700,525,l),
(464,525,l),
(299,341,l),
(277,341,l),
(361,770,l),
(138,738,l),
(-6,0,l)
);
},
{
closed = 1;
nodes = (
(591,0,l),
(434,348,l),
(280,174,l),
(363,0,l)
);
}
);
};
guides = (
{
pos = (188,341);
},
{
pos = (158,164);
}
);
layerId = "6D60D92C-1450-4586-BB49-599D0D4C1213";
shapes = (
{
closed = 1;
nodes = (
(211,0,l),
(243,164,l),
(370,164,l),
(700,525,l),
(464,525,l),
(299,341,l),
(277,341,l),
(361,770,l),
(138,738,l),
(-6,0,l)
);
},
{
closed = 1;
nodes = (
(591,0,l),
(434,348,l),
(280,174,l),
(363,0,l)
);
}
);
width = 654;
},
{
anchors = (
{
name = bottom;
pos = (240,-35);
}
);
associatedMasterId = "13A5184A-77A5-4E03-80A5-A9198A2CA35F";
background = {
shapes = (
{
closed = 1;
nodes = (
(90,40,l),
(106,171,l),
(504,481,l),
(458,487,l),
(112,214,l),
(184,803,l),
(146,776,l),
(55,43,l)
);
},
{
closed = 1;
nodes = (
(486,-9,l),
(272,311,l),
(247,289,l),
(441,-5,l)
);
}
);
};
layerId = "63030ADE-62BD-44DB-99AA-3EB5F3DC6F55";
name = "May 9 18, 22:20";
shapes = (
{
closed = 1;
nodes = (
(82,0,l),
(108,133,l),
(537,490,l),
(486,490,l),
(117,177,l),
(232,770,l),
(191,738,l),
(47,0,l)
);
},
{
closed = 1;
nodes = (
(480,0,l),
(284,293,l),
(262,267,l),
(438,0,l)
);
}
);
width = 543;
},
{
anchors = (
{
name = bottom;
pos = (261,-35);
}
);
background = {
shapes = (
{
closed = 1;
nodes = (
(147,0,l),
(186,199,l),
(286,199,l),
(593,508,l),
(452,508,l),
(263,309,l),
(207,309,l),
(297,770,l),
(165,738,l),
(21,0,l)
);
},
{
closed = 1;
nodes = (
(512,0,l),
(343,306,l),
(250,209,l),
(361,0,l)
);
}
);
};
layerId = "74CCE9C5-5564-42E0-9214-3BF0725DF94D";
shapes = (
{
closed = 1;
nodes = (
(147,0,l),
(186,199,l),
(291,199,l),
(594,508,l),
(442,508,l),
(257,309,l),
(207,309,l),
(297,770,l),
(165,738,l),
(21,0,l)
);
},
{
closed = 1;
nodes = (
(513,0,l),
(334,306,l),
(253,210,l),
(378,0,l)
);
}
);
width = 575;
}
);
metricLeft = h;
unicode = 107;
},
{
color = 3;
glyphname = kgreenlandic;
kernLeft = n;
kernRight = k;
lastChange = "2021-09-30 22:27:23 +0000";
layers = (
{
layerId = "13A5184A-77A5-4E03-80A5-A9198A2CA35F";
shapes = (
{
closed = 1;
nodes = (
(78,0,l),
(125,239,l),
(246,239,l),
(504,490,l),
(455,490,l),
(233,272,l),
(130,272,l),
(172,490,l),
(139,490,l),
(42,0,l)
);
},
{
closed = 1;
nodes = (
(451,0,l),
(257,263,l),
(228,243,l),
(404,0,l)
);
}
);
width = 506;
},
{
layerId = "6D60D92C-1450-4586-BB49-599D0D4C1213";
shapes = (
{
closed = 1;
nodes = (
(211,0,l),
(243,164,l),
(370,164,l),
(700,525,l),
(464,525,l),
(299,341,l),
(277,341,l),
(313,525,l),
(96,525,l),
(-6,0,l)
);
},
{
closed = 1;
nodes = (
(591,0,l),
(434,348,l),
(280,174,l),
(363,0,l)
);
}
);
width = 654;
},
{
background = {
shapes = (
{
closed = 1;
nodes = (
(147,0,l),
(186,199,l),
(291,199,l),
(594,508,l),
(442,508,l),
(257,309,l),
(207,309,l),
(297,770,l),
(165,738,l),
(21,0,l)
);
},
{
closed = 1;
nodes = (
(513,0,l),
(334,306,l),
(253,210,l),
(378,0,l)
);
}
);
};
layerId = "74CCE9C5-5564-42E0-9214-3BF0725DF94D";
shapes = (
{
closed = 1;
nodes = (
(147,0,l),
(186,199,l),
(291,199,l),
(594,508,l),
(442,508,l),
(257,309,l),
(207,309,l),
(246,508,l),
(120,508,l),
(21,0,l)
);
},
{
closed = 1;
nodes = (
(513,0,l),
(334,306,l),
(253,210,l),
(378,0,l)
);
}
);
width = 575;
}
);
metricLeft = n;
metricRight = k;
unicode = 312;
},
{
glyphname = l;
kernLeft = h;
kernRight = l;
lastChange = "2021-09-30 22:27:23 +0000";
layers = (
{
anchors = (
{
name = bottom;
pos = (122,-35);
},
{
name = caron;
pos = (286,413);
},
{
name = top.case;
pos = (205,771);
}
);
background = {
shapes = (
{
closed = 1;
nodes = (
(211,50,l),
(220,32,l),
(192,27,o),
(171,27,o),
(153,27,cs),
(101,27,o),
(86,43,o),
(95,91,cs),
(227,770,l),
(186,738,l),
(60,91,ls),
(47,24,o),
(77,-6,o),
(143,-6,cs),
(167,-6,o),
(198,-2,o),
(228,17,c),
(195,-25,l)
);
}
);
};
layerId = "13A5184A-77A5-4E03-80A5-A9198A2CA35F";
shapes = (
{
closed = 1;
nodes = (
(203,50,l),
(215,32,l),
(187,27,o),
(166,27,o),
(148,27,cs),
(96,27,o),
(81,43,o),
(90,91,cs),
(222,770,l),
(181,738,l),
(55,91,ls),
(42,24,o),
(72,-6,o),
(138,-6,cs),
(162,-6,o),
(193,-2,o),
(223,17,c),
(192,-25,l)
);
}
);
width = 259;
},
{
anchors = (
{
name = bottom;
pos = (137,-35);
},
{
name = caron;
pos = (462,410);
},
{
name = top.case;
pos = (239,771);
}
);
background = {
shapes = (
{
closed = 1;
nodes = (
(326,205,l),
(348,164,l),
(321,159,o),
(301,157,o),
(284,157,cs),
(253,157,o),
(239,168,o),
(243,190,cs),
(356,770,l),
(132,738,l),
(21,163,ls),
(-1,52,o),
(42,-9,o),
(178,-9,cs),
(213,-9,o),
(254,0,o),
(283,11,c),
(261,-45,l)
);
}
);
};
layerId = "6D60D92C-1450-4586-BB49-599D0D4C1213";
shapes = (
{
closed = 1;
nodes = (
(326,205,l),
(348,164,l),
(321,159,o),
(301,157,o),
(284,157,cs),
(253,157,o),
(239,168,o),
(243,190,cs),
(356,770,l),
(132,738,l),
(23,177,ls),
(0,58,o),
(44,-9,o),
(178,-9,cs),
(213,-9,o),
(254,0,o),
(283,11,c),
(261,-45,l)
);
}
);
width = 344;
},
{
anchors = (
{
name = bottom;
pos = (123,-35);
},
{
name = caron;
pos = (377,413);
},
{
name = top.case;
pos = (225,771);
}
);
background = {
shapes = (
{
closed = 1;
nodes = (
(276,153,l),
(285,105,l),
(258,100,o),
(237,99,o),
(220,99,cs),
(177,99,o),
(164,116,o),
(171,147,cs),
(292,770,l),
(159,738,l),
(40,122,l),
(25,45,o),
(56,-8,o),
(160,-8,cs),
(189,-8,o),
(226,0,o),
(255,14,c),
(228,-35,l)
);
}
);
};
layerId = "74CCE9C5-5564-42E0-9214-3BF0725DF94D";
shapes = (
{
closed = 1;
nodes = (
(276,153,l),
(285,105,l),
(258,100,o),
(237,99,o),
(209,99,cs),
(177,99,o),
(163,112,o),
(171,147,cs),
(292,770,l),
(159,738,l),
(43,135,ls),
(28,57,o),
(63,-8,o),
(165,-8,cs),
(195,-8,o),
(233,0,o),
(263,14,c),
(228,-35,l)
);
}
);
width = 312;
}
);
unicode = 108;
},
{
color = 3;
glyphname = lslash;
lastChange = "2021-09-30 22:27:23 +0000";
layers = (
{
background = {
shapes = (
{
closed = 1;
nodes = (
(139,323,l),
(291,377,l),
(285,407,l),
(143,357,l)
);
},
{
closed = 1;
nodes = (
(143,357,l),
(18,313,l),
(24,283,l),
(139,323,l)
);
},
{
closed = 1;
nodes = (
(226,50,l),
(235,32,l),
(207,27,o),
(186,27,o),
(168,27,cs),
(116,27,o),
(101,43,o),
(110,91,cs),
(242,770,l),
(201,738,l),
(73,80,ls),
(62,21,o),
(87,-6,o),
(158,-6,cs),
(181,-6,o),
(211,-2,o),
(240,17,c),
(210,-25,l)
);
}
);
};
layerId = "13A5184A-77A5-4E03-80A5-A9198A2CA35F";
shapes = (
{
closed = 1;
nodes = (
(294,375,l),
(283,406,l),
(142,356,l),
(143,322,l)
);
},
{
closed = 1;
nodes = (
(143,322,l),
(142,356,l),
(18,313,l),
(29,282,l)
);
},
{
pos = (20,0);
ref = l;
}
);
width = 285;
},
{
background = {
shapes = (
{
closed = 1;
nodes = (
(226,307,l),
(230,415,l),
(22,352,l),
(52,252,l)
);
},
{
closed = 1;
nodes = (
(424,357,l),
(394,456,l),
(236,410,l),
(232,302,l)
);
}
);
};
guides = (
{
angle = 79;
pos = (380,243);
}
);
layerId = "6D60D92C-1450-4586-BB49-599D0D4C1213";
shapes = (
{
closed = 1;
nodes = (
(434,360,l),
(404,459,l),
(236,410,l),
(232,302,l)
);
},
{
closed = 1;
nodes = (
(226,307,l),
(230,415,l),
(15,350,l),
(45,250,l)
);
},
{
pos = (50,0);
ref = l;
}
);
width = 416;
},
{
background = {
shapes = (
{
closed = 1;
nodes = (
(188,303,l),
(184,385,l),
(26,336,l),
(51,260,l)
);
},
{
closed = 1;
nodes = (
(368,357,l),
(344,435,l),
(183,382,l),
(188,300,l)
);
}
);
};
layerId = "74CCE9C5-5564-42E0-9214-3BF0725DF94D";
shapes = (
{
closed = 1;
nodes = (
(378,361,l),
(354,439,l),
(183,382,l),
(188,300,l)
);
},
{
closed = 1;
nodes = (
(188,303,l),
(184,385,l),
(21,335,l),
(46,259,l)
);
},
{
pos = (44,0);
ref = l;
}
);
width = 358;
}
);
unicode = 322;
},
{
color = 4;
glyphname = m;
kernLeft = n;
kernRight = n;
lastChange = "2021-09-30 22:27:23 +0000";
layers = (
{
background = {
shapes = (
{
closed = 1;
nodes = (
(83,0,l),
(162,406,l),
(225,433,ls),
(267,451,o),
(309,463,o),
(350,463,cs),
(434,463,o),
(473,420,o),
(456,332,cs),
(392,0,l),
(427,0,l),
(492,336,ls),
(511,435,o),
(475,496,o),
(368,496,cs),
(322,496,o),
(271,484,o),
(214,456,cs),
(158,429,l),
(164,424,l),
(169,490,l),
(143,490,l),
(48,0,l)
);
},
{
closed = 1;
nodes = (
(771,0,l),
(836,336,ls),
(855,435,o),
(819,496,o),
(712,496,cs),
(666,496,o),
(614,485,o),
(558,457,cs),
(483,420,l),
(488,399,l),
(569,433,ls),
(611,451,o),
(653,463,o),
(694,463,cs),
(778,463,o),
(817,420,o),
(800,332,cs),
(736,0,l)
);
}
);
};
layerId = "13A5184A-77A5-4E03-80A5-A9198A2CA35F";
shapes = (
{
closed = 1;
nodes = (
(78,0,l),
(157,406,l),
(212,429,ls),
(268,453,o),
(307,463,o),
(355,463,cs),
(430,463,o),
(466,418,o),
(452,340,cs),
(387,0,l),
(422,0,l),
(487,336,ls),
(506,441,o),
(453,496,o),
(362,496,cs),
(310,496,o),
(257,481,o),
(204,455,cs),
(154,430,l),
(159,424,l),
(164,490,l),
(138,490,l),
(43,0,l)
);
},
{
closed = 1;
nodes = (
(766,0,l),
(831,336,ls),
(850,441,o),
(797,496,o),
(706,496,cs),
(654,496,o),
(601,481,o),
(548,455,cs),
(478,420,l),
(483,399,l),
(556,429,ls),
(612,452,o),
(651,463,o),
(699,463,cs),
(774,463,o),
(810,418,o),
(796,340,cs),
(731,0,l)
);
}
);
width = 894;
},
{
background = {
shapes = (
{
closed = 1;
nodes = (
(211,0,l),
(275,328,l),
(294,335,ls),
(306,339,o),
(318,341,o),
(332,341,cs),
(377,341,o),
(385,323,o),
(379,292,cs),
(322,0,l),
(539,0,l),
(607,350,ls),
(627,455,o),
(579,535,o),
(454,535,cs),
(405,535,o),
(353,516,o),
(304,489,cs),
(227,447,l),
(263,425,l),
(254,525,l),
(96,525,l),
(-6,0,l)
);
},
{
closed = 1;
nodes = (
(867,0,l),
(935,350,ls),
(955,455,o),
(909,535,o),
(787,535,cs),
(737,535,o),
(684,516,o),
(634,489,cs),
(556,447,l),
(599,326,l),
(622,335,ls),
(634,339,o),
(646,341,o),
(660,341,cs),
(705,341,o),
(713,323,o),
(707,292,cs),
(650,0,l)
);
}
);
};
layerId = "6D60D92C-1450-4586-BB49-599D0D4C1213";
shapes = (
{
closed = 1;
nodes = (
(211,0,l),
(275,328,l),
(294,335,ls),
(306,339,o),
(318,341,o),
(332,341,cs),
(372,341,o),
(384,319,o),
(378,288,cs),
(322,0,l),
(539,0,l),
(606,343,ls),
(627,460,o),
(556,535,o),
(455,535,cs),
(404,535,o),
(345,517,o),
(287,480,cs),
(227,442,l),
(263,425,l),
(254,525,l),
(96,525,l),
(-6,0,l)
);
},
{
closed = 1;
nodes = (
(867,0,l),
(934,343,ls),
(955,460,o),
(884,535,o),
(783,535,cs),
(732,535,o),
(673,517,o),
(615,480,cs),
(555,442,l),
(599,326,l),
(622,335,ls),
(634,340,o),
(646,341,o),
(660,341,cs),
(700,341,o),
(712,319,o),
(706,288,cs),
(650,0,l)
);
}
);
width = 958;
},
{
background = {
shapes = (
{
closed = 1;
nodes = (
(463,0,l),
(534,365,l),
(570,380,ls),
(606,395,o),
(633,402,o),
(663,402,cs),
(715,402,o),
(740,372,o),
(731,325,cs),
(669,0,l),
(796,0,l),
(866,358,ls),
(884,451,o),
(825,516,o),
(720,516,cs),
(670,516,o),
(620,502,o),
(581,483,cs),
(503,444,l),
(529,425,l),
(532,508,l),
(436,508,l),
(337,0,l)
);
}
);
};
layerId = "74CCE9C5-5564-42E0-9214-3BF0725DF94D";
shapes = (
{
closed = 1;
nodes = (
(147,0,l),
(218,367,l),
(257,384,ls),
(284,395,o),
(308,402,o),
(334,402,cs),
(394,402,o),
(416,372,o),
(404,312,cs),
(344,0,l),
(470,0,l),
(536,343,ls),
(555,442,o),
(515,516,o),
(398,516,cs),
(350,516,o),
(298,500,o),
(243,474,cs),
(180,445,l),
(214,425,l),
(217,508,l),
(120,508,l),
(21,0,l)
);
},
{
closed = 1;
nodes = (
(798,0,l),
(865,349,ls),
(883,442,o),
(842,516,o),
(726,516,cs),
(680,516,o),
(629,503,o),
(579,479,cs),
(507,445,l),
(531,363,l),
(580,384,ls),
(607,395,o),
(631,402,o),
(656,402,cs),
(717,402,o),
(739,372,o),
(729,319,cs),
(667,0,l)
);
}
);
width = 910;
}
);
metricLeft = n;
metricRight = n;
unicode = 109;
},
{
color = 4;
glyphname = n;
kernLeft = n;
kernRight = n;
lastChange = "2021-09-30 22:27:23 +0000";
layers = (
{
anchors = (
{
name = bottom;
pos = (257,-35);
},
{
name = top;
pos = (378,550);
}
);
background = {
shapes = (
{
closed = 1;
nodes = (
(211,0,l),
(275,328,l),
(296,335,ls),
(309,339,o),
(322,341,o),
(337,341,cs),
(381,341,o),
(394,319,o),
(388,288,cs),
(332,0,l),
(549,0,l),
(614,338,ls),
(636,450,o),
(583,535,o),
(455,535,cs),
(404,535,o),
(349,516,o),
(298,489,cs),
(218,447,l),
(263,425,l),
(254,525,l),
(96,525,l),
(-6,0,l)
);
}
);
};
layerId = "6D60D92C-1450-4586-BB49-599D0D4C1213";
shapes = (
{
closed = 1;
nodes = (
(211,0,l),
(275,328,l),
(296,335,ls),
(309,339,o),
(322,341,o),
(337,341,cs),
(381,341,o),
(394,319,o),
(388,288,cs),
(332,0,l),
(549,0,l),
(616,343,ls),
(638,460,o),
(563,535,o),
(457,535,cs),
(404,535,o),
(342,517,o),
(281,480,cs),
(218,442,l),
(263,425,l),
(254,525,l),
(96,525,l),
(-6,0,l)
);
}
);
width = 640;
},
{
anchors = (
{
name = bottom;
pos = (236,-35);
},
{
name = top;
pos = (354,550);
}
);
background = {
shapes = (
{
closed = 1;
nodes = (
(83,0,l),
(162,406,l),
(220,429,ls),
(280,453,o),
(321,463,o),
(361,463,cs),
(453,463,o),
(493,418,o),
(476,332,cs),
(412,0,l),
(447,0,l),
(512,336,ls),
(533,441,o),
(486,496,o),
(379,496,cs),
(324,496,o),
(268,481,o),
(211,454,cs),
(158,429,l),
(164,424,l),
(169,490,l),
(143,490,l),
(48,0,l)
);
}
);
};
layerId = "13A5184A-77A5-4E03-80A5-A9198A2CA35F";
shapes = (
{
closed = 1;
nodes = (
(78,0,l),
(157,406,l),
(215,429,ls),
(275,453,o),
(316,463,o),
(368,463,cs),
(448,463,o),
(487,418,o),
(472,340,cs),
(407,0,l),
(442,0,l),
(507,333,ls),
(528,440,o),
(471,496,o),
(374,496,cs),
(319,496,o),
(263,481,o),
(206,454,cs),
(153,429,l),
(159,424,l),
(164,490,l),
(138,490,l),
(43,0,l)
);
}
);
width = 570;
},
{
associatedMasterId = "6D60D92C-1450-4586-BB49-599D0D4C1213";
background = {
shapes = (
{
closed = 1;
nodes = (
(638,463,o),
(590,534,o),
(478,534,cs),
(422,534,o),
(363,511,o),
(304,475,cs),
(250,442,l),
(252,432,l),
(260,528,l),
(232,528,l),
(131,0,l),
(169,0,l),
(247,410,l),
(326,452,ls),
(381,481,o),
(422,499,o),
(470,499,cs),
(564,499,o),
(597,441,o),
(581,358,cs),
(512,0,l),
(550,0,l),
(619,363,ls)
);
},
{
closed = 1;
nodes = (
(210,0,l),
(274,328,l),
(295,335,ls),
(308,339,o),
(321,341,o),
(336,341,cs),
(384,341,o),
(394,323,o),
(388,292,cs),
(331,0,l),
(548,0,l),
(613,324,ls),
(639,455,o),
(598,535,o),
(474,535,cs),
(403,535,o),
(348,508,o),
(297,470,cs),
(217,411,l),
(262,425,l),
(253,525,l),
(95,525,l),
(-7,0,l)
);
}
);
};
layerId = "6558E8DD-878C-4C2F-A4FF-4EF2E2D09D5E";
name = "May 4 18, 17:33";
shapes = (
{
closed = 1;
nodes = (
(210,0,l),
(270,311,l),
(292,327,ls),
(306,336,o),
(327,341,o),
(347,341,cs),
(385,341,o),
(393,321,o),
(388,292,cs),
(331,0,l),
(548,0,l),
(617,350,ls),
(637,451,o),
(591,535,o),
(485,535,cs),
(411,535,o),
(354,508,o),
(300,470,cs),
(217,411,l),
(262,425,l),
(253,525,l),
(95,525,l),
(-7,0,l)
);
}
);
width = 600;
},
{
associatedMasterId = "13A5184A-77A5-4E03-80A5-A9198A2CA35F";
background = {
shapes = (
{
closed = 1;
nodes = (
(521,434,o),
(472,496,o),
(368,496,cs),
(318,496,o),
(261,475,o),
(195,433,cs),
(159,410,l),
(161,401,l),
(169,490,l),
(143,490,l),
(49,0,l),
(84,0,l),
(156,377,l),
(215,412,ls),
(274,448,o),
(314,463,o),
(355,463,cs),
(452,463,o),
(482,413,o),
(463,312,cs),
(403,0,l),
(438,0,l),
(498,316,ls)
);
}
);
};
layerId = "592E28F4-2226-410B-A073-E02BB15F64AE";
name = "May 4 18, 17:36";
shapes = (
{
closed = 1;
nodes = (
(521,430,o),
(475,496,o),
(371,496,cs),
(319,496,o),
(264,474,o),
(210,441,cs),
(159,410,l),
(161,401,l),
(169,490,l),
(143,490,l),
(49,0,l),
(84,0,l),
(157,381,l),
(230,420,ls),
(280,447,o),
(319,463,o),
(364,463,cs),
(451,463,o),
(481,409,o),
(467,332,cs),
(403,0,l),
(438,0,l),
(502,337,ls)
);
}
);
width = 571;
},
{
anchors = (
{
name = bottom;
pos = (250,-35);
},
{
name = top;
pos = (359,550);
}
);
background = {
shapes = (
{
closed = 1;
nodes = (
(210,-5,l),
(220,362,l),
(252,376,ls),
(280,388,o),
(306,394,o),
(333,394,cs),
(400,394,o),
(427,361,o),
(425,302,cs),
(416,-10,l),
(543,-14,l),
(552,329,ls),
(555,427,o),
(504,503,o),
(383,506,cs),
(335,507,o),
(284,494,o),
(235,469,cs),
(175,438,l),
(205,421,l),
(194,504,l),
(98,507,l),
(84,-1,l)
);
}
);
};
layerId = "74CCE9C5-5564-42E0-9214-3BF0725DF94D";
shapes = (
{
closed = 1;
nodes = (
(147,0,l),
(218,365,l),
(254,380,ls),
(290,394,o),
(317,402,o),
(347,402,cs),
(399,402,o),
(424,372,o),
(415,325,cs),
(353,0,l),
(480,0,l),
(550,358,ls),
(568,451,o),
(509,516,o),
(404,516,cs),
(354,516,o),
(304,502,o),
(265,483,cs),
(187,444,l),
(213,425,l),
(216,508,l),
(120,508,l),
(21,0,l)
);
}
);
width = 593;
}
);
unicode = 110;
},
{
color = 4;
glyphname = nhookleft;
kernLeft = j;
kernRight = n;
lastChange = "2023-04-14 00:00:55 +0000";
layers = (
{
background = {
shapes = (
{
closed = 1;
nodes = (
(-155,-192,l),
(-117,-202,ls),
(-100,-206,o),
(-84,-209,o),
(-61,-209,cs),
(4,-209,o),
(43,-179,o),
(55,-116,cs),
(157,406,l),
(215,429,ls),
(275,453,o),
(316,463,o),
(368,463,cs),
(448,463,o),
(487,418,o),
(472,340,cs),
(407,0,l),
(442,0,l),
(507,333,ls),
(528,440,o),
(471,496,o),
(374,496,cs),
(319,496,o),
(263,481,o),
(206,454,cs),
(153,429,l),
(159,424,l),
(164,490,l),
(138,490,l),
(20,-117,ls),
(12,-156,o),
(-13,-176,o),
(-55,-176,cs),
(-70,-176,o),
(-89,-174,o),
(-108,-172,cs),
(-148,-167,l),
(-123,-154,l),
(-142,-211,l)
);
}
);
};
layerId = "13A5184A-77A5-4E03-80A5-A9198A2CA35F";
shapes = (
{
closed = 1;
nodes = (
(-117,-202,ls),
(-100,-206,o),
(-84,-209,o),
(-61,-209,cs),
(4,-209,o),
(43,-179,o),
(55,-116,cs),
(157,406,l),
(215,429,ls),
(275,453,o),
(316,463,o),
(368,463,cs),
(448,463,o),
(487,418,o),
(472,340,cs),
(407,0,l),
(442,0,l),
(507,333,ls),
(528,440,o),
(471,496,o),
(374,496,cs),
(319,496,o),
(263,481,o),
(206,454,cs),
(160,432,l),
(164,490,l),
(138,490,l),
(20,-117,ls),
(12,-156,o),
(-13,-176,o),
(-55,-176,cs),
(-70,-176,o),
(-89,-174,o),
(-108,-172,cs),
(-128,-169,l),
(-137,-197,l)
);
}
);
width = 570;
},
{
background = {
shapes = (
{
closed = 1;
nodes = (
(-198,-171,l),
(-136,-188,ls),
(-99,-198,o),
(-42,-209,o),
(-11,-209,cs),
(109,-209,o),
(186,-149,o),
(207,-37,cs),
(278,328,l),
(299,335,ls),
(312,339,o),
(325,341,o),
(340,341,cs),
(384,341,o),
(397,319,o),
(391,288,cs),
(335,0,l),
(552,0,l),
(619,343,ls),
(641,460,o),
(566,535,o),
(460,535,cs),
(407,535,o),
(345,517,o),
(284,480,cs),
(221,442,l),
(266,425,l),
(257,525,l),
(99,525,l),
(-4,-1,ls),
(-10,-30,o),
(-28,-39,o),
(-59,-39,cs),
(-69,-39,o),
(-82,-38,o),
(-93,-37,cs),
(-126,-33,l),
(-92,-12,l),
(-168,-217,l)
);
}
);
};
layerId = "6D60D92C-1450-4586-BB49-599D0D4C1213";
shapes = (
{
closed = 1;
nodes = (
(-136,-188,ls),
(-99,-198,o),
(-42,-209,o),
(-11,-209,cs),
(109,-209,o),
(186,-149,o),
(207,-37,cs),
(278,328,l),
(299,335,ls),
(312,339,o),
(325,341,o),
(340,341,cs),
(384,341,o),
(397,319,o),
(391,288,cs),
(335,0,l),
(552,0,l),
(619,343,ls),
(641,460,o),
(566,535,o),
(460,535,cs),
(407,535,o),
(345,517,o),
(284,480,cs),
(262,467,l),
(257,525,l),
(99,525,l),
(-4,-1,ls),
(-10,-30,o),
(-28,-39,o),
(-59,-39,cs),
(-69,-39,o),
(-82,-38,o),
(-93,-37,cs),
(-101,-36,l),
(-155,-183,l)
);
}
);
width = 643;
},
{
background = {
shapes = (
{
closed = 1;
nodes = (
(-160,-180,l),
(-105,-195,ls),
(-75,-203,o),
(-44,-209,o),
(-18,-209,cs),
(60,-209,o),
(116,-175,o),
(133,-81,cs),
(219,365,l),
(255,380,ls),
(291,394,o),
(318,402,o),
(348,402,cs),
(400,402,o),
(425,372,o),
(416,325,cs),
(354,0,l),
(481,0,l),
(551,358,ls),
(569,451,o),
(510,516,o),
(405,516,cs),
(355,516,o),
(305,502,o),
(266,483,cs),
(188,444,l),
(214,425,l),
(217,508,l),
(121,508,l),
(13,-45,ls),
(5,-84,o),
(-10,-93,o),
(-47,-93,cs),
(-58,-93,o),
(-73,-92,o),
(-83,-91,cs),
(-120,-87,l),
(-91,-58,l),
(-138,-214,l)
);
}
);
};
layerId = "74CCE9C5-5564-42E0-9214-3BF0725DF94D";
shapes = (
{
closed = 1;
nodes = (
(-105,-195,ls),
(-75,-203,o),
(-44,-209,o),
(-18,-209,cs),
(60,-209,o),
(116,-175,o),
(133,-81,cs),
(219,365,l),
(255,380,ls),
(291,394,o),
(318,402,o),
(348,402,cs),
(400,402,o),
(425,372,o),
(416,325,cs),
(354,0,l),
(481,0,l),
(551,358,ls),
(569,451,o),
(510,516,o),
(405,516,cs),
(355,516,o),
(305,502,o),
(266,483,cs),
(215,458,l),
(217,508,l),
(121,508,l),
(13,-45,ls),
(5,-84,o),
(-10,-93,o),
(-47,-93,cs),
(-58,-93,o),
(-73,-92,o),
(-83,-91,cs),
(-100,-89,l),
(-130,-188,l)
);
}
);
width = 594;
}
);
metricLeft = j;
metricRight = n;
unicode = 626;
},
{
color = 3;
glyphname = eng;
kernLeft = n;
kernRight = n;
lastChange = "2021-09-30 22:27:23 +0000";
layers = (
{
layerId = "13A5184A-77A5-4E03-80A5-A9198A2CA35F";
shapes = (
{
closed = 1;
nodes = (
(209,-192,l),
(247,-202,ls),
(264,-206,o),
(280,-209,o),
(303,-209,cs),
(368,-209,o),
(406,-180,o),
(419,-116,cs),
(507,333,ls),
(528,440,o),
(471,496,o),
(374,496,cs),
(319,496,o),
(263,481,o),
(206,454,cs),
(153,429,l),
(159,424,l),
(164,490,l),
(138,490,l),
(43,0,l),
(78,0,l),
(157,406,l),
(215,429,ls),
(275,453,o),
(316,463,o),
(368,463,cs),
(448,463,o),
(487,418,o),
(472,340,cs),
(384,-117,ls),
(376,-156,o),
(351,-176,o),
(309,-176,cs),
(294,-176,o),
(275,-174,o),
(256,-172,cs),
(216,-167,l),
(241,-154,l),
(222,-211,l)
);
}
);
width = 570;
},
{
background = {
shapes = (
{
closed = 1;
nodes = (
(138,-173,l),
(200,-190,ls),
(237,-200,o),
(294,-211,o),
(325,-211,cs),
(445,-211,o),
(522,-151,o),
(543,-39,cs),
(616,343,ls),
(638,460,o),
(563,535,o),
(457,535,cs),
(404,535,o),
(342,517,o),
(281,480,cs),
(218,442,l),
(263,425,l),
(254,525,l),
(96,525,l),
(-6,0,l),
(211,0,l),
(275,328,l),
(296,335,ls),
(309,339,o),
(322,341,o),
(337,341,cs),
(381,341,o),
(394,319,o),
(388,288,cs),
(332,-3,ls),
(326,-32,o),
(308,-41,o),
(277,-41,cs),
(267,-41,o),
(254,-40,o),
(243,-39,cs),
(210,-35,l),
(244,-14,l),
(168,-219,l)
);
}
);
};
layerId = "6D60D92C-1450-4586-BB49-599D0D4C1213";
shapes = (
{
closed = 1;
nodes = (
(138,-171,l),
(200,-188,ls),
(237,-198,o),
(294,-209,o),
(325,-209,cs),
(445,-209,o),
(522,-149,o),
(543,-37,cs),
(616,343,ls),
(638,460,o),
(563,535,o),
(457,535,cs),
(404,535,o),
(342,517,o),
(281,480,cs),
(218,442,l),
(263,425,l),
(254,525,l),
(96,525,l),
(-6,0,l),
(211,0,l),
(275,328,l),
(296,335,ls),
(309,339,o),
(322,341,o),
(337,341,cs),
(381,341,o),
(394,319,o),
(388,288,cs),
(332,-1,ls),
(326,-30,o),
(308,-39,o),
(277,-39,cs),
(267,-39,o),
(254,-38,o),
(243,-37,cs),
(210,-33,l),
(244,-12,l),
(168,-217,l)
);
}
);
width = 641;
},
{
layerId = "74CCE9C5-5564-42E0-9214-3BF0725DF94D";
shapes = (
{
closed = 1;
nodes = (
(172,-180,l),
(227,-195,ls),
(257,-203,o),
(288,-209,o),
(314,-209,cs),
(392,-209,o),
(448,-172,o),
(465,-81,cs),
(550,358,ls),
(568,451,o),
(509,516,o),
(404,516,cs),
(354,516,o),
(304,502,o),
(265,483,cs),
(187,444,l),
(213,425,l),
(216,508,l),
(120,508,l),
(21,0,l),
(147,0,l),
(218,365,l),
(254,380,ls),
(290,394,o),
(317,402,o),
(347,402,cs),
(399,402,o),
(424,372,o),
(415,325,cs),
(345,-45,ls),
(338,-85,o),
(322,-93,o),
(285,-93,cs),
(274,-93,o),
(259,-92,o),
(249,-91,cs),
(212,-87,l),
(241,-58,l),
(194,-214,l)
);
}
);
width = 593;
}
);
metricLeft = n;
metricRight = n;
unicode = 331;
},
{
color = 4;
glyphname = o;
kernLeft = o;
kernRight = o;
lastChange = "2023-04-14 00:06:54 +0000";
layers = (
{
anchors = (
{
name = bottom;
pos = (261,-35);
},
{
name = ogonek;
pos = (341,10);
},
{
name = top;
pos = (371,550);
}
);
background = {
shapes = (
{
closed = 1;
nodes = (
(444,-10,o),
(585,96,o),
(617,262,cs),
(649,428,o),
(560,535,o),
(376,535,cs),
(197,535,o),
(57,429,o),
(25,263,cs),
(-7,97,o),
(81,-10,o),
(266,-10,cs)
);
},
{
closed = 1;
nodes = (
(251,165,o),
(228,186,o),
(243,262,cs),
(258,339,o),
(291,360,o),
(340,360,cs),
(391,360,o),
(413,339,o),
(398,262,cs),
(383,186,o),
(351,165,o),
(302,165,cs)
);
}
);
};
guides = (
{
angle = 79;
pos = (69,487);
},
{
angle = 79;
pos = (670,535);
},
{
angle = 79;
pos = (279,445);
},
{
angle = 79;
pos = (431,430);
}
);
layerId = "6D60D92C-1450-4586-BB49-599D0D4C1213";
shapes = (
{
closed = 1;
nodes = (
(463,-9,o),
(583,82,o),
(614,247,cs),
(645,409,o),
(554,535,o),
(368,535,cs),
(159,535,o),
(56,422,o),
(28,279,cs),
(-4,115,o),
(96,-9,o),
(285,-9,cs)
);
},
{
closed = 1;
nodes = (
(250,165,o),
(230,193,o),
(245,269,cs),
(260,346,o),
(290,360,o),
(341,360,cs),
(392,360,o),
(412,331,o),
(397,254,cs),
(382,178,o),
(352,165,o),
(301,165,cs)
);
}
);
width = 642;
},
{
anchors = (
{
name = bottom;
pos = (236,-35);
},
{
name = ogonek;
pos = (261,10);
},
{
name = top;
pos = (349,550);
}
);
background = {
shapes = (
{
closed = 1;
nodes = (
(406,-6,o),
(501,96,o),
(527,231,cs),
(558,384,o),
(484,496,o),
(334,496,cs),
(182,496,o),
(89,389,o),
(63,259,cs),
(34,112,o),
(110,-6,o),
(259,-6,cs)
);
},
{
closed = 1;
nodes = (
(135,27,o),
(73,121,o),
(99,254,cs),
(124,383,o),
(212,463,o),
(331,463,cs),
(457,463,o),
(517,370,o),
(490,231,cs),
(466,107,o),
(378,27,o),
(259,27,cs)
);
}
);
};
guides = (
{
angle = 79;
pos = (83,426);
},
{
angle = 79;
pos = (123,443);
},
{
angle = 79;
pos = (524,460);
},
{
angle = 79;
pos = (560,453);
}
);
layerId = "13A5184A-77A5-4E03-80A5-A9198A2CA35F";
shapes = (
{
closed = 1;
nodes = (
(401,-6,o),
(496,96,o),
(522,231,cs),
(553,384,o),
(479,496,o),
(329,496,cs),
(177,496,o),
(84,389,o),
(58,259,cs),
(29,112,o),
(105,-6,o),
(254,-6,cs)
);
},
{
closed = 1;
nodes = (
(130,27,o),
(68,121,o),
(94,254,cs),
(119,383,o),
(207,463,o),
(326,463,cs),
(453,463,o),
(512,373,o),
(485,231,cs),
(461,107,o),
(373,27,o),
(254,27,cs)
);
}
);
width = 580;
},
{
anchors = (
{
name = bottom;
pos = (253,-35);
},
{
name = ogonek;
pos = (301,10);
},
{
name = top;
pos = (360,550);
}
);
background = {
shapes = (
{
closed = 1;
nodes = (
(436,-8,o),
(525,94,o),
(552,231,cs),
(580,373,o),
(507,516,o),
(337,516,cs),
(161,516,o),
(74,405,o),
(49,277,cs),
(21,135,o),
(97,-8,o),
(265,-8,cs)
);
},
{
closed = 1;
nodes = (
(206,107,o),
(154,162,o),
(175,268,cs),
(190,350,o),
(235,401,o),
(322,401,cs),
(410,401,o),
(441,322,o),
(425,240,cs),
(409,152,o),
(357,107,o),
(275,107,cs)
);
}
);
};
guides = (
{
angle = 79;
pos = (92,495);
},
{
angle = 79;
pos = (203,411);
},
{
angle = 79;
pos = (457,405);
},
{
angle = 79;
pos = (599,470);
},
{
angle = 79;
pos = (308,250);
}
);
layerId = "74CCE9C5-5564-42E0-9214-3BF0725DF94D";
shapes = (
{
closed = 1;
nodes = (
(430,-8,o),
(524,89,o),
(552,231,cs),
(581,376,o),
(506,516,o),
(337,516,cs),
(170,516,o),
(76,417,o),
(49,277,cs),
(18,119,o),
(110,-8,o),
(265,-8,cs)
);
},
{
closed = 1;
nodes = (
(207,107,o),
(153,159,o),
(175,268,cs),
(190,350,o),
(235,401,o),
(322,401,cs),
(410,401,o),
(442,326,o),
(425,240,cs),
(409,150,o),
(356,107,o),
(275,107,cs)
);
}
);
width = 600;
},
{
anchors = (
{
name = top;
pos = (360,550);
}
);
associatedMasterId = "74CCE9C5-5564-42E0-9214-3BF0725DF94D";
background = {
shapes = (
{
closed = 1;
nodes = (
(321,-8,o),
(381,4,o),
(442,30,cs),
(507,58,l),
(485,23,l),
(452,152,l),
(480,136,l),
(416,119,ls),
(376,108,o),
(335,102,o),
(301,102,cs),
(201,102,o),
(153,149,o),
(176,271,cs),
(194,362,o),
(245,409,o),
(327,409,cs),
(405,409,o),
(439,358,o),
(423,273,c),
(465,312,l),
(143,312,l),
(125,220,l),
(529,220,l),
(537,261,ls),
(565,400,o),
(500,516,o),
(348,516,cs),
(204,516,o),
(79,431,o),
(48,270,cs),
(15,101,o),
(119,-8,o),
(267,-8,cs)
);
}
);
};
guides = (
{
angle = 79;
pos = (92,495);
},
{
angle = 79;
pos = (203,411);
},
{
angle = 79;
pos = (457,405);
},
{
angle = 79;
pos = (599,470);
}
);
layerId = "01378AEA-D1D7-43E6-96C1-0EA6A50E3FE9";
name = "May 31 18, 08:20";
shapes = (
{
closed = 1;
nodes = (
(421,-8,o),
(522,90,o),
(551,233,cs),
(581,381,o),
(514,516,o),
(341,516,cs),
(175,516,o),
(75,409,o),
(49,275,cs),
(20,126,o),
(81,-8,o),
(259,-8,cs)
);
},
{
closed = 1;
nodes = (
(179,107,o),
(161,182,o),
(176,263,cs),
(190,340,o),
(239,401,o),
(330,401,cs),
(420,401,o),
(439,326,o),
(424,245,cs),
(410,168,o),
(360,107,o),
(269,107,cs)
);
}
);
width = 600;
}
);
unicode = 111;
},
{
glyphname = ohorn;
lastChange = "2021-09-30 22:27:23 +0000";
layers = (
{
anchors = (
{
name = bottom;
pos = (236,-35);
},
{
name = ogonek;
pos = (261,10);
},
{
name = top;
pos = (349,550);
}
);
background = {
shapes = (
{
closed = 1;
nodes = (
(585,434,o),
(632,468,o),
(650,557,cs),
(657,592,o),
(651,630,o),
(635,669,c),
(698,651,l),
(568,625,l),
(621,664,l),
(620,622,o),
(619,584,o),
(613,556,cs),
(597,481,o),
(560,466,o),
(510,466,cs),
(457,466,o),
(392,496,o),
(335,496,c),
(461,440,l),
(480,436,o),
(499,434,o),
(516,434,cs)
);
}
);
};
guides = (
{
angle = 79;
pos = (609,400);
},
{
angle = 79;
pos = (574,391);
}
);
layerId = "13A5184A-77A5-4E03-80A5-A9198A2CA35F";
shapes = (
{
closed = 1;
nodes = (
(588,434,o),
(623,474,o),
(635,533,cs),
(642,573,o),
(639,620,o),
(629,669,c),
(688,646,l),
(558,630,l),
(611,664,l),
(608,611,o),
(609,568,o),
(602,535,cs),
(593,490,o),
(570,466,o),
(510,466,cs),
(457,466,o),
(392,496,o),
(335,496,c),
(461,440,l),
(480,436,o),
(499,434,o),
(516,434,cs)
);
},
{
ref = o;
}
);
width = 604;
},
{
anchors = (
{
name = bottom;
pos = (253,-35);
},
{
name = ogonek;
pos = (301,10);
},
{
name = top;
pos = (360,550);
}
);
background = {
shapes = (
{
closed = 1;
nodes = (
(647,396,o),
(686,429,o),
(701,500,cs),
(714,566,o),
(701,632,o),
(682,732,c),
(760,698,l),
(548,655,l),
(606,692,l),
(605,648,o),
(603,608,o),
(597,578,cs),
(581,501,o),
(555,488,o),
(510,488,cs),
(461,488,o),
(405,516,o),
(342,516,c),
(473,408,l),
(508,400,o),
(539,396,o),
(565,396,cs)
);
}
);
};
guides = (
{
angle = 78.6458;
pos = (664,317);
},
{
angle = 78.6458;
pos = (576,465);
}
);
layerId = "74CCE9C5-5564-42E0-9214-3BF0725DF94D";
shapes = (
{
closed = 1;
nodes = (
(649,396,o),
(688,432,o),
(700,493,cs),
(713,557,o),
(700,634,o),
(676,731,c),
(760,688,l),
(548,662,l),
(598,692,l),
(602,643,o),
(604,599,o),
(596,565,cs),
(585,518,o),
(562,488,o),
(510,488,cs),
(461,488,o),
(405,516,o),
(342,516,c),
(473,408,l),
(508,400,o),
(539,396,o),
(565,396,cs)
);
},
{
ref = o;
}
);
width = 641;
},
{
anchors = (
{
name = bottom;
pos = (261,-35);
},
{
name = ogonek;
pos = (341,10);
},
{
name = top;
pos = (371,550);
}
);
background = {
shapes = (
{
closed = 1;
nodes = (
(702,384,o),
(762,431,o),
(780,523,cs),
(794,597,o),
(783,672,o),
(737,785,c),
(854,744,l),
(563,687,l),
(635,722,l),
(644,667,o),
(648,613,o),
(642,579,cs),
(632,536,o),
(604,512,o),
(548,512,cs),
(545,512,o),
(542,513,o),
(541,513,c),
(484,388,l),
(506,386,o),
(526,384,o),
(546,384,cs)
);
}
);
};
guides = (
{
angle = 79;
pos = (725,252);
},
{
angle = 79;
pos = (618,481);
}
);
layerId = "6D60D92C-1450-4586-BB49-599D0D4C1213";
shapes = (
{
closed = 1;
nodes = (
(703,392,o),
(763,441,o),
(779,523,cs),
(795,605,o),
(767,721,o),
(735,790,c),
(853,744,l),
(560,685,l),
(637,719,l),
(644,674,o),
(648,619,o),
(643,587,cs),
(627,506,o),
(579,515,o),
(546,515,cs),
(498,515,o),
(450,535,o),
(373,535,c),
(523,405,l),
(536,398,o),
(563,392,o),
(591,392,cs)
);
},
{
ref = o;
}
);
width = 697;
}
);
metricLeft = o;
unicode = 417;
},
{
color = 3;
glyphname = oslash;
kernLeft = o;
kernRight = o;
lastChange = "2021-09-30 23:32:10 +0000";
layers = (
{
anchors = (
{
name = top;
pos = (349,550);
}
);
background = {
shapes = (
{
closed = 1;
nodes = (
(578,473,l),
(558,496,l),
(16,12,l),
(36,-10,l)
);
},
{
closed = 1;
nodes = (
(385,-6,o),
(501,102,o),
(528,245,cs),
(555,388,o),
(482,496,o),
(342,496,cs),
(201,496,o),
(84,388,o),
(56,245,cs),
(28,102,o),
(104,-6,o),
(245,-6,cs)
);
},
{
closed = 1;
nodes = (
(132,27,o),
(69,121,o),
(93,245,cs),
(117,369,o),
(217,463,o),
(336,463,cs),
(455,463,o),
(515,369,o),
(491,245,cs),
(467,121,o),
(370,27,o),
(251,27,cs)
);
}
);
};
layerId = "13A5184A-77A5-4E03-80A5-A9198A2CA35F";
shapes = (
{
closed = 1;
nodes = (
(576,471,l),
(554,496,l),
(16,14,l),
(38,-10,l)
);
},
{
closed = 1;
nodes = (
(401,-6,o),
(496,96,o),
(522,231,cs),
(553,384,o),
(479,496,o),
(329,496,cs),
(177,496,o),
(84,389,o),
(58,259,cs),
(29,112,o),
(105,-6,o),
(254,-6,cs)
);
},
{
closed = 1;
nodes = (
(130,27,o),
(68,121,o),
(94,254,cs),
(119,383,o),
(207,463,o),
(326,463,cs),
(453,463,o),
(512,373,o),
(485,231,cs),
(461,107,o),
(373,27,o),
(254,27,cs)
);
}
);
width = 587;
},
{
anchors = (
{
name = top;
pos = (377,550);
}
);
background = {
shapes = (
{
closed = 1;
nodes = (
(659,482,l),
(615,535,l),
(-16,44,l),
(27,-9,l)
);
},
{
closed = 1;
nodes = (
(444,-10,o),
(585,96,o),
(617,262,cs),
(649,428,o),
(560,535,o),
(376,535,cs),
(197,535,o),
(57,429,o),
(25,263,cs),
(-7,97,o),
(81,-10,o),
(266,-10,cs)
);
},
{
closed = 1;
nodes = (
(240,150,o),
(214,174,o),
(231,262,cs),
(248,351,o),
(286,375,o),
(343,375,cs),
(402,375,o),
(427,351,o),
(410,262,cs),
(393,174,o),
(356,150,o),
(299,150,cs)
);
}
);
};
layerId = "6D60D92C-1450-4586-BB49-599D0D4C1213";
shapes = (
{
closed = 1;
nodes = (
(666,478,l),
(615,535,l),
(-16,48,l),
(35,-9,l)
);
},
{
closed = 1;
nodes = (
(463,-9,o),
(583,82,o),
(614,247,cs),
(645,409,o),
(554,535,o),
(368,535,cs),
(159,535,o),
(56,422,o),
(28,279,cs),
(-4,115,o),
(96,-9,o),
(285,-9,cs)
);
},
{
closed = 1;
nodes = (
(240,151,o),
(217,183,o),
(234,270,cs),
(251,358,o),
(286,374,o),
(344,374,cs),
(402,374,o),
(425,341,o),
(408,253,cs),
(391,166,o),
(356,151,o),
(298,151,cs)
);
}
);
width = 649;
},
{
anchors = (
{
name = top;
pos = (360,550);
}
);
background = {
shapes = (
{
closed = 1;
nodes = (
(597,453,l),
(541,516,l),
(8,57,l),
(63,-8,l)
);
},
{
closed = 1;
nodes = (
(403,-8,o),
(527,99,o),
(558,254,cs),
(587,408,o),
(509,516,o),
(355,516,cs),
(201,516,o),
(76,409,o),
(45,254,cs),
(16,100,o),
(93,-8,o),
(251,-8,cs)
);
},
{
closed = 1;
nodes = (
(194,107,o),
(155,161,o),
(173,254,cs),
(191,347,o),
(253,401,o),
(332,401,cs),
(410,401,o),
(446,347,o),
(429,254,cs),
(411,161,o),
(351,107,o),
(273,107,cs)
);
}
);
};
guides = (
{
angle = 79;
pos = (24,145);
},
{
angle = 79;
pos = (523,80);
}
);
layerId = "74CCE9C5-5564-42E0-9214-3BF0725DF94D";
shapes = (
{
closed = 1;
nodes = (
(595,447,l),
(533,516,l),
(8,63,l),
(69,-8,l)
);
},
{
closed = 1;
nodes = (
(432,-8,o),
(525,89,o),
(554,231,cs),
(583,376,o),
(507,516,o),
(338,516,cs),
(171,516,o),
(78,417,o),
(50,277,cs),
(20,119,o),
(111,-8,o),
(267,-8,cs)
);
},
{
closed = 1;
nodes = (
(209,107,o),
(154,159,o),
(176,268,cs),
(191,350,o),
(236,401,o),
(324,401,cs),
(412,401,o),
(443,326,o),
(426,240,cs),
(411,150,o),
(357,107,o),
(276,107,cs)
);
}
);
width = 602;
}
);
metricLeft = o;
metricRight = o;
unicode = 248;
},
{
color = 3;
glyphname = oe;
kernLeft = o;
kernRight = e;
lastChange = "2021-09-30 23:32:10 +0000";
layers = (
{
background = {
shapes = (
{
closed = 1;
nodes = (
(379,-6,o),
(494,102,o),
(522,245,cs),
(550,388,o),
(477,496,o),
(338,496,cs),
(199,496,o),
(83,388,o),
(55,245,cs),
(27,102,o),
(101,-6,o),
(240,-6,cs)
);
},
{
closed = 1;
nodes = (
(131,27,o),
(68,121,o),
(92,245,cs),
(116,369,o),
(215,463,o),
(334,463,cs),
(453,463,o),
(514,369,o),
(490,245,cs),
(466,121,o),
(369,27,o),
(250,27,cs)
);
},
{
closed = 1;
nodes = (
(739,-6,o),
(789,5,o),
(835,24,cs),
(884,44,l),
(874,18,l),
(855,81,l),
(882,68,l),
(829,50,ls),
(782,34,o),
(740,27,o),
(695,27,cs),
(583,27,o),
(495,107,o),
(522,245,cs),
(548,377,o),
(653,463,o),
(760,463,cs),
(875,463,o),
(921,380,o),
(898,258,c),
(923,280,l),
(504,280,l),
(498,248,l),
(929,248,l),
(932,264,ls),
(956,387,o),
(912,496,o),
(769,496,cs),
(635,496,o),
(516,381,o),
(490,244,cs),
(458,80,o),
(560,-6,o),
(692,-6,cs)
);
}
);
};
layerId = "13A5184A-77A5-4E03-80A5-A9198A2CA35F";
shapes = (
{
closed = 1;
nodes = (
(401,-6,o),
(491,96,o),
(517,231,cs),
(548,384,o),
(479,496,o),
(329,496,cs),
(177,496,o),
(84,389,o),
(58,259,cs),
(29,112,o),
(105,-6,o),
(254,-6,cs)
);
},
{
closed = 1;
nodes = (
(130,27,o),
(68,121,o),
(94,254,cs),
(119,383,o),
(207,463,o),
(326,463,cs),
(453,463,o),
(512,373,o),
(485,231,cs),
(461,107,o),
(373,27,o),
(254,27,cs)
);
},
{
closed = 1;
nodes = (
(739,-6,o),
(794,8,o),
(840,27,cs),
(891,48,l),
(876,18,l),
(855,81,l),
(884,72,l),
(831,53,ls),
(786,37,o),
(742,27,o),
(697,27,cs),
(576,27,o),
(497,109,o),
(527,259,cs),
(553,391,o),
(652,463,o),
(762,463,cs),
(877,463,o),
(923,380,o),
(899,258,c),
(925,280,l),
(506,280,l),
(500,248,l),
(931,248,l),
(935,269,ls),
(957,386,o),
(905,496,o),
(764,496,cs),
(621,496,o),
(521,396,o),
(495,257,cs),
(464,93,o),
(558,-6,o),
(692,-6,cs)
);
}
);
width = 980;
},
{
background = {
shapes = (
{
closed = 1;
nodes = (
(427,-10,o),
(563,96,o),
(595,262,cs),
(627,428,o),
(542,535,o),
(365,535,cs),
(193,535,o),
(58,429,o),
(26,263,cs),
(-6,97,o),
(78,-10,o),
(256,-10,cs)
);
},
{
closed = 1;
nodes = (
(252,165,o),
(229,186,o),
(244,262,cs),
(259,339,o),
(292,360,o),
(341,360,cs),
(392,360,o),
(414,339,o),
(399,262,cs),
(384,186,o),
(352,165,o),
(303,165,cs)
);
},
{
closed = 1;
nodes = (
(701,-9,o),
(768,4,o),
(838,32,cs),
(917,64,l),
(886,28,l),
(845,222,l),
(895,181,l),
(813,165,ls),
(768,156,o),
(728,151,o),
(695,151,cs),
(611,151,o),
(572,176,o),
(590,270,cs),
(609,366,o),
(648,392,o),
(705,392,cs),
(764,392,o),
(777,361,o),
(763,289,c),
(808,321,l),
(557,321,l),
(536,210,l),
(942,210,l),
(951,255,ls),
(984,428,o),
(905,535,o),
(743,535,cs),
(593,535,o),
(434,444,o),
(399,262,cs),
(365,87,o),
(477,-9,o),
(640,-9,cs)
);
}
);
};
layerId = "6D60D92C-1450-4586-BB49-599D0D4C1213";
shapes = (
{
closed = 1;
nodes = (
(450,-9,o),
(566,82,o),
(597,247,cs),
(627,409,o),
(538,535,o),
(358,535,cs),
(155,535,o),
(55,422,o),
(28,279,cs),
(-3,115,o),
(94,-9,o),
(277,-9,cs)
);
},
{
closed = 1;
nodes = (
(251,165,o),
(231,193,o),
(246,269,cs),
(261,346,o),
(291,360,o),
(342,360,cs),
(393,360,o),
(413,331,o),
(398,254,cs),
(383,178,o),
(353,165,o),
(302,165,cs)
);
},
{
closed = 1;
nodes = (
(701,-9,o),
(769,4,o),
(838,32,cs),
(917,64,l),
(885,28,l),
(844,222,l),
(894,181,l),
(812,165,ls),
(767,156,o),
(727,151,o),
(694,151,cs),
(599,151,o),
(572,181,o),
(591,279,cs),
(608,368,o),
(638,392,o),
(703,392,cs),
(754,392,o),
(776,361,o),
(762,291,c),
(807,321,l),
(556,321,l),
(535,210,l),
(941,210,l),
(949,255,ls),
(979,429,o),
(898,535,o),
(736,535,cs),
(586,535,o),
(434,458,o),
(400,276,cs),
(368,101,o),
(478,-9,o),
(641,-9,cs)
);
}
);
width = 966;
},
{
background = {
shapes = (
{
closed = 1;
nodes = (
(397,-8,o),
(519,99,o),
(549,254,cs),
(579,408,o),
(503,516,o),
(349,516,cs),
(198,516,o),
(75,409,o),
(45,254,cs),
(15,100,o),
(91,-8,o),
(246,-8,cs)
);
},
{
closed = 1;
nodes = (
(194,107,o),
(155,161,o),
(173,254,cs),
(191,347,o),
(253,401,o),
(330,401,cs),
(409,401,o),
(446,347,o),
(428,254,cs),
(410,161,o),
(350,107,o),
(272,107,cs)
);
},
{
closed = 1;
nodes = (
(700,-8,o),
(758,4,o),
(815,30,cs),
(878,58,l),
(860,23,l),
(831,152,l),
(856,136,l),
(792,119,ls),
(752,108,o),
(712,102,o),
(678,102,cs),
(585,102,o),
(529,149,o),
(549,256,cs),
(567,347,o),
(627,409,o),
(709,409,cs),
(787,409,o),
(815,358,o),
(799,273,c),
(841,312,l),
(519,312,l),
(501,220,l),
(905,220,l),
(913,260,ls),
(942,408,o),
(884,516,o),
(736,516,cs),
(598,516,o),
(464,413,o),
(433,253,cs),
(400,84,o),
(504,-8,o),
(648,-8,cs)
);
}
);
};
layerId = "74CCE9C5-5564-42E0-9214-3BF0725DF94D";
shapes = (
{
closed = 1;
nodes = (
(425,-8,o),
(517,89,o),
(544,231,cs),
(572,376,o),
(499,516,o),
(335,516,cs),
(170,516,o),
(76,417,o),
(49,277,cs),
(18,119,o),
(110,-8,o),
(265,-8,cs)
);
},
{
closed = 1;
nodes = (
(207,107,o),
(153,159,o),
(175,268,cs),
(190,350,o),
(235,401,o),
(322,401,cs),
(410,401,o),
(442,326,o),
(425,240,cs),
(409,150,o),
(356,107,o),
(275,107,cs)
);
},
{
closed = 1;
nodes = (
(699,-8,o),
(759,4,o),
(819,30,cs),
(883,58,l),
(861,23,l),
(828,152,l),
(856,136,l),
(792,119,ls),
(752,108,o),
(711,102,o),
(677,102,cs),
(577,102,o),
(529,149,o),
(552,271,cs),
(570,362,o),
(621,409,o),
(700,409,cs),
(778,409,o),
(814,352,o),
(799,273,c),
(841,312,l),
(519,312,l),
(501,220,l),
(905,220,l),
(913,261,ls),
(940,397,o),
(870,516,o),
(722,516,cs),
(581,516,o),
(461,434,o),
(430,270,cs),
(397,101,o),
(500,-8,o),
(646,-8,cs)
);
}
);
width = 946;
}
);
metricLeft = o;
metricRight = e;
unicode = 339;
},
{
color = 4;
glyphname = p;
kernLeft = n;
kernRight = o;
lastChange = "2021-09-30 23:32:11 +0000";
layers = (
{
background = {
shapes = (
{
pos = (1,0);
ref = b;
}
);
};
layerId = "13A5184A-77A5-4E03-80A5-A9198A2CA35F";
shapes = (
{
closed = 1;
nodes = (
(404,-6,o),
(509,89,o),
(535,228,cs),
(565,388,o),
(483,496,o),
(347,496,cs),
(309,496,o),
(270,486,o),
(208,456,cs),
(154,430,l),
(153,404,l),
(217,432,ls),
(261,451,o),
(304,463,o),
(341,463,cs),
(459,463,o),
(527,376,o),
(500,230,cs),
(478,110,o),
(389,27,o),
(261,27,cs),
(225,27,o),
(191,35,o),
(147,58,cs),
(87,89,l),
(81,62,l),
(129,33,ls),
(171,7,o),
(216,-6,o),
(265,-6,cs)
);
},
{
closed = 1;
nodes = (
(40,-195,l),
(160,417,l),
(161,424,l),
(164,490,l),
(138,490,l),
(1,-217,l)
);
}
);
width = 593;
},
{
background = {
shapes = (
{
closed = 1;
nodes = (
(513,-9,o),
(603,118,o),
(627,245,cs),
(653,376,o),
(622,535,o),
(454,535,cs),
(417,535,o),
(365,526,o),
(325,508,cs),
(244,472,l),
(277,345,l),
(300,351,ls),
(315,355,o),
(332,357,o),
(351,357,cs),
(401,357,o),
(425,331,o),
(412,258,cs),
(397,184,o),
(368,168,o),
(314,168,cs),
(299,168,o),
(280,173,o),
(264,181,cs),
(246,190,l),
(165,70,l),
(206,41,ls),
(248,10,o),
(296,-9,o),
(348,-9,cs)
);
},
{
closed = 1;
nodes = (
(172,-195,l),
(287,389,l),
(263,425,l),
(253,525,l),
(96,525,l),
(-48,-217,l)
);
}
);
};
layerId = "6D60D92C-1450-4586-BB49-599D0D4C1213";
shapes = (
{
closed = 1;
nodes = (
(513,-9,o),
(603,118,o),
(627,245,cs),
(653,376,o),
(622,535,o),
(454,535,cs),
(417,535,o),
(365,527,o),
(325,510,cs),
(244,478,l),
(277,345,l),
(300,351,ls),
(315,355,o),
(332,357,o),
(351,357,cs),
(401,357,o),
(425,331,o),
(412,258,cs),
(397,184,o),
(368,168,o),
(314,168,cs),
(299,168,o),
(280,173,o),
(264,181,cs),
(246,190,l),
(165,70,l),
(206,41,ls),
(248,10,o),
(296,-9,o),
(348,-9,cs)
);
},
{
closed = 1;
nodes = (
(172,-195,l),
(287,389,l),
(263,425,l),
(253,525,l),
(96,525,l),
(-48,-217,l)
);
}
);
width = 655;
},
{
background = {
shapes = (
{
closed = 1;
nodes = (
(441,-8,o),
(535,89,o),
(563,231,cs),
(592,376,o),
(517,516,o),
(348,516,cs),
(181,516,o),
(87,417,o),
(60,277,cs),
(30,119,o),
(121,-8,o),
(276,-8,cs)
);
},
{
closed = 1;
nodes = (
(218,107,o),
(165,159,o),
(186,268,cs),
(202,350,o),
(246,401,o),
(333,401,cs),
(421,401,o),
(453,326,o),
(436,240,cs),
(418,150,o),
(367,107,o),
(286,107,cs)
);
}
);
};
guides = (
{
angle = 79;
pos = (467,394);
},
{
angle = 79;
pos = (603,438);
}
);
layerId = "74CCE9C5-5564-42E0-9214-3BF0725DF94D";
shapes = (
{
closed = 1;
nodes = (
(430,-8,o),
(534,86,o),
(564,240,cs),
(597,401,o),
(522,516,o),
(386,516,cs),
(342,516,o),
(294,497,o),
(246,467,cs),
(201,439,l),
(209,352,l),
(255,376,ls),
(291,395,o),
(313,401,o),
(345,401,cs),
(419,401,o),
(457,347,o),
(439,253,cs),
(421,155,o),
(364,106,o),
(289,106,cs),
(265,106,o),
(230,111,o),
(202,121,cs),
(155,138,l),
(118,50,l),
(180,20,ls),
(213,4,o),
(262,-8,o),
(299,-8,cs)
);
},
{
closed = 1;
nodes = (
(108,-195,l),
(223,394,l),
(212,415,l),
(214,508,l),
(119,508,l),
(-22,-217,l)
);
}
);
width = 611;
}
);
metricLeft = n;
metricRight = o;
unicode = 112;
},
{
color = 3;
glyphname = thorn;
kernLeft = b;
kernRight = o;
lastChange = "2021-09-30 23:32:11 +0000";
layers = (
{
background = {
shapes = (
{
closed = 1;
nodes = (
(403,-6,o),
(509,89,o),
(536,228,cs),
(565,388,o),
(482,496,o),
(347,496,cs),
(309,496,o),
(270,486,o),
(208,456,cs),
(153,430,l),
(152,404,l),
(216,432,ls),
(260,451,o),
(304,463,o),
(340,463,cs),
(458,463,o),
(527,376,o),
(500,230,cs),
(479,110,o),
(389,27,o),
(260,27,cs),
(225,27,o),
(190,35,o),
(146,58,cs),
(86,89,l),
(81,62,l),
(128,33,ls),
(170,7,o),
(215,-6,o),
(265,-6,cs)
);
},
{
closed = 1;
nodes = (
(40,-195,l),
(160,417,l),
(161,424,l),
(164,490,l),
(138,490,l),
(0,-217,l)
);
},
{
pos = (1,0);
ref = h;
}
);
};
layerId = "13A5184A-77A5-4E03-80A5-A9198A2CA35F";
shapes = (
{
closed = 1;
nodes = (
(403,-6,o),
(509,89,o),
(536,228,cs),
(565,388,o),
(482,496,o),
(347,496,cs),
(309,496,o),
(270,486,o),
(208,456,cs),
(153,430,l),
(152,404,l),
(216,432,ls),
(260,451,o),
(304,463,o),
(340,463,cs),
(458,463,o),
(527,376,o),
(500,230,cs),
(479,110,o),
(389,27,o),
(260,27,cs),
(225,27,o),
(190,35,o),
(146,58,cs),
(86,89,l),
(81,62,l),
(128,33,ls),
(170,7,o),
(215,-6,o),
(265,-6,cs)
);
},
{
closed = 1;
nodes = (
(40,-195,l),
(228,770,l),
(187,738,l),
(0,-217,l)
);
}
);
width = 594;
},
{
background = {
shapes = (
{
ref = h;
}
);
};
layerId = "6D60D92C-1450-4586-BB49-599D0D4C1213";
shapes = (
{
closed = 1;
nodes = (
(513,-9,o),
(603,118,o),
(628,245,cs),
(654,376,o),
(622,535,o),
(454,535,cs),
(418,535,o),
(365,527,o),
(325,510,cs),
(244,478,l),
(278,345,l),
(301,351,ls),
(316,355,o),
(332,357,o),
(351,357,cs),
(402,357,o),
(426,331,o),
(412,258,cs),
(398,184,o),
(368,168,o),
(315,168,cs),
(300,168,o),
(281,173,o),
(264,181,cs),
(246,190,l),
(165,70,l),
(206,41,ls),
(248,10,o),
(297,-9,o),
(348,-9,cs)
);
},
{
closed = 1;
nodes = (
(173,-195,l),
(361,770,l),
(137,738,l),
(-48,-217,l)
);
}
);
width = 656;
},
{
background = {
shapes = (
{
pos = (1,0);
ref = h;
}
);
};
layerId = "74CCE9C5-5564-42E0-9214-3BF0725DF94D";
shapes = (
{
closed = 1;
nodes = (
(430,-8,o),
(534,86,o),
(564,240,cs),
(597,401,o),
(522,516,o),
(386,516,cs),
(342,516,o),
(294,497,o),
(246,467,cs),
(201,439,l),
(209,352,l),
(255,376,ls),
(291,395,o),
(313,401,o),
(345,401,cs),
(419,401,o),
(457,347,o),
(439,253,cs),
(421,155,o),
(364,106,o),
(289,106,cs),
(265,106,o),
(230,111,o),
(202,121,cs),
(155,138,l),
(118,50,l),
(180,20,ls),
(213,4,o),
(262,-8,o),
(299,-8,cs)
);
},
{
closed = 1;
nodes = (
(108,-195,l),
(297,770,l),
(165,738,l),
(-22,-217,l)
);
}
);
width = 611;
}
);
metricLeft = h;
metricRight = p;
unicode = 254;
},
